<mxfile host="app.diagrams.net" agent="Mozilla/5.0 (Windows NT 10.0; Win64; x64; rv:136.0) Gecko/20100101 Firefox/136.0" version="26.0.10">
  <diagram name="Seite-1" id="uEw9_RQrwVNodmQOm5_5">
    <mxGraphModel dx="989" dy="520" grid="1" gridSize="10" guides="1" tooltips="1" connect="1" arrows="1" fold="1" page="1" pageScale="1" pageWidth="827" pageHeight="1169" math="0" shadow="0">
      <root>
        <mxCell id="0" />
        <mxCell id="1" parent="0" />
        <mxCell id="nmFTTgFp_2PvwewySN3C-33" style="edgeStyle=orthogonalEdgeStyle;rounded=0;orthogonalLoop=1;jettySize=auto;html=1;exitX=0.5;exitY=1;exitDx=0;exitDy=0;" edge="1" parent="1" source="nmFTTgFp_2PvwewySN3C-1" target="nmFTTgFp_2PvwewySN3C-2">
          <mxGeometry relative="1" as="geometry" />
        </mxCell>
        <mxCell id="nmFTTgFp_2PvwewySN3C-1" value="/Command &amp;lt;Spielname&amp;gt;" style="rounded=1;whiteSpace=wrap;html=1;" vertex="1" parent="1">
          <mxGeometry x="280.02" y="90" width="120" height="60" as="geometry" />
        </mxCell>
        <mxCell id="nmFTTgFp_2PvwewySN3C-34" style="edgeStyle=orthogonalEdgeStyle;rounded=0;orthogonalLoop=1;jettySize=auto;html=1;exitX=0.5;exitY=1;exitDx=0;exitDy=0;entryX=0.5;entryY=0;entryDx=0;entryDy=0;" edge="1" parent="1" source="nmFTTgFp_2PvwewySN3C-2" target="nmFTTgFp_2PvwewySN3C-7">
          <mxGeometry relative="1" as="geometry">
            <mxPoint x="340.01" y="160" as="targetPoint" />
          </mxGeometry>
        </mxCell>
        <mxCell id="nmFTTgFp_2PvwewySN3C-2" value="Eingabe: &amp;lt;Schnitzeljagt V1&amp;gt;" style="rounded=1;whiteSpace=wrap;html=1;" vertex="1" parent="1">
          <mxGeometry x="280.02" y="190" width="120" height="60" as="geometry" />
        </mxCell>
        <mxCell id="nmFTTgFp_2PvwewySN3C-36" style="edgeStyle=orthogonalEdgeStyle;rounded=0;orthogonalLoop=1;jettySize=auto;html=1;exitX=0.5;exitY=1;exitDx=0;exitDy=0;entryX=0.5;entryY=0;entryDx=0;entryDy=0;" edge="1" parent="1" source="nmFTTgFp_2PvwewySN3C-7" target="nmFTTgFp_2PvwewySN3C-10">
          <mxGeometry relative="1" as="geometry" />
        </mxCell>
        <mxCell id="nmFTTgFp_2PvwewySN3C-66" style="edgeStyle=orthogonalEdgeStyle;rounded=0;orthogonalLoop=1;jettySize=auto;html=1;entryX=0;entryY=0.5;entryDx=0;entryDy=0;" edge="1" parent="1" source="nmFTTgFp_2PvwewySN3C-7" target="nmFTTgFp_2PvwewySN3C-1">
          <mxGeometry relative="1" as="geometry">
            <Array as="points">
              <mxPoint x="210" y="320" />
              <mxPoint x="210" y="120" />
            </Array>
          </mxGeometry>
        </mxCell>
        <mxCell id="nmFTTgFp_2PvwewySN3C-67" value="&lt;div&gt;Eingabe&amp;nbsp;&lt;/div&gt;&lt;div&gt;fehlerhaft&lt;/div&gt;" style="edgeLabel;html=1;align=center;verticalAlign=middle;resizable=0;points=[];" vertex="1" connectable="0" parent="nmFTTgFp_2PvwewySN3C-66">
          <mxGeometry x="0.1298" y="2" relative="1" as="geometry">
            <mxPoint as="offset" />
          </mxGeometry>
        </mxCell>
        <mxCell id="nmFTTgFp_2PvwewySN3C-7" value="Eingabe &amp;lt;Spielstunden DST&amp;gt;(Eingabe)" style="rounded=1;whiteSpace=wrap;html=1;" vertex="1" parent="1">
          <mxGeometry x="280.02" y="290" width="120" height="60" as="geometry" />
        </mxCell>
        <mxCell id="nmFTTgFp_2PvwewySN3C-41" style="edgeStyle=orthogonalEdgeStyle;rounded=0;orthogonalLoop=1;jettySize=auto;html=1;exitX=1;exitY=0.5;exitDx=0;exitDy=0;" edge="1" parent="1" source="nmFTTgFp_2PvwewySN3C-8">
          <mxGeometry relative="1" as="geometry">
            <mxPoint x="280" y="440.3333333333335" as="targetPoint" />
          </mxGeometry>
        </mxCell>
        <mxCell id="nmFTTgFp_2PvwewySN3C-8" value="" style="shape=image;verticalLabelPosition=bottom;labelBackgroundColor=default;verticalAlign=top;aspect=fixed;imageAspect=0;image=data:image/png,iVBORw0KGgoAAAANSUhEUgAAAh8AAAFQCAYAAAAfuxz1AAAgAElEQVR4Xu2de4wly13ff7v3fX25j13bcyMfW4nx7oKGh6wBZzQ4Q2KBD0YrpIlCAiMUCCMSUBjxV4QVJayWRAlEihQyRKBIw0NCAyJ/zD8jzBhEpJEZTQIrC8iI3DvGiuy18Njecx9c39fu3U3VOafPqap+VXdX9znd5zPoCtjTXV31+f2q6tu/+lX1hRs3bjwQ/iAAAQhAAAIQgEBDBC4gPhoizWMgAAEIQAACEBgSQHzgCBCAAAQgAAEINEoA8dEobh4GAQhAAAIQgADiAx+AAAQgAAEIQKBRAoiPRnHzMAhAAAIQgAAEEB/4AAQgAAEIQAACjRJAfDSKm4dBAAIQgAAEIID4wAcgAAEIQAACEGiUAOKjUdw8DAIQgAAEIAABxAc+AAEIQAACEIBAowQQH43i5mEQgAAEIAABCCA+8AEIQAACEIAABBolgPhoFDcPgwAEIAABCEAA8YEPQAACEIAABCDQKAHER6O4eRgEIAABCEAAAogPfAACEIAABCAAgUYJID4axc3DIAABCEAAAhBAfOADEIAABCAAAQg0SgDx0ShuHgYBCEAAAhCAAOIDH4AABCAAAQhAoFECiI9GcfMwCEAAAhCAAAQQH/gABCAAAQhAAAKNEkB8NIqbh0EAAhCAAAQggPjAByAAAQhAAAIQaJQA4qNR3DwMAhCAAAQgAAHEBz4AAQhAAAIQgECjBBAfjeLmYRCAAAQgAAEIID7wAQhAAAIQgAAEGiWA+GgUNw+DAAQgAAEIQADxgQ9AAAIQgAAEINAogZaKjzM52N2TW7cVq96KbG5clyuXGuXWkofBqSWGopoQqJkAY0FYwPCsyrOd4uPsQG7u3Zq0vdfflq3ViupjoJxpRwmaYak96W9vSdUiqxqn8v1wqoyQAmokkNXnutgfa0SZWzRjQS6iQhfUwbNQBdp/cXjxoQaNk+MjOVVhCR2YGP31VIBiWdbXrqoIRUWRoItzDL+yeUOuX6lojMGJ7O4cjuvcgPiAU0WDcXvrCWT1uab74xCmegG5Gb2AZNDt9WV7a1UCjGTNmbALY2ZztPKfVAfP/Kd26oqg4mNwsis7h1PJESellkhuqCWSyghrCHk1ONjBqbIDUEBjBAZysrsjUbcOIvSjupcWHzXVyapPFuBQ41hjRhwJq9BL1Q2OmU2S8ntWFs+a/NOvYq25Kpz4cJRgMoEGIgpl0TfVkeBU1kLcNxMCNQ6kbRUfbYx81OE7TY2ZddS91jJr7DO11rvZwoOJj7ODmzJNw1BvBttGEuhgIGfH+3J0a0nWg0Q+aoBUR0cat3tPtTuK+MCpBtvNQZFDu553Mfm5xoF0zsVH0CjPHPho8CrUMWYGr+QsCqyxz8yiOTU9M5D4sGHLyqbc8EjCGKgowM5YsYw6uhIpB1qkRPkiOldkXTZUWdb6qpWM5gidCShV1smxHJ3ektuTlaAo92Q1vjsmZEeaiI7owVGYttucfOy50l+XtVXHntpmUQ7MubK9sXLX6/VkaX1D+Yazwm5EkEYJxyqwrO19qOw99oHeSl/5znhtflz+4XCLlP7rKTdNKLek/5iisqd2YK0H2YFVwYeHffCynKj+NGqzijpuqiTqaM1z8kJg5GYp1ivLU/vYQjk+AsUn5wr1dZO8U/pj8ToVGDmdZRdv8eHBMrcWnmX49LH5GjOL+YRP+1LHkCTIdY0TKXOQv3+qucDsm13Y4JDr5PYF9YgPz90iZu7DSn9T5HS8fdZthBvmzBUKxnpcIhA98WzZSaq5ZXqQjYmOaJ6LEtQc8dExTrY9+3J+GCXwOuxcceqxFNVT92yZgtYcVJTIWDo/HG29TvCdzfWvyZESuck/J+2UKu4/SXk8WvysryUIXQ9Xstboy/iwenZfMTFTsCaTaU5uQ7R7LG8gtXeZFWcmJSIfxerkBXp6URnx4ckysyYFymjXmFncJ0qPIWmA6xonSorjSZ9xbe75wl7Qo+f68kDiQ724JiSb5g2++YmXU3bWQJcpFNwJPo2/kzRWRXzE3qqjZyqR47zpd5mTvz3t3B+/+5x8IQ/B4tfz3OTBkv6jH6bfhvaPlAiyZU5eP4jXs2QdciaxSHz4TuB5100jAyHq69i35ODuHa1Icg6vhFPbX/IY+RwDUKQMv74yatxsx8xyPuHfPs/8wbrGiar+ifiQYOIj801teBDYWmybbczRjAPDBmcnsr9nvDmb0Y8soRDbf70pG+Mwv1umf+dMmcbSRIcOXyctFQyLyXgbaDmn+MAxHSAGJ2qJTS2JTGSZeTbL0GbnI6F2VS3JjFdYXHtZE0tsUJkuo8R8ZzgSR/kYOgy8L3tGSCCr3J6KyHn5j+kiKX6hozcba9P2pYqjID48Kn1lc3u0ZKWiciOw5nZSJwI4Fk/nyxvGuTke69dB6usnPkat8qiTn/K0ryosPoqyTKpUsTJaM2aW9InSY0iavesaJwq8ACcLYtOHPYVUGZ+e43sCio/xoDBZx4q32g2d244W374WS86MklUzDG/dkxDKsp7pK2h835LUBNdfX1Pr6nknAJjrfd3hZNvT7VD2hOHzRuhOMtY91qAS77ypvhMJQOM8B3NwKO0/iT4yOvNmmmcyVEG5B9iVroMzeSYzdt5IVR/Y3MhaGsqf6MPUt43ioyjLRCextjKrcEWmPdoyZpb1ieBjSE3jROaSYV3ieI6FRJmqBRYf4yqkLkPYocBUIRC1JM1xUsWHM8HpNfdrl20ud46mb73BxEde8mKKaTrGKdueeeIjSkw7VwmnyWfFpIuPHOEaE6FpE2oF/8nofTqJbn+Sc5InPirUwXPpMDG0nSqc88RHTfWt/GZZYjgskfNRjGVynYqU0Y4xs7xPVBtDEvhac0iocUIH37IOpczrMyV8s4O31CM+JqBGu1f2rEzAqQOE70ieJxRG9QsmPkYFlt/l0A1OpQcOr3C3s4Zdy6BSwX8SBoeBEpfH+24SdZ74qFAHT/ExjFGmHQgY+1ZS3kBaU31nMbiXEB/FWKbPIL72aMeYWd4nSo8haWhrGScQHyG0UM3iY1TFtFBa+I7km+Q0Rme+ERcYuKfaanR+iS2utArxXX6xTdh2TuUGDjd0PdruOQpY3ZEXjqa7WJqOfOR2sJQM9WTRod3CZ/dLkz48jjYZ25NHKto8PjxPfNRU3xaJj/EoF9vqHWeZ51H59mjHmFneJ8qNIRlcER95Tjez3xsRH/a3WFIiHxIi5yMvtJ/BuYz4iIpL3WKblXiaUJeUjhJ+nbceTqUGjgKTTNPiwy8vZWpHneh6bIil6Bc/0TFxJisHoFAdKviweb6CnZdSTHwEq28Bv6i0w8XshiUjH25PTmfpP86nldGOsaD8+FJqDMnCivjwd7qGrwwjPoad9lSl1sc/HjdQvx2rD7ZN9jkYb1XZmdvTA8iGTDyjFG70QB8ktaYSQCcpoFoovDg6jGrJ/CBdhYE7PxIyfpPsOKdSA0dswB/vzlBJW+6SXf3iIx6l8/WfpLB5MdFhiBhrSWSUTxTOh3VI/EjO9eF95s4bzzwq3Q+3h4f+DdT/jPpVLX2ugPhIqpO9qyxvqWvMvrD4KMoyaXQvVkZbxsyyPlFqDJlz8ZHsn+x2CSg+Ug6UchzDfEtJXedMcCbr7SZzYPJfb/Qvs6AkTDvh1DO3YaS1pl/qbQuncgOHv72aEB/eXzZ1bBT2hFN/JsV92KNs51C/tHMopvbwKHPchbzrm/MykFunMp889+6fUZTWo92534EpVkZbxoKy/ajcGDJvyy76w+vm50am9eOQsSmLRsWHG5K1HU0dfa7OoEzc6OCuredFKbwGkSJb+wqKj9hyzPjbLl71chIr3TdLdYbIvHIqO3D4DqjNiI8hcBXJyxPTtv8E/7ZLiTpkZ+BHTpk32SWc/ptyUFP6OTlp/aVAn8vr43l1mgvxkcAyhqaYPVo1Zpbw4bJjSOoIPZNlF1WbPP902XDCaclJVo/XKrP/RXWmwanzbQ61BUR6S06IdxLl3FUHT423VQ7fEK7KHXN3TNphXda5+mkh1aRvCqgHD79fsSzXrjpnG3iVWZ7PVI90l5O1Tp3wxmdFB8xDxrT/uPkS0XdGLr8w+f6PLT6UQJgcQpeQL6SWLiYHiXlvtTXtW9B/qrtGQgkF62ANaGnfPBrCHp4/cjr5hpJ+dMZ3j4a3qO3CR8Z3knRStfp+zar90aWE7ymV7HMe/TG7TuZhfp7LLtYBbFkGNfytBMtYyQXKiE/O8z5mFvPhKmNIosXUuFLLOFHZP1l2CRP5KDnw5mZulyy3a7fBqWsWpT0QKEeAsaAcN+6aPwKIj/mzSfzFyExAzF1DbkGDqCIEIFCKAOKjFDZumkMCiI85NIpbJQacFhiJKkKgAQKMBQ1A5hGNEEB8NIK52kMYcKrx424IdIUAY0FXLEk7Zio+rIxglhPSvdHMnIYTvRYCi0uAsWBxbd+xls9WfHQMJs2BAAQgAAEIQCCfAOIjnxFXQAACEIAABCAQkADiIyBMioIABCAAAQhAIJ8A4iOfEVdAAAIQgAAEIBCQAOIjIEyKggAEIAABCEAgnwDiI58RV0AAAhCAAAQgEJAA4iMgTIqCAAQgAAEIQCCfAOIjnxFXQAACEIAABCAQkADiIyBMioIABCAAAQhAIJ8A4iOfEVdAAAIQgAAEIBCQAOIjIEy7qDM52d2Tw9vqX3srsrl1Xa5I0r/VVgEKhgAEIAABCMwlgdrEx+DsRPb3DkXPvfpvZfOGXL9SlcGZHNzck1uFilET/w098Rf9q/iswYns7kTt70l/e0tWJeHfLhWtF9dDAAIQgAAE2k2gBvExkJODfTm8FcmOBRUfiVEOIh/t7i7UHgIQgAAEQhAIKj4G6ouL+3u3JtEOs4ILF/kIYR3KgAAEIAABCHSQQEDxoSIeuzujHAdRywyby3IafNklwQLmJ6bVz2FEToqlm3xWB52NJkEAAhCAAAQ0geDi43SpLxvXV+WSlfNQoygoLAgGcnZyLEenKkIzWRnqqZzQZVlfW5UrWTkYns/SEaAdFQEa/vX6sr2leEz8TT3/YEemP2/L1iqJH3RHCEAAAhBYHAIBxYcDbS7Fh0oiVTtQnHQUo+I9FTnZSk+M9RUfJ7uyMwoBJYqPaYRI/4z4WJzuRkshAAEIQCBw5GPexYe5LJRl/IzdMYgPeg0EIAABCECgMoHFiXw4wqHX35SN1SvD5RB3W3BqNALxUdnhKAACEIAABCCwMOLj7ODmJM9Cra3IDefQkUHmUsnYURAf9BgIQAACEIBAZQILIj7sJZfeSl/Wr1224d05kr3UPA3ER2VPowAIQAACEIDAmMCCiI+Cp5XGdqggPugxEIAABCAAgVAEFkR8+CabjrEmLMsMf2HZJZTfUQ4EIAABCCwwgYUUH6W3t5YRH+LunnGWgNhqu8Ddj6ZDAAIQWEwCcyA+zLM3xh9gK3LmVilBoM/z2JA1daLY5FEDdfjXi+rwscNbspT2ETzPZ7kRkonYGai27tvnjJQWQovpr7QaAhCAAAQ6QCCo+LB2lGTBMZc1YltgCx665SsI1IfefL+Im3pEu++znAPWslAgPjrQi2gCBCAAAQgUIhBQfBTIq5iJ+FBcvERBRvTFV3wM00OMrb2WSVT5/SU5VBEW/Yf4KOSvXAwBCEAAAh0gEFB8ZE24Nil7wq247GIJCp9lm6Rvu2gVoJZilpfl2tWM77sUfNbgRH3lV4mM6BMywy2++vsxdw7k5vjjLoiPDvQimgABCEAAAoUIBBUfhZ7MxRCAAAQgAAEILCQBxMdCmp1GQwACEIAABGZHAPExO/Y8GQIQgAAEILCQBBAfC2l2Gg0BCEAAAhCYHQHEx+zY82QIQAACEIDAQhJAfCyk2Wk0BCAAAQhAYHYEEB+zY8+TIQABCEAAAgtJAPGxkGan0RCAAAQgAIHZEUB8zI49T4YABCAAAQgsJAHEx0KanUZDAAIQgAAEZkcA8TE79jwZAhCAAAQgsJAEEB8LaXYaDQEIQAACEJgdAcTH7NjzZAhAAAIQgMBCEkB8LKTZaTQEIAABCEBgdgQQH7Njz5MhAAEIQAACC0kA8bGQZqfREIAABCAAgdkRCCs+BgM5e/FYjk7P5fbt29NW9Xqysrwua6tX5FLItp4dyM29W+MSV2Rz+7pcCfmAussPyYKyIAABCEAAAi0hEE58WBN1Sut7SiBsKYEQCo71zJ70t7dktTbxUUP5oThQDgQgAAEIQKBFBIKJj8HJruwcGtGONAgrm3LjeiD5gfhokatRVQhAAAIQgMCIQDDxIVoIHJ3LyvqGrKm1j1EAYiAnuztiaxIV/bgRKPqB+MCPIQABCEAAAq0jEE58pDV9cCK7O4cyjYk0LT4GMjh7UY6PTuVWUh7KVZWHkrZU4yVuKpTfOnehwhCAAAQgAIHqBDouPs7kYHdPiY4sUCoZdnNLEleCcsVHxfKr248SIAABCEAAAq0jUL/4cBNRG8v5SFrySbNPSjQmU3wEKL917kKFIQABCEAAAtUJ1Cw+3Ak68I6RLHHgiJ6eEj0bKrwR5aKcHezLnhES6fW3ZcvdKlN3+dXtRwkQgAAEIACB1hGoVXzEdsCEjHpo1Bni4OzgphIXY3v0+rK9teqcMeIIo6Rr6i6/de5ChSEAAQhAAALVCdQmPmLCI1EAVGxAqjiwhUViVEM92q5jwtJL3eVXbD63QwACEIAABNpIoBbxMVCT9s4k7KCw1CE8MiMfKhH0pko0HVtkZfNGYkJpefERqPw2egx1hgAEIAABCFQkEF58uAmmdQmPAuLDK/JRaNnFFh+ly69oPG6HAAQgAAEItJFAWPHRpPDIFB8e+RzuAWhJ+Sieyy7JkR2nDqHzXdrobdQZAhCAAAQgoAiEEx/uYWLeEQ/zrIy83TB6Qt8X2dDfcFEfsTvYmSaVip2z4eac9Ppqt8vkw3b6Xnu3y2hppu7y8TkIQAACEIAABIKJD2t3SR5XMwrgbolN2vI6Kc9e7rAeExM7Gde69ZvcW3f5eWD4HQIQgAAEINB9Ai0TH+kHeyUmlSphs6sSX7MPODW/tFt3+d13KFoIAQhAAAIQyCMwe/EhRZZdVHMGZ3JyfCSH0QFhvRXpr6/JqvqYXeLfQC2xvHgsR6dKhBgqpKfuW1b3XZ18BG98d93l51mE3yEAAQhAAAIdJxBMfHScE82DAAQgAAEIQCAQAcRHIJAUAwEIQAACEICAHwHEhx8nroIABCAAAQhAIBABxEcgkBQDAQhAAAIQgIAfAcSHHyeuggAEIAABCEAgEAHERyCQFAMBCEAAAhCAgB8BxIcfJ66CAAQgAAEIQCAQAcRHIJAUAwEIQAACEICAHwHEhx8nroIABCAAAQhAIBABxEcgkBQDAQhAAAIQgIAfAcSHHyeuggAEIAABCEAgEAHERyCQFAMBCEAAAhCAgB8BxIcfJ66CAAQgAAEIQCAQAcRHIJAUAwEIQAACEICAHwHEhx+nAledycHunty6rW7prcjmxnW5cqnA7VwKAQhAAAIQ6DgBxEdoA58dyM29W5NSe/1t2VpFfYTGTHkQgAAEINBeAmHFx+BMTo5fkNPzc7l9W7/6j/96PVlZXpe11SsSZBo+O5HdvUMZPaEn/e0tmZv53REfK5s35PqV9joINYcABCAAAQiEJhBOfDiTbnJF1TLEDbUMUbUV1rPmTHwIyy5Vzcv9EIAABCDQbQLBxMfgZFd2Do1oRxq3lU25UTUUMNfio9sOQ+sgAAEIQAACVQmEFR+nIivrG7KmMiyj5ZW4KAkQ/UB8VLU790MAAhCAAARmRiCY+EhvwUBOdndkGhRpVnwMlFDZiRJAe33Z3lo18k4GcnawI9Ofp8mh5n2jvA197b4cqW0sUa7JSj8hj0XlvRzsqN0uQyCqrdvsdpmZd/NgCEAAAhCYSwLNi4+YACjBpUDkw4q8JIgPUxiZO1PM+1b6fTk/jBJcnfq6y0gDlQy7M6fJsCVQcwsEIAABCEAgNIF6xYfe/bK/Z0Q9VCwgxO6PhsVHNnQn4RXxEdpHKQ8CEIAABDpGIKz4sCZel5TabtvfkOsh9sTORHxMRcbgRC3lHKac5YH46FgXoTkQgAAEIBCaQGPio6dO+1xeX5PVEMd9Ni4+3O28dh6LdZAY4iO0j1IeBCAAAQh0jEBj4mPCrYU5H1IgV0QQHx3rIjQHAhCAAARCEwgrPmK1G8jg7Fj21XYS8wSQykeONx35QHyE9jvKgwAEIACBBSZQs/gYk3VPP60a/UB8LLDL0nQIQAACEGg7gcUSH/rcDet49/TcjbJbdFl2aXuXoP4QgAAEIFA3gUDiYzSJny71ZX3tqvqE/PTzcQOVA3G8fzj6xPz4z152Mb6F4vuRuAKRD3UyWPJXZvVhYGobcFq9EB91ux7lQwACEIDAohIIKj58Pu0yPPXTjD6U+QR9kY/YZW7/tc2edsgYCaeL2j1oNwQgAAEI1EEgkPgQFWC4OTmmPL2iCV+grU18TJ+VXjd1TX9JDsdndiA+6nAxyoQABCAAAQjYBIKJDxG9s+VFOT46lfPb0fdPRg+Lzvi4anxwblqNEssuXtEMO8KiDwbbVyIjWv3preglolW5cme6LGOJj8xvwthiyz7nw/y2S4LYwgMhAAEIQAACC04goPhYcJI0HwIQgAAEIAABLwKIDy9MXAQBCEAAAhCAQCgCiI9QJCkHAhCAAAQgAAEvAogPL0xcBAEIQAACEIBAKAKIj1AkKQcCEIAABCAAAS8CiA8vTFwEAQhAAAIQgEAoAoiPUCQpBwIQgAAEIAABLwKIDy9MXAQBCEAAAhCAQCgCiI9QJCkHAhCAAAQgAAEvAogPL0xcBAEIQAACEIBAKAKIj1AkKQcCEIAABCAAAS8CiA8vTFwEAQhAAAIQgEAoAoiPUCQpBwIQgAAEIAABLwKIDy9MXAQBCEAAAhCAQCgCiI9QJCkHAhCAAAQgAAEvAogPL0wdvmhwJgc7e3Jr2MSe9Le3ZPXSuL1Zv3UYCU2DAAQgAIF6CdQqPs4OdmXv1m2jBc7kVm/bKN2HwOBEdncOZWQlV3xk/OZTNtdAAAIQgAAEEgjUJz7ODuTm3uh9evqH+Jg7L0R8zJ1JqBAEIACBrhOoSXyoUP7NKJSP+JhrJ0J8zLV5qBwEIACBLhKoRXycHdxUyy0jXL1+X5YOD5NzCrpItG1tQny0zWLUFwIQgEDrCYQXH9ZktiKbN67JC5MoSKBlF2NJp9fflq1VkbOTYzk6vDXOXVCiZ6UvG9dXZZg7qRInT46P5HCSf9KTlc0NuX4lyqw07Di+9vT8ttw20lV6vZ4srQe6x2S0sik3rl+Wk4P9cf0Uo02V9HllXKfBQM6O9+VI1X1SHVWXleV1WVMXxVugrtcsThWL6Q2Kx7Ksr61KrMmVxcdA4X1Rjo9O5ZYNbFTHq6qORiUHJ7uycziumGr79nW7De7vN9Tv5p8tbLXtE2zY+m5JAyAAAQh0m0Bg8TGQk90dmc4tN9QEby7B1CA+lMhYOleRFTOvNbJZry+b61+TIxWGSf7ZmbwS81RsB+ipCXPLnBDL3GOJj770Vf0jZvppK5uamxZNZsJn3BFHwsucfBXrXbXcldTYURxKlb01Kjv6qyQ+8p6X8EyLlxan12VaHdt/FAnnd3s5b8Kp232U1kEAAhDoHIGg4iP5rbVe8VHNIvbkZtU/tWBbQJW5J09URJOq+ZafVB1bfLgTd1oDnAm9tPjwfd5QThkiIktAuLlCWbtvXGFSzRO4GwIQgAAEmiMQTnykTmJNiI/pMsrg7ET296Kto2OQPTVRbag37Et6SWJf9owwg/X2PHwrP5eVvr1c4JZZ+Z6EiMbK5vZoGUgts4zWKWxuVsRCn7+xfyTnyxvTyIcTgen1N2VjvCzj1t8SLWXFh/s8FRHamCyhKM5qGcncZj19piNahstO49hHQhTJrKsl9FRUa1utt7Ho0txgwZMgAAEIhCIQTHykr8XXLT7iSzl2xCBE6N6eMOPLHUnmyLjHER/J5TmTtF5C2kjI2Rg/2mqzOaGPf0+duEuKD+t5iUIgXv9ILKTVJTGKZLSFfI9Q3Z5yIAABCMyWQBjxYU5gsYmobvERD79nT8RJeSmmEaKEzXOVsJmcPBEXCwXvyZrwjaokTsYqitNfX1MJqeY7vyN0VB7M+rXLtmfdOZpGfEwblRIffmLMrr9hp8RnGmWqNq6o/VGj3JXovhr8aLZ9j6dDAAIQWFgCQcSHX96Dybhi4mlm0qJasDC2+qoMy2lYf1iFDPGRk+AZtSB92SLdj7yXOpwiUtlOlpL0DWnnqqTUp7L48Ev8TBUfjg1GbO5MzobR///613Ym27WHy1yXjeRbllwWdsCi4RCAQDcIID6inSXOhCjj7ayjAMIdeeFouqMmNX/B6x6tf4oeWz6OrBhbiYfuN5mEiyR/6mCCIchKRT5s8ZG2DJWVoxETiNdemJyIOxQbMj0hV5e/IfvWFl13C243uiOtgAAEILAYBIKIDxVqSDhKPQvgHEY+MgVByjJDmXuGwZei4mPKcqBY70yOrY84+i2DJFqklPhIz+cwamptu45FoJzoVb9/LofDROCEZRYlsvpLajvy+OA6ttguxuBEKyEAge4SCCM+MvnkrdWbZ0V4ipI6ll2cJZfJ7hMVEUnduVHmHm/xobmpHS0r67KxZhzUlSIW7CWO0e6fNZUXMskM0YeVvTg6iG1pEu3JEUIZwsRdDjJ31+ilLZdZXDCkLBXlRnPYYtvd4YiWQQACi0Jg9uIjtkXU49TKOsRHgbyJ6TKDf65F8ZwPj7Kt3AeP68debQmBUpEPXZD/86bLQ3a3SjrHJHVrbXQr+R6LMjbRTghAoMMEEB9GFMA3cTZ3gkxwmPDiI++00jSvzTq4q8BvQ/1xILspp8dOnq4TY7fMU0yNhRnzqPUkYZRz7pc2NPcAACAASURBVEeH+yVNgwAEINBpArMXH/oNenIkuO+yi8qZmBwklrDVVk1qk4PEiux20asQ6pCyYyO5NEo8Xbv8wiTXwk2wLHyP+/2bbX0AWoKfRd+ZMb/roo5IT/1Oy7CIpG+7qH8eJsMuy7Wrzlkh+sCynegLxK74yPgtqm60nGN9S0Y/bkWW1Zbgq+bSj9tExeFgJ/rooP4xfibLifKN6Zlwnv7R6S5L4yAAAQi0n0AD4qP9kGgBBCAAAQhAAALhCCA+wrGkJAhAAAIQgAAEPAggPjwgcQkEIAABCEAAAuEIID7CsaQkCEAAAhCAAAQ8CCA+PCBxCQQgAAEIQAAC4QggPsKxpCQIQAACEIAABDwIID48IHEJBCAAAQhAAALhCCA+wrGkJAhAAAIQgAAEPAggPjwgcQkEIAABCEAAAuEIID7CsaQkCEAAAhCAAAQ8CCA+PCBxCQQgAAEIQAAC4QggPsKxpCQIQAACEIAABDwIID48IHEJBCAAAQhAAALhCCA+wrGkJAhAAAIQgAAEPAggPjwgNXeJ+oS9+oT8rdvqieqT9Jsb10V9kZ4/CEAAAhCAQKcIID7myZxnB3Jz79akRr3+tmytjtXH2Yns7h2K1iUiSpjcUMJknupOXSAAAQhAAAKeBAKKD/XWflO9tec82JpQPSu5MJc54mNl84ZcjxSG9RviY2F8goZCAAIQ6CCBxsWHrGzKjcmM2kGilZqUseyC+KhElpshAAEIQGB+CDQuPoh8lDQ+4qMkOG6DAAQgAIF5I1CT+GBZILihER/BkVIgBCAAAQjMhkArxcdATcQ748TMUV7EQM4O9uVIbRMZJWT2ZKW/LmurVyR5s8hABmcvyvHRqdpZMrpjdJu6b1ndd1Xdl7bLZHAmJ8dHcjp51vi+9Q1ZU1tT9G0+9eutrMuGWn6yHqPKPtiJ8maUgNs2drtkiQ/1267iEbW9v70lUZ6qqsyovueKjdXUniypOl9nO81seh5PhQAEILDABNopPk52ZedwvO+j35fzw2gXiGPJxPwSI68i1fBKhGxuTZM9o+usST5+c5QgOrDqtylyOt4+697S68v21upUgAzUjpadqC09sUREmviw7lEPUG3ejkSNk8Ca1Nyeun6LHJwFHgJoOgQgAIHmCdQkPmKzrDq2YlnW11aDnFthTu7ZyJwJXAZysrsjY92SQ9tZOnIn+YS7o3wW//qpYIu5nbaw+HDa44gZv3q4jJp3Qp4IAQhAAAKLRaAh8TGFam0fLck6PqlOJ9DBiVqSOUw7K8M5R0O99U+XPkZLN3vDE75Gf6YwODu4qX4z27E9WbIYqDM4jo8ORdZHW2Nj9TMODNPX7k/O6xg+ZBr9KCg+1N5mo04JeTbDyMf5aAnKWEpy6xDCJiVNyW0QgAAEILCABBoXHzofw1pOKAHdntyzoxupAsJd8hjWIy2S4Px7znZhu35xUWALGeP3IuJDrebsTdRQUaZ2e9iBVMIJuQUCEIAABEoTCCg+RpP3QGUwmEmUAzWhHu8fjo4MT4golKm5NbnHRETaxOo34SYLB/sAtbxIQXb9VIutXAxDOHiLD5tatnhQEZ2TYzk6PVcJp4YRjCIQH2W8kHsgAAEIQKAsgcDiI6UaCUmRVQ4aKyc+/AREovhw6j978dFTG3PM3SspW5s98lS0xRAfZbsP90EAAhCAQBkCzYgPcY5er3jKaQjxkTbhJpY9d+JDb8N9txxNdsYo08eYuktIo23E1y5rN7kjL6gclSgahfgo03W4BwIQgAAEyhJoRnw4k3fVya6c+MjeGTICmJbbYYunvPo3kvOhPix32djSq2tvRWSylnCcdua1p6xzcR8EIAABCEAgiUAw8aGTKI+kr7bTXlXbaadZH7HdHbGEU/PcDb/EyXLiI74LpddXu10mB5HFd7uYk7mdJKrPAZke0DVQB3kd7+/J+fLoK7TZu12mB6QNDWJGLLxzPqJlFnfrcFryqn5MtDsne1cP3QQCEIAABCBQN4Gg4sPcippacXd5IOsz8imFlBUfKtPT68u7w8e6iaw+B3aNz+zwO19j1DjvaEXaIWNuvSZ8/dtK5KPubkb5EIAABCBgEmhUfOjTNGNHijcqPlTTc04pHQkPFUHYUkebO76SJyoSDxlTR7b31MHniRtNXCFWOPIxqqAblYm2MufVN2oe4oNBAQIQgAAEmiQQTHzoSo8O2zqVczXTGkd1jU83tZdjpo0ssexifNslFqFwJuPEiXWglh5e1NtP1fdQrO+drMjy+ppcHX+jJckQURvNb8L0lMDQ30mZfNvFzMUYRlCuyh3zADP9DZmk76pY33Zxj1dXR69PDidzd7c4R8YboiY6AG2y1Tn6fs3lFybfx0F8NNnleBYEIAABCAQVH+AcEcg95wNQEIAABCAAgQUmgPiowfiIjxqgUiQEIAABCHSGAOKjBlMiPmqASpEQgAAEINAZAoiPGkyJ+KgBKkVCAAIQgEBnCCA+6jCluYMn8QN2dTyUMiEAAQhAAALtIID4aIedqCUEIAABCECgMwQQH50xJQ2BAAQgAAEItIMA4qMddqKWEIAABCAAgc4QQHx0xpQ0BAIQgAAEINAOAoiPdtiJWkIAAhCAAAQ6QwDx0RlT0hAIQAACEIBAOwggPtphJ2oJAQhAAAIQ6AwBxEdnTElDIAABCEAAAu0ggPhoh52oJQQgAAEIQKAzBBAfnTElDYEABCAAAQi0gwDiox12opYQgAAEIACBzhBAfHTGlDQEAhCAAAQg0A4CiI922IlaQgACEIAABDpDAPHRGVPSEAhAAAIQgEA7CCA+2mEnagkBCEAAAhDoDAHER2dMSUMgAAEIQAAC7SCA+GiHnaglBCAAAQhAoDMEEB+dMSUNgQAEIAABCLSDAOKjHXailhCAAAQgAIHOEEB8dMaUNAQCEIAABCDQDgKIj3bYiVpCAAIQgAAEOkMA8dEZU9IQCEAAAhCAQDsIID7aYSdqCQEIQAACEOgMgQUXH2dysLsnt24re/ZWZHPjuly51Bnb0hAIdIgAfbVDxqQpEJDFFh9nB3Jz79bEDXr9bdlaHamPgfptJ/qt15ftrVVBlxTtMQM5OdiXw6G6G/31+puK8ZWiBZW+fmHtOFCT9Y4S1iPq0t/ekrFrl2Y50xsz+upM68XD54gA480cGSO3KjWIDzXo3YwGvYznz8OE7gxoK5s35Pp4Xhyc7MrO4XjSbKSuftxMgZRrXfeCwYns7hzKVApoMTAVXIXLy7xBDQS7OxIhnF6qIkw3VIQp7MNSS2vejg01LO8xlq27Jz7MvpqHorHfLcEnklrHM9UP96J+qPrDNhHX6jZivKnOsNkSwouPhAkuuUnNTkLJdUgP5ZaftOxO4D9I+okPNaLJjUghFfQVq03RvXUJK0fYIT4KGqvq5V0TH9KCZRdn7EsXH2bEtY3CsOwYV9WpM+5nvKkRbj1Fz0581DXpBeI0r+KjfKQi7c2gnsHPFjqze7srb8dAjjSrYjonPmYFssBzER8FYIW9lPEmLM8mSqtdfPi/+TfRXP9nlJ+0yr4VmJGPGqJC5sCohF9fDidLIuUFTTrP8vz8beRz5bzUw6euQa9BfATF6VUY4sMLUx0XzUs/n5d61ME4dJnzIz4GAzk73pcjlZw4yUno9WRleV3WVIKiX7KnKuPkWI5Ob8ltM7HBoma86VtrtPbbedyJrsodlTw5rV9PbZBZlw21BBLV7ezgphj5qzFbZQuxesWH2R4tNjZkf5rTIsliJztZU7E+2Jm0dyJgUsOfIxy20CloL12AstnJ8ZGcnis/MWzcU76ytL6hcnZsTyljR9twSXXUtl+W9bXV2O4ok9nI3pqT7TcrfX+f9inP9cNh/TPERym7RlCC9NNhBRP6ajpXbfdpAq3TV43k8HLMC9YlbRQOJT6K+nhmcnxKPx12pWlSfRq3SmNcE+1Y8PFG96NpUn89UezQoiMqbz7ER06eiN+bubEmnENrIgKyBmgr4VQNikoSJQoaY/koT3xkt6NO8WFGY8YOKnbyaZIwylbxdoQnaltiXolhjymDEvbKGWiG4kblxGwZOTF2G/zsOK1uXh2VON7cmiQpj+b8aaLySr8v54d2gu+kbM/cHbu8TZHT8dZw18fdZUxv33Z3ciXbNS5o4p3Mr5/q+4pzzRRTlZiXqEud4qOyj/vbs4xveY9xDbVj0ccbu18ox/QcV+oSFEXKrV18JFfGftP2duiMltmTzIr016/JZbkjLxwdjs7xmPyZkQ9zArZVY55TWyWOd4zktcM/8hGbWVLftL2M7Sy5jLYNOzkgCU5bRnyo13xr+3J8jhztriljLz+bVLfjqM5pOTJui2xf9qvjUCZ5bX/1L8+JKtUgPvL82098lOPqKz6y+4PLvGRdahQffvbO8PFYLl26mPR71qixkW3zfCAa4/zKDtCOBR9vEB9mZ/Ta7WIO2OYbv/MmqUOt+0dyvrwxOX8jud8nvNlPou9G+WXfDoe9b3oI2UBtldufbJUb9kzjHJAQOR/pQ2iZHBp3yWVylokZ3UlYeiklPsZV97/XnRAy7DUcaM5luGxxVS13jW3s2iN1y3QRO8bOldiUjfHyn/s863wYi6ktMgYnKsx9mHyuTPp8Zmz5LlL/4OIjRD9VDSjJtZj4mPpUJvOydfEUH14vBq4IrerjVcRHyDGuwXYMXxUyj0YoOT9UbUOR/lraF7Pa5ueBs7pqDiIfztuH6jybG/G19GxAJZ3Ld4BOmJjtNwBTTNUrPnzfmKe87EnDOmwqZ43av0PHzwvxv7eA+Eh1At+3u3huS5odrX8vEBWy3/iy37R9IgV2ef71956svSerEP1Uaw8jL6oAV+/2xCJK6b5Rui51io+qPu5tT2fCbmSMG8oE6/yfVOFeoB21iY+qtijANLgvzkpRFHhu7eLD5009MUSnVHh/fU1WPc87t4w3vDdh2cUd7HzFR9K2YEupmpNMWfEx6pgDtSBipkwOVB2P9+2lI59Ja+IDZj1zOrS7XugvIIqKD2cS8rXXsFFRcuC5ysFJzir2H9DcN/HIjs4AudKX9WuX7W5150j2Eg6hq8Isqd/mZs+n+WFp3/acHKLKFuqn5bl6iw/vSatCXWoXHyF93NOetYxxzbQjX3x0d7wpMNfP3aVzIT5izmNi8v3mSu5yT8KOjtIDdNqkFVf2PuIr1yvcthVIKspbo7WfnZG/4D2oj0rMnTQr2yudWnXx4Xng22QCni67dVl8VO+n5bmGFx8V6uIpPkodMpbbL0YP9/fxGYmPBtuxyONN7twxxxfMjfgYT1mj7XdqXdzOEc3/tsp00Fc7GnrmzpT4ltiJPdoiPvTuAPPIem/xUXCAVWD8j5jP2BXhIT6K28sN+4+2YY8CEnZisf/AnCYifRMRx55k2KPr4qNaPy3PNbz4qFCX2sRHHT4+C/HRbDt8xEdXx5s51ha5VZsz8TGtr3UWQe7OgIwkxSwEvuKjwNqdu6ZZR+TDe9nFY7tbDE/aRBpjUEV8lLBX5qFZngOstx2z25btUlnfBCpebu05HwXt6ra9WD8t3v7qLwppz6xQl7rERy0+HrpvDKd6K28jNsY13I588dHd8SZ3hp/jC+ZAfGjHUDta9IFda9MdDFlvOjGesRCfjn6oq5aWZGl48bvl3deuxvNHvMWHKsLKBDe+eKuLtyIRjupXv20PDyKL53OY7dDLI0fq3NH1tavq4Kpp1kdsZ02uEJuWmpfEFF2ZmiSZ9iXR4S4k+7wJVxBlRgDK2CuWHLs9PlBsdIjXnvXlXOPrxO7uE087ukxWNjdkTeUfTSyjD9t6cRSlW/L+IGHxCS+WD+VZ/8z+U8quAfqpnrYse+jdbX5cw0c+KtSlEfGhhxU/H4/vIBr7f04/Le1bCdv0rTGuZF8t245c8dHh8cYWgn7b9+dFj9QuPtIbGuUXeCwN5H4HxqMMXRE9cG8ZX1QtIj4yLOYq/7Q8i6yIhXduhveSiyhRd3P8SfWML2yOeq71tdtJPT3XbYdona/jZi8/lLGX5z1OXfzOGxgZ17aj//NCLVUluVjp+me9fZayqweP3H6qW+hRzhiEZQ/fvlooN6lkXeoSHwXYWP2tlD1d8ZU9JRUb4+74fdncHTdKtiNXfPhyteYHf9/I3mqfMQMaLy1h+oX7IjwvMiO5Hi0QH/FTJBOb4rvEYE7engNa1kmV7omaw7ql1KWq+NDPMo9zz3Otm0p8jKfVnM/YOx3N69RWpbL7S3I4PreimPhIZxRrU+oyUHrr0waDwnb0GgwDHJSUYUhbxGWc0FpgJ9fIRdM+BZBm17zB2LOfjmYKS+wmN995i/Psq/aZO8OHpW7tHD63TF1qEx/+gsDtb8Xt6SaFF/AtjzHOVzSHaEe++OjueMMhY1ZnzBukoouNnRXRNwDM77qo5YW072ck9f1p53O/oKq3e6mwfLQt0lzjtr4XkT6JDFX/5dE3RQ4n4f1RyNj9lkhUN70Wvn9kfGNGb0ncuC7qcM/UP73Ecnx0KudqC+k04TbiYC/H5AkP/ftEfHhES85UODyR0XB8Vm0xkoB7euup/q7JnelppjHxkfm9CXPyK2AvXZchI2PrcfT9n8svyM74wzqp4qOEHZO/QaIqMnzusly7ap9Jk/3dFHvS98ndiUeQRt8Ymiwz6XokfNPG/hZKcji2sF0D9NOp36Z81yeFa1Z7qjMvWJdU8aHGvh21HDn+3W+3S/yLz0V9fDLmFOynpX1r/MC8Ma6pdgzFx4KONyy7+MyEdV5jRBoSB/TMBKg6K0bZiQSwl7dj5G5Z9i6JCyFgE1gY32K8mUvXD7/sMoNmxk6p3FZ5HVGEQb+tqeTISeAj5QuuM6j2wj4Se/mbfmEmCH8kXBmIwKL4FuNNIIcJXEwnxIfv+qJm5xPqDsyY4hwC2MvfJRZlgvAnwpWhCCyKbzHehPKYsOV0Qnz4ZgoXTdgMi5rSpgT88oKwl8dJsbgVBEoSWBTxwfxQ0kFqvq0j4kNTSvuOQPmEzZrZL3jx2MvLATK/zeNVAhdBIJnAQvkW4828dYMOiY95Q0t9IAABCEAAAhBIIoD4wC8gAAEIQAACEGiUAOKjUdw8DAIQgAAEIAABxAc+AAEIQAACEIBAowQQH43i5mEQgAAEIAABCCA+8AEIQAACEIAABBolgPhoFDcPgwAEIAABCEAA8YEPQAACEIAABCDQKAHER6O4eRgEIAABCEAAAogPfAACEIAABCAAgUYJID4axc3DIAABCEAAAhBAfOADEIAABCAAAQg0SgDx0ShuHgYBCEAAAhCAAOIDH4AABCAAAQhAoFECiI9GcfMwCEAAAhCAAAQQH/gABCAAAQhAAAKNEkB8NIqbh0EAAhCAAAQggPjAByAAAQhAAAIQaJQA4qNR3DwMAhCAAAQgAAHEBz4AAQhAAAIQgECjBC78/b+3+iDEEx88eCC3/3ogd++9MynuG55+JkTRlAEBCEAAAjMi8I/+4Q/M6Mk8tssEgokPDenlV1+XwcuvIT667DG0DQIQWCgCiI+FMndjjQ0qPnT0485Lr8mrr70xbACRj8bsyIMgAAEI1EIA8VEL1oUvNKj4WHiaAIAABCDQMQLf/bF+x1pEc+aBAOJjHqxAHSAAAQjMKQHEx5wapuXVQny03IBUHwIQgECdBBAfddJd3LIRH4tre1oOAQhAIJcA4iMXEReUIID4KAGNWyAAAQgsCgHEx6JYutl2Ij6a5c3TIAABCLSKAOKjVeZqTWVrFR+PPvHN8vgzH5fHnvywXHxkSS5ceGjmYB48eEfu3z2Xt17/rLz5yqfl7Tf+slCdaFMhXKUvxk5xdPheaXcqdGNV37t37768efe+3FX/3bsf5AzHSf0fvnhBHnnkojyu/nv44YuF2lX2YsRHWXLcl0WgNvHx9PM/I48/tSpvvPpH8tbX/1zu3/uy6E496z8tgC4+/Lw89q5vkyee/pi8+dqJvPrlX/KqFm3ywhTkIuxkY8T3griVVyFVfO+1N+7JG281M8498dhD8tQTD3u1qcpFiI8q9Lg3jUAt4uPS+39B3nnnb+Trd35rLgRHauOVEHnX5R+Rhx76Bhl88ZOZXkKbZteJ9GSAnehPs/DAIr73ymt35W0V9Wjy71EV/XjmqUdqfSTio1a8C1t4cPGh39AuXHxKXvvab7YG6lPv/lF5cF+dzJoSAaFN82FK7DQfdsirxSLaqcmIh8u/7ggI4iPP4/m9DIGg4kOvST/7vp8bRhHmYYnFF4h+u9GRjZe/9POxHBDa5Eux/uuwU/2MQzxh0eykczxeUlGPWf49p6IfdeWAID5madnuPjuo+NARggf3X5fXX/5UjNiDhx+Xu8vfI/ff+42VaF78yl/JI6d/KBfuvVmpHPfmJ5/9hIrYPBmLftCmcpixkz83fG/Eqq1jxCyjHpGX1Rn9QHz492Wu9CcQVHy854O/Ia+c/4q8c/dLsRq8/e3XKwuPqFA9sT36Zwf+rfS48qFH3ifPLP2UfPXzP2ZdTZs84KVcgp382OF7I05tHSNeevXt0rtaLj13adj2Zy9fks9/7nN+DpNwld4F89zTj5a+P+tGxEctWBe+0KDiY+nap+TO//vJxCWXN7/3Z4LCfvwP/Hao+D5Uh4ov/+1flfMXPmHdQpt8CSZfh53y+eF7I0ZtHSO++vJb+UZ2rvje/vfJynd+RCLxEf08eGkgt/7kf8sfHP5+4TLf8+xjhe/xuQHx4UOJa4oSCCo+nv+mT6vIwY8n1iFvYPlbzzw+ue+vX8lfUgk9qemHv+eDvyZf/r8ft+pftU3PPzMaED77hVdybUObchENLwhtJ12m9r8Pf+CZoZ3y/K8tdnJpZrWrDW3y847pVU21qYj40GLjH//QpnzwQx/KbI4WIf/9v/2y6P/t+4f48CXFdfNAYC7Ex84Pf+tw4I/+fu0zX5Bf++MvZPLxG1g+LD/6iz8rH323yBc+80Py7349G3nISe3Hv+sD8uMf/YAlqD71F1/JbNe8t+lff/8V+f5vXbLa9Ot//EX5vb84TwU7722KKv6Zn/3o8P/UE/R/+L2zTLE4721y7RS1UdtJty3pbx7bpMcEPTZom/zgr/5pYr3171rgJ9msqTb5ig8tPD75b37Oe9wvKkAQH95ouXAOCMyF+PgfP/kdwzfP6E+/fW7/9l9UEh9PftN1+cF/+k/ko0ujPfBNio9o0ExqgB4k0ybrvMFylm1yBWLUtqyJQV8zz22K2uBO1nnid97b5PanEOJjFr5nCng9HrjRQ7OfJdmsKTv5io+f/Kmfzo14uGOGFiC/8O9/3muqQHx4YeKiOSEwF+JDs9ADiZ4EtAipLj7+hfzb3X8gH3jnZfnCVx+RDzz/rkbFRzT463ZosRG1Tbczq23Zg+Vs2xRFBrRw0tGOT3zLeyeRnaSJIfLveW6TrqP2N20v/aeFlP7/syIE+YJqtnbS9YtspSfkz35xutyXtfQ3j3aqV3yEs5OP+PiO7/y7arnlh0sN+7/7O78tf/on/yv3XsRHLiIumCMCcyM+NBNz0q4W+diQn/jk35HP/c/fkq+v/0f5iW9qVnxEg78Z5YjaVj70Pds26YlA/0XLYXr5RYtF/adD4mn5BNmT2mzbpOseRXS0XbRIrC4+ZtsmMxoQLVXk5bDkC6rZtKle8RGuTT7iQy+3uMmlvvOAb/QD8eFLlOvmgUBHxccU7Uf+1W7j4iNros4K6eeFiaNWzaJNprPq9n3iW9/rFaWa5za5E/V//eFvCSA+Zut7piiMaqLFR5h8I5Emfc8UH0lLlVGS8FAUJ+SJNeV7PuLjP/3n/zJxjD/49O/LN37wQ6lLMFpsfP5zZ6KjJdGfXnrJSz5FfMzDlEodfAkgPgxSIRNOTQOY+RLlowSzndSip7uTW1Z78t+oZ9smM+qho1Q+0al5b1NWvlH55bHZ2MlN2s4a1OZZfOidLTrfQ/9FUYys5NNIaJjRkl/9lV/OPQcE8eE77XHdPBBAfNQsPkzhkZVsOu+TWoRJv23q5ZZod5J+q87a8dLU22fRLdFJy0ZdEB9RNEDb5cuvvBUo3wjxERFIekHJi3y44kOf4/Hcc89ZkQ1zMtCREf33vR//PiIf8zBLUodaCCA+ahQf5ptb9STa2UwAaV5nJmqWT6KdXZsioWHmQ0Q7rvKWKeZVUKXZKhLAWTuT5rFNZv9J2kqrt9jqtum/eY58JEU5kpZWdDt0YukHP3Qllh/Cskst8x+FzpAA4qMm8WGGv32ExzxHPiKh4U5e5hbVj/7iZxLdeB4nNVM4ZfW9NrXJjEy5CaZRAnTbRGK9CafhhG9e5EM/yd1mq0WG3sWiTzrV+R/6ePU/PDwcig+9K8bM9yDhdIYzJI+ujQDiowbx4a67mwckhThlssmkP43HPU9Bb9/88PufsQ5Ra9tEbSYrRi7wz77r/ZMkWv2mXW4HT7hJrehSknkol04w/dT/+YroNkUHw5XfaTWbNnVJfLhbbdOOUU/akstW29rmPwqeIQHERw3iI+2QJ/2otoW+dZ3dPA/XX9uWyJjW39qe85EX0WlbsrMpPpLqXvWQscgPqop5n8iHXnr55//ypxO/5aJ3trz00kup33rhkLEZzpA8ujYCcyU+ojB+3gmTRZYoipALsdtFTwDRls2kZ4cQH023KRIg5sFikZAKc7x6kRbV820XXYMoNyJUYnCRVoXwPf08cxt09PxwR8YXaVF1O+Udr677mo7s6OvKH69evU0+4kM/pejx6voen10uUQvY7VLMllw9WwJzJT6iSa76oUjloIaaAKJ2pImPtNr55kcUaV3INkXt6trH8iKeZsJpFuM22cnng4bzLuZ9xoMkezVlJ1/xEQmQpAiIW3+9LPO7v7OXu73WvA/xUWRk5NpZEwgqPvj8fDVzhh4s+VT7yB55X1QuajXslE9skXyviPiITyGmrwAAA3VJREFUBMjKRz6SeNBYWi5IPnEVaXp29AXt0H/f/bF+6CIpDwISVHy854O/Ia+c/4q8c/dLMbRvf/t1uf/ebwyC/OJX/koe/bODIGVFhTz0yPvkmaWfkq9+/sescmlTeczYyY8dvjfi1NYx4qVX35Z79x/4Gdu5KjpyXe92+fznPleqDH3TwxcvyHNPP1r6/qwbER+1YF34QoOKj6ef/xl5cP91ef3lT8XAPnj4cbm7/D2VBYie0B45/UO5cO/NoMZ78tlPyIWLT8qrX/4lq1zaVA4zdvLnhu+NWLV1jHjtjXvyxlvv+Bu8hiufeOwheeqJh2soWQTxUQvWhS80qPh49Ilvlmff93My+OIn5cGD2XbGIpbVIeJL7/8FeflLPy9vv/GX1q20qQjJeq/FTvXyDVX6otnp3r378tJrd0PhK1XOc089Ig8/fLHUvXk3IT7yCPF7GQJBxYeugI4UXLj4lLz2td8sU5+Z3PPUu39URWxei0U9osrQppmYJfZQ7DQfdsirxSLaaZbRjzqjHtrWiI88j+f3MgSCiw9dCR1FeOedv5Gv3/mtuY6A6De0d13+EXnooW8YRmuy/mhTGfcKcw92oj+F8aTipRTxvVdU9ONtFQVp8u9RFe14RkU96vxDfNRJd3HLrkV8RBGQx59alTde/SN56+t/LvfvfXkuhIgeTC4+/Lw89q5vkyee/pi8+dpJasTDdQsdAaFNzXQW7GRzxvea8Tv9lCq+12QEpO6IR0Qc8dGc7y3Sk2oTHxqizpd4/JmPy2NPflguPrI07NSz/tO5KPfvnstbr39W3nzl07Ecj7z60aY8QmF+x05xjvheGN/KK6Wq7+kckDfv3pe76r+yu2DS6qh3tTzyyEV5XP1XV46H+2zER57H8HsZArWKjzIV4h4IQAACEJgfAoiP+bFFl2qC+OiSNWkLBCAAgcAEEB+BgVLckADiA0eAAAQgAIFUAogPnKMOAoiPOqhSJgQgAIGOEEB8dMSQc9YMxMecGYTqQAACEJgnAoiPebJGd+qC+OiOLWkJBCAAgeAEEB/BkVKgInDhwyur5b6IBD4IQAACEOg8gR+4zldtO2/kGTQQ8TED6DwSAhCAQFsIID7aYql21RPx0S57UVsIQAACjRJAfDSKe2EehvhYGFPTUAhAAALFCSA+ijPjjnwC/x93FIH+CPgDAAAAAABJRU5ErkJggg==;" vertex="1" parent="1">
          <mxGeometry x="10" y="360" width="258.57" height="160" as="geometry" />
        </mxCell>
        <mxCell id="nmFTTgFp_2PvwewySN3C-21" style="edgeStyle=orthogonalEdgeStyle;rounded=0;orthogonalLoop=1;jettySize=auto;html=1;exitX=1;exitY=0.5;exitDx=0;exitDy=0;" edge="1" parent="1" source="nmFTTgFp_2PvwewySN3C-10" target="nmFTTgFp_2PvwewySN3C-20">
          <mxGeometry relative="1" as="geometry" />
        </mxCell>
        <mxCell id="nmFTTgFp_2PvwewySN3C-22" value="Spiel wird erstellt mit allen Infos" style="edgeLabel;html=1;align=center;verticalAlign=middle;resizable=0;points=[];" vertex="1" connectable="0" parent="nmFTTgFp_2PvwewySN3C-21">
          <mxGeometry x="-0.2114" y="3" relative="1" as="geometry">
            <mxPoint as="offset" />
          </mxGeometry>
        </mxCell>
        <mxCell id="nmFTTgFp_2PvwewySN3C-37" style="edgeStyle=orthogonalEdgeStyle;rounded=0;orthogonalLoop=1;jettySize=auto;html=1;exitX=0.5;exitY=1;exitDx=0;exitDy=0;" edge="1" parent="1" source="nmFTTgFp_2PvwewySN3C-10" target="nmFTTgFp_2PvwewySN3C-11">
          <mxGeometry relative="1" as="geometry" />
        </mxCell>
        <mxCell id="nmFTTgFp_2PvwewySN3C-10" value="Spielepost mit Übersicht (Bot)" style="rounded=1;whiteSpace=wrap;html=1;" vertex="1" parent="1">
          <mxGeometry x="280.01" y="410" width="120" height="60" as="geometry" />
        </mxCell>
        <mxCell id="nmFTTgFp_2PvwewySN3C-38" style="edgeStyle=orthogonalEdgeStyle;rounded=0;orthogonalLoop=1;jettySize=auto;html=1;exitX=0.5;exitY=1;exitDx=0;exitDy=0;entryX=0.5;entryY=0;entryDx=0;entryDy=0;" edge="1" parent="1" source="nmFTTgFp_2PvwewySN3C-11" target="nmFTTgFp_2PvwewySN3C-15">
          <mxGeometry relative="1" as="geometry" />
        </mxCell>
        <mxCell id="nmFTTgFp_2PvwewySN3C-11" value="Aufgaben-Nachricht an einzelne Spieler als Direktnachricht (Bot)" style="rounded=1;whiteSpace=wrap;html=1;" vertex="1" parent="1">
          <mxGeometry x="280.01" y="510" width="120" height="60" as="geometry" />
        </mxCell>
        <mxCell id="nmFTTgFp_2PvwewySN3C-14" style="edgeStyle=orthogonalEdgeStyle;rounded=0;orthogonalLoop=1;jettySize=auto;html=1;entryX=1;entryY=0.5;entryDx=0;entryDy=0;" edge="1" parent="1" source="nmFTTgFp_2PvwewySN3C-12" target="nmFTTgFp_2PvwewySN3C-11">
          <mxGeometry relative="1" as="geometry" />
        </mxCell>
        <mxCell id="nmFTTgFp_2PvwewySN3C-12" value="Limits: &lt;br&gt;&lt;div&gt;5 N alle 5 Sekunden an Nutzer, &lt;br&gt;&lt;/div&gt;&lt;div&gt;30 N in 10 Sekunden an Nutzer + Channel, &lt;br&gt;&lt;/div&gt;&lt;div&gt;Max 2000 Zeichen&lt;/div&gt;" style="text;html=1;whiteSpace=wrap;overflow=hidden;rounded=0;" vertex="1" parent="1">
          <mxGeometry x="440" y="470" width="180" height="90" as="geometry" />
        </mxCell>
        <mxCell id="nmFTTgFp_2PvwewySN3C-25" style="edgeStyle=orthogonalEdgeStyle;rounded=0;orthogonalLoop=1;jettySize=auto;html=1;exitX=0.75;exitY=1;exitDx=0;exitDy=0;entryX=0.5;entryY=0;entryDx=0;entryDy=0;" edge="1" parent="1" source="nmFTTgFp_2PvwewySN3C-15" target="nmFTTgFp_2PvwewySN3C-19">
          <mxGeometry relative="1" as="geometry" />
        </mxCell>
        <mxCell id="nmFTTgFp_2PvwewySN3C-26" style="edgeStyle=orthogonalEdgeStyle;rounded=0;orthogonalLoop=1;jettySize=auto;html=1;exitX=0.25;exitY=1;exitDx=0;exitDy=0;entryX=0.5;entryY=0;entryDx=0;entryDy=0;" edge="1" parent="1" source="nmFTTgFp_2PvwewySN3C-15" target="nmFTTgFp_2PvwewySN3C-18">
          <mxGeometry relative="1" as="geometry" />
        </mxCell>
        <mxCell id="nmFTTgFp_2PvwewySN3C-15" value="Spiel starten über Emoji (&amp;gt;=Mod)" style="rounded=1;whiteSpace=wrap;html=1;" vertex="1" parent="1">
          <mxGeometry x="280.01" y="610" width="120" height="60" as="geometry" />
        </mxCell>
        <mxCell id="nmFTTgFp_2PvwewySN3C-17" style="edgeStyle=orthogonalEdgeStyle;rounded=0;orthogonalLoop=1;jettySize=auto;html=1;entryX=1;entryY=0.5;entryDx=0;entryDy=0;" edge="1" parent="1" source="nmFTTgFp_2PvwewySN3C-16" target="nmFTTgFp_2PvwewySN3C-15">
          <mxGeometry relative="1" as="geometry" />
        </mxCell>
        <mxCell id="nmFTTgFp_2PvwewySN3C-16" value="&lt;p&gt;Emoji: :video_game:&lt;br&gt;Kann von jedem Mod gestartet werden.&lt;/p&gt;" style="text;html=1;whiteSpace=wrap;overflow=hidden;rounded=0;" vertex="1" parent="1">
          <mxGeometry x="430" y="600" width="180" height="80" as="geometry" />
        </mxCell>
        <mxCell id="nmFTTgFp_2PvwewySN3C-42" style="edgeStyle=orthogonalEdgeStyle;rounded=0;orthogonalLoop=1;jettySize=auto;html=1;" edge="1" parent="1" source="nmFTTgFp_2PvwewySN3C-18">
          <mxGeometry relative="1" as="geometry">
            <mxPoint x="340" y="590" as="targetPoint" />
            <Array as="points">
              <mxPoint x="60" y="790" />
              <mxPoint x="60" y="590" />
            </Array>
          </mxGeometry>
        </mxCell>
        <mxCell id="nmFTTgFp_2PvwewySN3C-44" value="&lt;div&gt;Pausen Emoji&amp;nbsp;&lt;/div&gt;&lt;div&gt;entfernen&lt;/div&gt;" style="edgeLabel;html=1;align=center;verticalAlign=middle;resizable=0;points=[];" vertex="1" connectable="0" parent="nmFTTgFp_2PvwewySN3C-42">
          <mxGeometry x="-0.3763" y="2" relative="1" as="geometry">
            <mxPoint as="offset" />
          </mxGeometry>
        </mxCell>
        <mxCell id="nmFTTgFp_2PvwewySN3C-18" value="Spiel pausieren" style="rounded=1;whiteSpace=wrap;html=1;" vertex="1" parent="1">
          <mxGeometry x="90" y="760" width="120" height="60" as="geometry" />
        </mxCell>
        <mxCell id="nmFTTgFp_2PvwewySN3C-32" style="edgeStyle=orthogonalEdgeStyle;rounded=0;orthogonalLoop=1;jettySize=auto;html=1;exitX=1;exitY=0.5;exitDx=0;exitDy=0;entryX=0;entryY=0.5;entryDx=0;entryDy=0;" edge="1" parent="1" source="nmFTTgFp_2PvwewySN3C-19" target="nmFTTgFp_2PvwewySN3C-31">
          <mxGeometry relative="1" as="geometry" />
        </mxCell>
        <mxCell id="nmFTTgFp_2PvwewySN3C-19" value="Spiel beenden" style="rounded=1;whiteSpace=wrap;html=1;" vertex="1" parent="1">
          <mxGeometry x="470" y="740" width="120" height="60" as="geometry" />
        </mxCell>
        <mxCell id="nmFTTgFp_2PvwewySN3C-20" value="Spiele" style="shape=cylinder3;whiteSpace=wrap;html=1;boundedLbl=1;backgroundOutline=1;size=15;" vertex="1" parent="1">
          <mxGeometry x="670" y="500" width="100" height="110" as="geometry" />
        </mxCell>
        <mxCell id="nmFTTgFp_2PvwewySN3C-39" style="edgeStyle=orthogonalEdgeStyle;rounded=0;orthogonalLoop=1;jettySize=auto;html=1;exitX=1;exitY=0.5;exitDx=0;exitDy=0;" edge="1" parent="1" source="nmFTTgFp_2PvwewySN3C-28" target="nmFTTgFp_2PvwewySN3C-19">
          <mxGeometry relative="1" as="geometry" />
        </mxCell>
        <mxCell id="nmFTTgFp_2PvwewySN3C-40" style="edgeStyle=orthogonalEdgeStyle;rounded=0;orthogonalLoop=1;jettySize=auto;html=1;entryX=1;entryY=0.5;entryDx=0;entryDy=0;" edge="1" parent="1" source="nmFTTgFp_2PvwewySN3C-28" target="nmFTTgFp_2PvwewySN3C-18">
          <mxGeometry relative="1" as="geometry" />
        </mxCell>
        <mxCell id="nmFTTgFp_2PvwewySN3C-28" value="&lt;div align=&quot;left&quot;&gt;Pause: Nachrichten-ID abspeichern, Spiel wird in Pauser versetzt, in der DB und beim Start wieder zu benutzen&lt;/div&gt;&lt;div align=&quot;left&quot;&gt;-&amp;gt; Emoji: :pause_Button:&lt;/div&gt;&lt;div align=&quot;left&quot;&gt;&lt;br&gt;&lt;/div&gt;&lt;div align=&quot;left&quot;&gt;Ende: Spiel wird beendet, Ergebnisse geschrieben (haken in der DC Nachricht). &lt;br&gt;&lt;/div&gt;&lt;div&gt;-&amp;gt; Emoji: :checkered_flag:&lt;/div&gt;" style="text;html=1;whiteSpace=wrap;overflow=hidden;rounded=0;align=left;" vertex="1" parent="1">
          <mxGeometry x="250" y="725" width="180" height="195" as="geometry" />
        </mxCell>
        <mxCell id="nmFTTgFp_2PvwewySN3C-31" value="Idee für später: Spieler schicken &quot;Beweis&quot; Screenshots in den DC Channel. Die wertet die AI später aus ob die Aufgabe erfolgreich war" style="whiteSpace=wrap;html=1;aspect=fixed;" vertex="1" parent="1">
          <mxGeometry x="650" y="710" width="120" height="120" as="geometry" />
        </mxCell>
        <mxCell id="nmFTTgFp_2PvwewySN3C-46" style="edgeStyle=orthogonalEdgeStyle;rounded=0;orthogonalLoop=1;jettySize=auto;html=1;entryX=0.184;entryY=0.552;entryDx=0;entryDy=0;entryPerimeter=0;" edge="1" parent="1" source="nmFTTgFp_2PvwewySN3C-2" target="nmFTTgFp_2PvwewySN3C-45">
          <mxGeometry relative="1" as="geometry">
            <mxPoint x="573.1983999999998" y="161" as="targetPoint" />
          </mxGeometry>
        </mxCell>
        <mxCell id="nmFTTgFp_2PvwewySN3C-51" value="" style="group" vertex="1" connectable="0" parent="1">
          <mxGeometry x="549.99" y="10" width="269.99" height="220" as="geometry" />
        </mxCell>
        <mxCell id="nmFTTgFp_2PvwewySN3C-45" value="&lt;div&gt;DC-SelectMenu,&amp;nbsp;&lt;/div&gt;&lt;div&gt;User auswählen&lt;/div&gt;&lt;div&gt;&lt;br&gt;&lt;/div&gt;&lt;div&gt;&lt;br&gt;&lt;/div&gt;&lt;div&gt;&lt;br&gt;&lt;/div&gt;&lt;div&gt;&lt;br&gt;&lt;/div&gt;&lt;div&gt;&lt;br&gt;&lt;/div&gt;&lt;div&gt;&lt;br&gt;&lt;/div&gt;&lt;div&gt;&lt;br&gt;&lt;/div&gt;" style="ellipse;shape=cloud;whiteSpace=wrap;html=1;" vertex="1" parent="nmFTTgFp_2PvwewySN3C-51">
          <mxGeometry width="269.99" height="220" as="geometry" />
        </mxCell>
        <mxCell id="nmFTTgFp_2PvwewySN3C-50" value="" style="shape=image;verticalLabelPosition=bottom;labelBackgroundColor=default;verticalAlign=top;aspect=fixed;imageAspect=0;image=data:image/png,iVBORw0KGgoAAAANSUhEUgAAAl4AAAF+CAYAAABTZRQtAAAgAElEQVR4XuxdB4AUxRKty+ScQckZJIlEFVEw+wUTAooKCCpRQASVLCg5I4gKmDDngAQRlagIApKjknOGi79ezfbO7N7u3e4BF7ga/33udmd6ul/XdL95VV0dUqtO/QTKIEdERAQNGfwK1apZkw4fOUIb1m+gmW/PpiP8e3BHCJ+eHpudXuvliW54WBglJCRQXHx8cLDr2YqAIqAIKAKKQCZHICQjES/0VXh4OGXNmoUuXoym6OjoS+g+kBzzcwnFXJZLQQLNz2UpMFUKCQkJEQKmhyKgCCgCioAioAgEhkCGI17OZmHix6GTf2CdrWcpAoqAIqAIKAKKQNoikKGJV9pCp3dXBBQBRUARUAQUAUUgOASUeAWHl56tCCgCioAioAgoAopAihFQ4pVi6PRCRUARUAQUAUVAEVAEgkMgYOJ1OeOpQkNDpZbxV/GquMzQxuBM7fKeDXvEz9VsQ5cXMS1NEVAEFAFFID0gkCzx8jXBgVTohJceuk/roAgoAoqAIqAIKAIZCYFkiZdpTM4cOSgyMpJOnjpFsbGxKW5jtmzZqF69unThwkVatmx5istJ7xfWub42FcifnxYsWERxcXHpvboZrn5VqlSmsmVK05Jff6OTJ09luPprhRUBRUARUAQyJwJJEi+oXTfd1Jia3XYrFStWlMI4ceap06fonw2b6LPPvqRDhw8FjJrJ+VS6VCmaPn0Krfn7b+rb9yVKuMLuRtQZ6SZSU6FDrrEZ3MasWbPS4+3aU0xMTMA4XY4ToUiGcR1i+b5XW6oNY0djRr9OdeteT23btqM9//5HqsJeDsvRMhQBRUARUASuNAI+iRcmNxCWx9q2pjZtHqXTZ07Thg0bKYaTlpYpW5rKli1Lo0aNpq++/k7ibIKZ3EuVLEljx46k1WvW0LBhryEJ12Vvo6nTTTc2ppYt/0fvzJpDa9euS7XJOSIinKZMnkDx3LauXXsw8Uq5QhgsOAUK5KeOHZ9iFeg0vfnmzFS9d7B1Tcn5hmCBeJUtW4aee6477d23L2g7TMm99RpFQBFQBBQBReBSEUhEvMzEVqFCBRo9agQdPHiQxk+YRBs3bhaCVbBAAXYV3kA7d+2i9bxlj/dhYsLwOc43pMyQIRCvceNG0Zq1a2nI0BGJFC9/1/tqqL9zQRqhcD3R7jGemJ+hbt2fF7dmcsHY3iTS34IC5319KWlQvKZOmSD3e5aJgS/FywTfOzFKCktvPL3PNf1Wrnw5Gj8W+P5NAwcNpXh2c/oixsHgHAz2znOdeCaHGa7zdb43Puac0aNeowoVytMzz3alvXv3CalODksnDpdzscilPoR6vSKgCCgCikDmQcAv8WrW7FYa/uoQeuONN+mtt2dRGE9sSe3NF6jyBVcjiNdfIF5DhruJV6DXe0/QvrrKkJBHWz1MzzzTiXr17kurVv0RcK/6q0tICCb3xPsTep8PxWvqlIlgEvTss908iJf/soNTDv0Rr2uuKcGE+TX655+NNHjIqz6JcTAKZcCgBXmiPxz8uQzN+U7FC8Src+fnWPHaH+Td9XRFQBFQBBQBRSBtEPBLvG7juK5hwwbT3Llzafz4yVK7QFSa0qVKUpVqVSgmOobWr9tA+/Zbk6IzxssX8TLNL8XXV61SRbZR3LhpM+3YvsMvMsWKFaMqVSpRVFQU7efJd/OWLXT27Dn5O0/ePPTQgy2pxf3304SJk0Vhu3D+Ah065D8urVTJa+kC7/94YP8Bued11avRufPnaNu2HW43JdSsmjWvo8KFCtHxEydo69ZtdPiw5ybdSREvlAt3YI0a11G2rNloy9YttHnzVp9tLFKkMFXnOmBz8OPHjtH2HTt5Q/CjfuPVEMxftWoVVvk60zbG7W0mzNjPcj+74mJi7QB/9EWlShUlOP3U6dO0edMWOpgELs7K4dq8+fJRqVLXUtEiRSy8GPstW7Z6EEwsoihWvBj99++/spCiDN+rAqtx57kP1q5bRyeOn/Boc9GiRSh79uyM9XZubzjVqFlDFifsZ/uB2mr25XTGeAnxeqaLKF44t2y5srR9+3bByHlkyRJFpcuUodO8MOS///YS/i5VshRduHiBdu/eE5SrPG0eU72rIqAIKAKKwNWCgF/iVZonyhGseCFA/L3359K8eT/RKZ64DAHzdrHlyZ2b3Wqd6OabbqLjx49RSGgYE4us9OHcT/jnI4nlgtKCCW/8eEvxGjyYFRlXjBc2vn7qqSfp3nvukpgyztIk9/7m2+/onXfmuCdelJEnTx5q93gbuvXWpjJZY9Ug3It79+6lkaPG0j4mAjNmTKWsWbLQmTNneKLNQoWZJHz11Vf02mujfU60uH7mzDfor7/W0Jsz3qJOnTtSyxb30/wFC+jVV18XslO7Vi3q0OFJqly5kpCu7EwugAliyL7//kc3uQQ5mzbVU/EycXMPPfQAtXrkIanz+fPnKX/+ArR8+Qohh8ePH5cy8PPAAy2oTetWggHabNynkyZNpW+/+z6RWw7nvNS/HzVr1lTcwzg/N/cJ2t+9R2/as2eP9F05js/rzG277rrqginOwzk//PAjvf/BR7z5+EW/tp09R3bq3r0LNahXj0CscH04k8I4XuW6YsVKxnYUk5mLUt+GDRtSr+e70aTJU6kkE9rHH2vLG5xH8DUXmfz8R2+/M5t+/fV397169+7O+Nam4cNHUoeOT1Cd2nVk9SzuAbfp6DHj6PChw+52I8YLxAuK4r9cXitWNzt3fpqmTJlKn3zyudgP/oe63Hfv3dSjR3d686236ENuYzmODZs+Yxqt/Xst9endT1edXi2jmbZDEVAEFIEMgIDf4HrU/aEHH6DHmeBAcVm3bj0t/HkxLVmyhM6eOefRtHCevJ/v1YPuuvMOmvnWO7SCiURIWCg92LIF3XXXnRyIP5YD8b+Ra6CIjRs3WojXUHY1gtBg8n/66fb0aKtH6JNPP6f5P82XCbb57c3oAS5j1uw5rN7Mls9wbp/ePeiee+6R875nQhjDk/M1JUowWbmf5rz7Af3yy2+84q0Or8ZsSvUb1KcvvviSdu3cTSd5ReYfq/70qRgJWZo2SVSxY8eOCnH4/fdltGD+Avqd48OgpgwfNgTeQ5oz5z1WlHZS4cKFuI33U2VWmUaMGMmpIxZKGz2JV1d3gPs9d99FL7zQi+Zxvb/48is6f+48Xc9pJ5579hlasHABk45RUjeQotdGDKO/Vq+hL776WpSkvHlyMx7NaSHfY+GixT4XCoAQ1r2+DmNzFyuNB4RMAbPly1fSCSaKuXLlpDFjRlLJa6+VNoDQgJS25DY0ZJxmMYGcNftdv2abjUnugJf7iYq5+s/VTNjOUm4mwffccycTpdo0ZuwE+o5JIY5GjRoy2enKatcFIT/fffsD7dq9iypXqkQtWvxPMOnT5wWOFbQI4fM9u1GTJjcLidvFJPGTj5k8hfKq2hsb0e133E6/LF5Mw5k0R7uInSFeiPGCinXNtdfQBLYrkLBevfp6pDwZOXI4ValcmV8MujEB/VeI16zZb9Pq1aupZ88+SrwywEClVVQEFAFF4GpBINk8Xg0bNmB33X1Uq1ZNmcw2sfsPROaXJb/xxMgxT0wUEGw/YvhQVho+o2lvzHBjkyUqC02ePF5Uixf7vcTq0GkqXbo0jeNVjSBewzi4HsoPPoNCtGLVKho4YIgHtuPGj6aC7Ebq0q2nuKcaNqzHLtChtOz3pTRs+OuiGpkjd65cnEYhjInTcfmo1cMPUpeuz0lw/erVfyXZZ3BvjR83hq7lCRzusLHjxtPyFatEkQN56dm9K93FhOZ1VnXmuwgWCsTKOsTCnT59hl7o20/ujXxnU7jdYGlYdYf25+S6jWYCEBYaTs926eZW8FBGr+e70y233EJ9X+zPq0f/oTvuaE6DBr5CgwYNox/nzfOod3IxYkU57cfE8WOYKG/gxQueMV6tHuWYt05Pc9zedFEizZEnT15ZSFGwYAF6rkt3ITL+DuDkvUqzEpOpN2dMkf6fyIocjoaNGlDv53tI3rdhw0awC9B2GbdmJa9D+yfp3fc+YDVztpwPJe1uJulQ/0DgTp48KZ9DWXvllf5Uq2ZN6v/SK+5+NMSr8zMIrt8rfdT3heeFMD/f6wVxWeIoV64cjRn9Gv3xx580jJVLxOjlyJmTiWY9IaOrmIinh5i3q2VA0XYoAoqAIqAIJI1AssQLl4NI1K9fT1w2iCGC6jR16hv05VeWitWmTSvq9HRHmUTXb9hAUXw+QtAvMoFp+1gbiSV6/nmeDDn+pgzH2owd87qH4nV782aiBMGtuHTpMlHY4IGEugES0oDJ35Ahw9idtYrat3+Ccze1YfffCElOCnXJuD3NvyZ3F1x1HTu2p75M+law6oPJ2V8yU5QzaeI4Klq0KA1lwvInEzWz8i1vXiYmo0eIstaz14usitlkD/fs368P3XHnndSFFZW/WRlEjNnkSeOEeHXp0kPcd9WqVWViN1pccp+z2pUlMkoUHcQ/QfV6tFUrIXtfMaYNWH16lePrNm7cSN988wOt/usvjls6kmQuMhN/h1gqEEHExw0dOtzdXrTltRFDqWLFitSVSey/nPvKuC/Rhse4n9o93pbbOZbJnqU4ehMS52cgRBUrViAE85fn2K3mzW5jVet7msiuRRz169dnYj2IydX7NJtVNNRP8Od7FefYr+nTJtM6XhXbr9/Lcn5PVseacRkv9nuF/uYcb6gbroHa99CDLTjn2ws0dNhwwQeHIV6dOndh1/I++QxxiYMHD6A3ps2Q++J4pNVD1IUVxQEDB9PPP/+iaSd0RFQEFAFFQBFIUwSSJV7OVWYgRHATteXcXkeOHKNXBgyUwObnWbFBklWQA2TlCmVCgQAbWd7PE23OnLlYtRjIpOwfzgPGxIvjc2RVI8d44Zz2T7Xjcu+nYxzjhOusrRz5+njEhcVTFo7/mjb1TfqZ3U0v9u3DxKQevdj/FdrIK/d8HabObdu0FhcmlKRly1YkmcfLBMRj5WKHjp3dCwlASoqzijSZ83JBRenzQj93OeY+huCBsMEN6KF4MfECgbyN3Z69e/XkQPzD0ja+jRwgmHEc+F6A1aa5HAv33nsfCplEDjW4ABHDdowD63ft2k2L2NW7ePESOnfO09UraLmIEvB9nd2U/2zcxGT1VTfxyskqz4jXh1FEWDj17z+Ajh61AtBNGxo2ZLL36lCaPeddmsUxdf5WF5YuXYruZwW0Tu1alIN3Mzh69BhaQUU4hm7evAWseFkLMepxHNjw4UPorZlvs7r2sautVs62fPny0uxZb9PWbVuFkOOAq7Fp01tY1RrAxGudR92aNb+NXn65P5O16fTBhxwvyIfb1fjMc/TfXmsBR/78+VhNHSWLHV58kZPz8mevMgktUbw4r2x9gQ4cOOjGKbn0E77sSj9TBBQBRUARUAQuFQG/xMuZ58gEfIOEgFINGPgSNW7UWMjUclZwevbszorHrTR56jRe5bfdyqmEc7GJMROniIhI2s15vxAT5EwnYWK8nnjiMYnvmvHmW5wbbD1fZ+VkMgeIyP4DB+gYT/L9+r1A9W6oy8rIy+L29D6cdQVB7NSpo7gAAyNekyQg27gHDZlB/Ng0Vmg2btrEcUkvum9pJu82TJI6sutsGCsy81mFA0FFHi+nqxHxSwMHvESff/GVxHiBnIJYWveIp3BWCRE8fuigteoSn0NdrFy5osQnQTErUqQox3x9wTFyk+Ra52GIEojXa+z2heLlJF6I7xoxfJiocf36vyzkxPQxykGy2UGsFs1lYjN9xkyfwfulS5cSNQ0kDostVrKbbtfOXVSiRHGOcRtG37JiaVyNongNG8QkbjYvzvjQg8hhccR7775DG5g49+3bX5oBxQuKFYjXWo49w2HadPudt9NAJl7jx0+kj9mdicN2NVqrGkORu43d1l27PEv/45eDp5k8I17vrbdn0Lwff5JcdE4yqcTrUocOvV4RUAQUAUUgJQgkq3gZEmD+BfnqwfE4UKhe4knyN461evLJx6ljh/bUq09fWrY06f0XkUB1PMdtOYPr72UXJtSg8RMmcvzY10m2A1nZQdJAKhb/ssSdOBMXGbIGNxVciiBecDW+wJP7ypWr5Fx/rkYr2/xEOQcB23BxGeIFhWYM58aK5hi33hy4febsWTdpAR59+vTkAPO7OU7peVqz5m8PxcvtaqxelSZPZFfi198ycWJSFsQB4olAfpCT8uUr8Eo+jmtyuddMMe50HexqNIoXYqvc7WVCiVWqVatVo26cTX8Xp1EwRAS4Ie6q/VNP0Bh2d37/nb1C01nNZ5/tzPF+/xOX35Ilv7q/Ksl9OvPNafT1N9/QpEnT5HMn8Xr/g7keeF1XozqNfG04Lyj4WVybFvHqxqtUWfF6eQCt+3u9m3ih/k888TgTqfZsbwNF9fRJvFwbt9epU1sWJsxi5e4Mx91159i8Xqyq/cU7JfiLjwuiK/RURUARUAQUAUXgkhBIRLycE3gJjsVxLvnHnaBuDBk8kIOes9BLrwyi7ZzjCgH4Q1gtWbZsGU/KTFA4Fsocoby6sTGvcENCT+RX8hlcz2RhyqTxkqfqZZ54vTc9RnzZ7t27OafTAarPLqzXXn+VljLhG8rEwhlcny1bVk6/kE1ccyATIF5dujzDrsaXeKWjTRR8IeZ0NRrihfOMggYlpSUrKa+OeJ1++mmBu4jy5cvLwgLsW4l4JdTdl+KVnxcIjOR6Z2f3HOqzm12HzuN6Xo2IGLK17GbLx3mycKAdzuPpTh2oxf/+R8/37sNu1k0eRMKduZ4VL7jXNm/ewsqktVDB9CnSWDzD5GnG9BmSOsIcyIE1eMhAdskV4+D6HpLuwZukoPyXXnqRqrEKh8UBR9nVbI6HH2rJqRw68UrNL93Ey7gaZ7KKaVyNOB+kuB+7i29p2oTdxS/TqpVWYtvne3ZlV2NT6sPqJNpmjkKcLw24QYpE0DxSbqBvvRUvU1+4eSW+jhXFixw/hwUeIMTnOC7PnAPFDnuQIiXIcnZBp+Y+npf0tOrFioAioAgoAhkeAb/E61FeAde9ezeJK9rAQdAgTXnz5OLVdzezC6yaBC9Pnz7THQv14ot9CEHyS5jgfP3Nd0yIznHurMJ0B6dAqMRpDrr36CXJUBFcjxV0SGUARUbcl+xa7Nb1WcnFtJBddd/zSj6sYCzIiUYbczoB5AZ7md2aK3mSBkHqJakr7pRs9N9zygTEK5UuVVrSGiDg3kz09917D8dkPU+/8grMhYt+poMc44M4M18HVKUp7B4MZRffM5wbCis4cRhCg9WLCBaHqw55uxAAfi2nZWjLbsYqnPB11Mgx3O5v5RoQr8lMJDHRI4UBysLvyAsG1Wjb9m301Zff0A52vyJNRIMGDXjhwj2yYOHjTz7lPF8P033330Of80bkcBlCualWvQpvgfQ4E7sTvEqzF53jRLG+joKFCnIM3UhW3SLoo48/ldQP69f/w2WcFhfhq68O5kSm5TmdxPv0+9KlhIUDrR99hG5kV+PMt96mt96a5deosf0SktJ+zOUilxgSvLbkdB9IT4E8bIhvmzRpilzfgFc1vsAqJlZ5Lly0iHbs2MXYRUp83n333kvfff89jWTMzApJ42pEfBfcwgc4F1khbgtwwYKBcexm/O67H9z9MWrkCFceL6h/+z22DHqU24OFAsD9fXZzwh6cLmjY4Jw5b3O6jtXUQ9NJZPhBTBugCCgCikBGQsCvq7Fylcr0FLt4sHINQdTxHFMUGhbCcUhHOFnoDzSXJ9+LnKPJqAiYwOFyxOo2qA444CZCpvjPmEB8y9cgyByTHlJH/MF5oKCYccFybh4mIEguCpddLiYIJr/Xv5z5HKsd5/FKO6OEIRD9YSYAtzOpy8VpGkwCVQS/v8HpLMyKxLx583FKg25Ul2PCoDQtY6LRjwPLnYqc6SwQuplvviEksH2HTj73V0ScFbLCV+KVgaZ+yAv1yaef0bdMNk3UlSkLMV4dOnT2KOtBzo3W6pEHORA8v0U6+b8TTKaQngPB9Qc5xqtevbqScLQc5w4DiTPHlq1bOdZsumz4LcFo7jt6mhzcge2eaMsJXrNLu7GtjglYxyrEp5/uQI1YpYRyFMqJbo8cPcwrEn+kjz75RHKLeatd5m+k2niFY61AQlF3kFDsgQlb6MqkDPVDPjMcSOvQu1d36bNs2bNJpn/c7zQna50/fyETog+ElJmyjasRBB/kEcl3cT6UTuR2MwlqJW6Q7z1xwjiqUrUyuyHbS/oLZ8wWMuQPGTqQQvm/lwcMkqz6ZtUnrsUm7++9N5tzka3iFZ69VPHKSCOW1lURUAQUgQyOQJIxXlCBChUsKMoVMqif5UkTCor3FjkGA0yKcCUWL1bEmtB5lSNikU6csHIy4UD2cmwPc+HCeZ/lYBsgkAMoNkc4mB5bASHfkq/jWj4PiTMpIYTPPSIT8FmOv3IeSHtQhuuUm4ndIVZR4M705VpC3bEFDg4E8vvL7ZSDVxmCeOTOnUu2J9qxcye7vzzrl1xZIBZlOJEsEpKibbjfgf0HPeoNUlOMV1MWKczYswt1/74Dkn3+rI8Vjf6wKVq0GFOzBM4NtkHqakgOss2XYwJcuEgh+XwPx3sdktWWyR8IjC9fvqzYw1F2hW7dsk2ILNJw4F/j5rXSSQxkgvMBfcNKVTHBNkG+97W3IlyNt96KbapGyAbsSDlx7ux52rt/H51i8uZ9IOYNGGGXAqNOmjQi2JIJqxuRMuNlJvfme1MGyCy2M0JaEBBdPRQBRUARUAQUgdRCwC/x8pdOABXzFaScVOByIEHNZoWdL8LjT4HxBZLz3EDuGwzQ/jBJCivv8gPBKZBzkqp3Sq4PBCt/5zjbb85BjBfcmm/NfMfaMsrr8C4Lrkakk8BqVSSRdR6B1M15/l133UEv9OlFozhwH+7JYK8Pxib0XEVAEVAEFAFFIBgEkl3VaAiRs9CkMn0Hcn5yJMu7Af7uF8y9TJmB1D2Qc5LD41Lb6KttuGegWdad1/sjs8m1wR+x9XWd9/1AvEZwwlakk0CGeif58VUfEC+4jhFwv5ZXhiZXN298sS/no60fEddz01uayAKBnrya0d/ek5pOIphhQs9VBBQBRUARuFwIJEu8LteNtJzMgYAhWFjp2p9zrr058y3ONv9tkslrgQwSqCIVxNBXX6NNnPw1WJUKbkfsyYgFD9u3bqMpvFBhJ68cDbaczNFL2kpFQBFQBBSBtEJAiVdaIX+V3zdnjuyUl9NiIB7QmfLDX7OxghEqFFaoeu8FGShUWLCAeDgkofW1gCLQcvQ8RUARUAQUAUXgSiGgxOtKIavlpikCqnSlKfx6c0VAEVAEFAE/CCjxUtO4YggEu+gAFQk0hs1XpUG2DOG6lHKuGCBasCKgCCgCikCmR0CJV6Y3AQVAEVAEFAFFQBFQBFILASVeqYW03kcRUAQUAUVAEVAEMj0CSrwyvQkoAIqAIqAIKAKKgCKQWggo8UotpPU+ioAioAgoAoqAIpDpEVDilelNQAFQBBQBRUARUAQUgdRCQIlXaiGt91EEFAFFQBFQBBSBTI+AEq9MbwIKgCKgCCgCioAioAikFgJKvFILab2PIqAIKAKKgCKgCGR6BJIkXnGxcRQdE81buERTfFw8UWiCABaSEJLpgVMAFAFFQBFQBBQBRSBzIJAQkiDcB0m6Q8PDKSoykiIiIlPUeL/E68KF84QfoVoJLsLFN9RDEVAEFAFFQBFQBBSBzIiAc1eUiMgoypYtG4WGhAYFhU/iBcKFjY0TEljl0kMRUAQUAUVAEVAEFAFFQBCA6gVBKiQ0lELDwihHjpxBka9ExCsmNobOnjkte+bhx7nZsNxMD0VAEVAEFAFFQBFQBDIhAoYXxcfHW25HJl6RERGsfOUIGI1ExOvs2dMc0xVL8fFx7kKUcAWMp56oCCgCioAioAgoAlcxAk53I7EexZFflDtnXo79Cszl6EG8wOBOnz5JcXEW6VLCdRVbjjZNEVAEFAFFQBFQBFKMADgTiBc7HCl79hwUGRXl9hQmVagH8QLhOnXqhFxoDiVfKe4TvVARUAQUAUVAEVAErkIEDE+C2hUSFsqrHLNQ1qxZgydeSBlx8tRxdjNavkslXVehtWiTFAFFQBFQBBQBReAyIYA4r1CO84pKGfGC4nXy5PGA1C4TYHaZaq7FKAKXBYGU2GVKrrksldVCMj0CanuZ3gQUgAyMgHl+sboRxAupJQJ5pj1jvFyKl1tCS2IVo/eKxwyMnVb9KkEgpQqt2vJVYgAZrBnGXgMZqDNY07S6ikCmQsBa2ZhCxcu4GpMjXs6JyumSRGiYZpzIVPaWbhrrnf4kUBLmSbpYMg61UqaoLaebrr2qKmLsytirrIfSLD1XVR9rYzIfAqlCvAAr4sAiOWV+rlx5KIzZnjkCnfAyX9doi68EAuYlIS4ulheGnKTo6GgmT4Et6TX1gS2Hh0ewLefmLSAi1JavREdpmS5Cby1cgt0idc/Zs2c1nlZtQxHI4AikCvHCoIEU+fnyF5CJSpZU8qGkK4NbTwasviFeIFvIP3f8+BFOhxLLthgY+bKuD6F8+fJTFC8FVlvOgEaQwapsexSITpw4LruEBPuykMGarNVVBK5qBFKFeCEIP0uWLJQ/X0GK40Srxt3okVTsqoZZG5deEDA7K8D2wnhlydGjR2WPUacKm1RdQbTw8lCgQCGP1bxqy+mlh6/OesjLa2gYnTt3RshXoPZ6daKhrVIEMjYCqUK8jJsxf/6CHtsKqeKVsY0nI9beO94QiteFCxcDVhAswhYmxMuothrsnBEtIWPV2bKxMHY1gngdY1e3Ha6RsVqitVUEFIE0IV7qZlTDS0sEnItBjh07Qhcvppx4qS2nZU9mjnvb9hoqxAspfFTxyhx9r628OhFINeKFeBgoXibZ6tUJp7YqoyBgudNTd4oAACAASURBVG5CCcTrwoULQSle4eHhonip0pVRejvj19O4Go3ipcQr4/eptiDzIqDEK/P2faZuuRKvTN39Ga7xSrwyXJdphRUBvwgo8VLjyJQIKPHKlN2eYRutxCvDdp1WXBFIhECGJV7ebh51+6h1B4NAeiFekpyC3Z4JjqyYzr81V2YwvXr1nqvE6+rtW21Z5kMgwxEvQ7Cww3d8QjzFJcRSWGgEhbr+1pWSmc+IU9LitCZeVjYwPkC6kP0euzjEcH678BBKCGPrRqo7FyFT8pWSHr66rlHidXX1p7YmcyOQYYiXU9EC6boYf4GiQrNQjvBcdCrmBMUkRMvfPI1Jj6oClrkNO7nWpxXxEuuU1ABMsPA7s6qQC3FEkaEUXyCKQo5FU8i5WErIFm6RMZctm31ilIQl17NX5/dKvK7OftVWZU4EMgTxcqpcsfExFM//FY26lmrnbUzXZC1Du89tpTUnl9G+87tZ/QqnsBCetEDBXBNc5uxaq9VODBQP2xJSm3hZrwMOtyIIFytcCbFszaVyUNztRSi2Tj4K3XyKIn46QKHrTxJv9yCETK6L141NM/tzjASquqoxM1uBtv1qQSDdEi9vhSs2IYaz3sdS3shCdH2em6hM9kqscGUVpSsyNIoVsPO07uQq2nB6FZ2M4Tw3TL7COOEgFLCUEg434XPE3+AzX+UFc25qGI8hFsb1it0D0rMb1plby5sw+sLrUmP8Uot4ORUuaRckq1hWvC7GUXzhLBRzZ1GKuyE/Uc4I+SwhihNjxsRR+JLDFL7wAIXsv2ATMGunLfeO3IGqX7ZtCoVzw2kwNx+k9DlJDXtOj/fwfqkRdP3sYH157FWJV3q0A62TIhAsAumXeDFhgksRA1Z0wkXKHZ6PKuWsSdfluoGyheXiuStalC+zBUwoR3mFh0TS2biTtPbkCtp4+k86E3tK3I/E+/AlcDxYMMTDDJQgLPgxB7aLMfc05ZlzkaMsNjbWfS7yPSFXVGpPaOZ+MTExVlZ23hone7ZsUo+kJodgjedynm/qDPyAGfIU+cv5Zs7Fv+gb4BwIWXPWNzWIl0ccFyZk4M9uxYS8kRTXoADF3FaYqBDb50W2zTiXosXKVgJzrwRWukLOcNsWH6TwRQcp5NBFYsMXEibxX1ZYmING+e4N2zYT2DZjEp0EGwbWwBB4p7atJmVD6fnlwfnMm22kkrNXtBX2Dby9x5DkniULCyVeyeGk3ysCGQGBdEm8oFKBdEngPP9XOVdtqp6rPuWPKCgKlxAukDKZeqzpx/zNU7YoXUei9wsB23pmnZQTzgH4gU1VdrdhUs+XLy//5JNLsc/kvv37KfpidKKEmzg3G5Ob4sWKSdA/BtZ9+/bxhraBJ+e8nAaDAb527Zp07913UZasWWnaGzNo167dFBkZeTlvc1nLQiLT0qVLc2buE/xzSurqPZk5CRqS8hZjvLdv3y77JwZLrFMjgaprT22ecZktMVmKq5+fYpoXZfdidla4DOFymaZhUhLYxf+DlzGCCRirXuGLDlD470eEuIn7kaUzP+JKoj4BhsCqaNEiMukbDKOjo+nMmTPsvjpHp06dpqxZswRNCC6rAfgoDHaMeqKx2diO0wMxNHXAjgf58+enHDmyy7OVlevnz17RNLSjbNmyMi7gWvPCEAiGSrwCQUnPUQQyBgLpkngBujiO5SoUVZwaFbhD4rkSmGzF8GehrF5JQDL/F8EKVyiTrPiEOCFkQsTkfwmsfmEiDuW4r1205Mi3dDzmiJwb6IFJ/MyZszTglX700IMt5U0VA+ULL75EP/wwjwfbHG4FCWWCNDz3bGfq2OFJioUKwxPcgEFD6auvvpUJLbUPKF19evekNq0fkYm1w9PP0saNG2Vy8HYxpXbdfN0vJiaWypcvS+3aPc6T2C56//0PBVMQKjOZGQXEqIotW7akG264nj7++BP6448/5dxAj9RSvKQ+iOMqwm7FViUpvkouIRFwK0oMF14g8E8U23U4/8QxQbvAhMylTrJxi/rFbxMUsvscRb27i0J2nrHOlauTPmDHZ8+epVq1atKUyeMpR/bsHheADGzZuo2+/Opr+ubb7ymB7wdCmh4O9DteekqWvJZiWb1d+/e6oMjKlWwDXrSyM5ZPPPE45c2bh+bMeY+2bdvBL182+bJdvCG8ufU5qlevHj300AP0119/0WeffWH1X4DsWYnXlexNLVsRSF0E0i3xAsm6Kf9ddH3em8RlCMLllOfjmGytY0Vr/4V/qUTW0lSFVTHEdVmDneXVASHLEZ6blh1bQMuOzqeIsMDVHkw+p0+fplGvDac77mxOIAYREeG0+Jcl9HyvvokmeUwS7787iypUKOcmXqNGj6N33/uQB2jbzeeve53us0AGY39v/oZQgHj16N6FHmv7KB0+fIS69ehNW7ZsoSxZeOWna1L3VUZS5fpzj3hfkxJVAmSqZMmS1KZNaypYsACtW7eOPvjgQ1YML7LyZZMv4w5r0aIFNWrUkCe0s/TRR5/I+emNeElIFttiKKtUMfcVp+jWJSn0uKXegHRJP+Algv8J45iu0A0nKKFMDoq9hbcjysLuUyZBYgsIrOefeHZRhnPgfdTsHRQfYb1EJEeRYMdQtZzEC2QrjgleKNcBSpg5prIq+uabb4uNOMmuL3tMie04bT8pG3GqmuPGjqR6N9xAf61ZS+07dKKcOXMKbsk9L0l9fznsFfgAp1atHqbrrruODh48KPa6ffuORMrX+fPnhXS1bNlCXsJ+/nkxv7z9IMYRyLMO3JR4pe7EqHdTBK4kAumSeMHjgtWL9fLdQjfkvYWi4y+KwmUNQPEUGZaFfj/6E608tohf/MPZlRhPTQrcS7XyNKSLcedF6ZJz+b/IkCj69egPvOpxKZ8bmaxCYMC2FK8z9Ob0qTxo1pVYIrhpoB48/OhjdOjgIXn7xnlQZurUqU1Tp0ygCFesDCa8t96eRZMmT+W34OzuycKoCRi4zRsvPjOEwtdbsCE8hjB5x42ZssznKOMiu0NBvB5/rDUdOXJUiNfmzZvFfWfIGc5zukbM50A6zlU/mdxdcWpJTZaoo7ssIRTJaTGJzRoTFFyNbdu2piJFitDatWvpww8/YvJ1Xia5mBgmLXy0aHE/k65G4h776KOP5Ty4eYM5UlXxYnUrpllhim1TylKzTHwWyBSnjYj4YR9FvrdbYrtCYhIo5oFrKPrBayiU00oIQZOO4h+O8Qr/Zh9FfPavvdoxmUajX6C21KhxHU2aMJZy5cpJX339rbieodpWrlSJund7TlxmWDH30MNt6PCRI0Jive3E3MqXPRjb8LZlp707YyK9nwNjZ8aO8DeeuY/nvis28dvvy+iZZ7sK8XI+K/7KcZIzXxA57TXYFwVzPmIoo6Ky0KOPPszEtpaQLyi1O3YY5StBbNciXfeLDS9atIi+ZWXRxH8GarNKvAJFSs9TBNI/AumSeOFNMDruAtXO05huKng3h7WctVyKTAZAquI5Zuu7Ax/Q3gu7eC7KIYpYhRzVqXnhB0XlwrwvEwATsiy88nH+oc95teMfHBoDl59Z2J905+D6k6dO8cD/HlWtUlkmATPIjx4zgd6ZNYfy5GG3Edf16NFj1PeF5+mpJ9tJHc0k8uHcT2jEa6PE/WArUbxKjQ8oDRj8ofRAnYIqZg6ci/vhXxAlDN5hYeGi/CRw+RejY3gQj6ILHCeC5uB3nIt4sqioSCGI+P35nt2EeKF+nZ/tRuvXr+c655HbWLFnluLhrDMmEygiiAsLYwxQD8SjwEWJw5A/s+DAxAzhGtQVbQo2cNiUC3wt8lWKWrduLTFJa1jp+Oijj1h9PCPl33///6hxY5Au7ht2Ma5d+7eQruQmWu/eTg3iJTHwULTOx1Js44IU3akc8eoPCmG3IYMuX8LNGDl9O4WtOkoJeRi/U5wupVIuuti9Aq8JcUm3IL4Ivs/JJO3DPRTxzV7O84VYrcAUL7ws1KxZgyaOH025c+dmMvsxjXh9tBCB48eP0eBBA+jRVg9Jvz3Wrj2rh+vlO/yNfoWNov/xt7EH872xB0Oqzp07L3Zq1Mfz/FICCm5UNPNsoFwTe2bs5SKUONe9cB5sESpypUoVhHg93elZIV7mXrAXY6+oH/72Vz9D1pz2atS+S7HXaNez2KrVI6IqHjpkkS8oXzhuYLXugQdayDO6cOHPLtIVFvSiGyVe6X8y1RoqAoEikC6JFwbq87HnqFruunR7oYfonBAvW8XCSsXfjv4oLsSsodlZRDhLN+a/m27I14QVLyYUrnNBvLKGZ6dv9s2hbWf/oSxhTIACIF7mjRaqz4fvz6JyHBD7xx+rqULF8pSTVYKfF/8i7kZM+JiUsrD7YPLEsXRd9eq0fMVKqlC+nMSmzJ+/iHr16SuxIDigjJUpU4buu+9uql6tKq80RFDuLpr30wJxYYJYYCIpU6Y0E6Y2MjG9PnIMXVOiOL9VPyJv/jE8OX3+xVfyU6VKJWrxv/vY1VFNvFGLuV4ff/ypqFWx7BrtzopXu8fb0P79B6j/ywPlnk1uvknus3LVKvrs8y/lO0OYoqMvysR29113CrnJz23Yf+AA/cJ1Q/yPmfAwyXXheLYcOXPQezzJbNq0hZ56qp0Q1NdeH0WH2LUZGUS8lZNw2uSrNLsdH2XyVZRjYtbQ559/Tk2b3ko333yjkC64F43SZSb/QI3eSfSOHTsi/RJoXBPuBbWiQAF2ByaTJ86du+s8r4ytmYcu9K5EoWctFUsO5l7x2cMo4rv9FDlrByXkYAX1dAzF3MtuybalKJSD790SLROvhDwRFDljO4XPP0AJnH7CJFhNqt1ol028xjDxykVz+YVg5OixQqYQ6D3glZfoiXZtxd4eerg17eBAcQSygwQXKlRQ7KFB/Xpix4cPH6aFP/9CP/44T9oPIiNN4WtBepre0oSaNLmJbbaEEMeVK/+gb7/7nnbs3MllWgQZpKtIkcL0yMMPss1Ukbiz8xfO0/oN/zDRXifPF56hdu3aUP16N3AMVV46cOAgrVi5Stz/b0yfKc8dykF81Z13NKcbb7yR8ubJzarTIVrE9fvue7jyrBcF2DReQAoXLkzvvfcBbfhnI3V6ugOVL1eWRo8dL4pwMIHunvYaImEIIHFwO0L5Onz4kMR8QUV8+OGH5LuFC6F0fedeBJKc7Xj3qRKvYJ5uPVcRSN8IpFPixe47dhmWyV6Z7i7SmlNH8DJ4h4qF1BHn48/RXyd+p6PRB6lEltJUNVddVrTYjYYVkQ63F8jX1/vn0P6LeyTfV6AHJpE8PKi/PfMNmUQ+nPuxKDA333QjqwQnqPMzXWkbr6bDeXjTfXP6FPl98pQ3qG2bVuIqw6TTvmNndu/kkskP7p7RI0dIDFM8MyUQHSgBOMaMm0DvvvuBEABMNnBb4pj70af0v/vu8QjQx4Tz3vtz5fP8+XnFpeMYM3Yix5V9wBNiKPXoxjFePOEcP36cjh47zgSyjMe5mzZvoee69BAigwNlvTZ8qKgjOKB0GVUAZU6cNFU+x0T49VefUBZ2s0yaPE3a0+qRh+Q7KCZrWIXCZHophAiTPkhq69at5H5oQ65cuQWzTz/9TMgYiEBKUyCkhuIlE7/1FkEJ5XLShReq4BMrcN7lvhVJjF2REfP2U+i2MxRXjmO8mnKaCRArJluieiHNA4LweTuhLJO3Uuifx4iyM0kLQLx1Eq9JE8aILX7E5Bzxh4g3qnt9Xer1fDcqXryYLBp5ZcAQUaygppa89loaPWoEr8TztBu0C+rNkGEjxI0J8gVb6d/vBVmI4n0cYdflkGHDacmS34Xkoz8njB9FlSpWTHTuMbbT226/m27k+L0JrNChf52kGLFprdu2o3+YPCHofviwIfLigQME2jxPX/KiluEjXpdnsnDhQjTjjSlUgl9gJkyaQgWYELVhu8LxzHPd6fffl4otXYq9Wm7HKH5BakXV+AUH9hoeHiErHvFC9M033wq5SypNSiIwHB8o8UoKHf1OEchYCKRL4gUIEVxfKKoo3V24NWUN4wmWkADUyokFGSCK47zOxp4UN2PO8DzscswpSVRxCPFiwoVg+xMxR9kt+T6d5m2FkNU+0AMDKVJDzGBChbdzKE+Im8IqRxwDecXiF19+TeGs7HRs/yQ907kju2g20MsDBtE7b00XxQtK0COPtpUBOVfunDR5wjh2m1SkP/5cLeXhLb5nj67UssV9dOLESerY6Tl2B24QVWr8uFHugXrnzl38Bv8j1WJCVJ+VB7gI0UZc88WXX1HBAgVYDWoi91nH14MUwn3Zu1cPIYHm7XrhosW8snEzNWvWVBQFlDFt2nSaPHW6XAtSiHIOHjpEg4e8yuRmLROfR6hTxw4yGfd8vg/9NH8hT2AlaO4Hs8VtdYjPBcnEW//OXTtp2Kuv09+8+sxMgIHi7TzPKClQNypXriQrHU1s2meffU6//fa73PtSksKmBvFyK16coT6+ICf57VGR/81CoUgt4XIjyjnIz3Wa85cdvijuxoT8vAiE47tArLB5NrLWg3SFnGR37sQtFLbnnJVo1YrNT/JwEq/Jk8aJYgs380UmsLg+J6uWIAN4Sejes7coSbgGP4gJu/762qwIHWGy9pm8aDS/7Va6887b5Z5QO0cygUMdHubVei/17yuf/7LkV7HXYqxWgoiB1O3du4+e6tCZ/v33X1af2tKLfXsJacPKX7jlirAadReXG8YLWPr1f4XKsLoLpe2ee+6U73ayMgzVNYxzWc2fv4C2bttOAwe8JPdFbBXK2bD+H7rr7jupX9/eYtsv9nuFvmbCU7p0KXazjpF/D7Fih/KiOV5w187dNH7CFHZj/p5i4oX2GlvCmAEXa6dOHeUZAYZ/8rP+3nvve7jqAw2o934mNI9XSkYTvUYRSH8IpEviZbLNI13EvUXbUpEoDjZOQKwItsJmUsX/rT7xG+08u4kJWrQEzZfLUZVq5m4oZ+B6nIP4rt3nttD3Bz+SoHyThiK5bsDACMWlatUq7EIcJ+6MwUOH0+rVa2j2O2+Ku+bX35ayu/EFGVznzH6LKlYoTx9wIPjoMeNp0YIf5RoQpraPP0XHjh0TRQgTBd7Kn3yqE7v6/mBiFSZ5fWa9PUNcOmNZ9Zr2xky67bamNIGJF8jG4sVLhMwdOnREFKt357wtucW2bNlGL/Z/mQPmt8gk8+H7s6l69WqSTwj3RCoMEC+saoQaMWnKNJo9+z0hjyB/M2dMZXdZfonnebrzc1SO3S5vTJ0ssWbDXn2NY9jelbf1EG4f6gfSN++n+dT/pYHiQvn0o/cpN7t2cGzcuImmz3iLVrMKhckUb/bBulJMn5jrTNzZPffcLWTTxOYgTg1L8XEfX3m+kutb533Qd1fS1Yh7yU4/rmCsi8+Wp/iaeZlU8UsEUnHhBO47ZKgPW3GUY8E4xQQTrLgaeSnm7qKcw4sTbWIFH5tuQhbOULfrLEWN3cQKGsf/saKZ3IpGFO8kXr7SSRg8QGTefns2LWCXWDQTiIYN6tM0Vl3RD2PHTaSpTNBBdtEPI197VdyJ+zmn3dOdugiZeeft6VSlcmUhGl179KLzHOuFNCatOHbslZdeFGKPeMe3+B5DhwxkQtZCbPHxJzrQBnYxQviz1CkmRa74L9jwF5/NFXtd8uvv1I7PRVwl1GKooXNmzRR7ncgq1hiuY16OX4Sb/T1+RmpcV50D2RfTc117cJqS8hIKUKpUSWnujh07adyEyRI/iOfRmdssUPvxtlczZtStez3de+897vACuGY/+eQTJpc7feb5CvR+qngFipSepwikfwTSJfGS+Yj/O8+xXc0LPSBuRMRu4UAi1D+OL+ZVjZwegn9HslSklojlgPtmfG6VnLVELcOBmK4/T/xKi498I0H4gcR3WXOhtRLs+uvr0Pixo4SADBoyjJeLf0yzmHg1bFBPVjy2eOARdj8WE3ckXHsgMKtW/Unff/ul6y1/Lz3ZvhPt2fMf9Xuxt8Rt4bovv/pGEoSaDNb33nOXuDGhEvR/aQA1bNhA1Aakrxg5ahzN4TfmvLk5KJ4nJxAsuEwQ4/XKgMHs5iso6SJmvTODbuBBf8+ef9kV8wTf5zQH1/eQ2BZ8DzVtz549EpeGyWbEq0OE4O3bt59Vucfoxpsa04hhg4UwffnlN1IOYoBOc33vvfdOiXNDvqf2rFogUPizTz6UQH2oIM8+14MVjb0WUXOpkil/q7cCpFEPrF68iV27IK6//vobrxytQ9deew0T4NWy2hGE0pnnK5jHLTUUL9QH5AruxlAOmo9+tCTF/K+4FecFD2Ikx3f9fJAiZ+9kIsUfSB4vdiqyaxIxXjF3FqOQaCZjKAArGjmBauTUrRSfgwlZfGAJVH25Gr9i+4PKCdJSunQp6vDUk/ySUVng69XnRfruux95sUgvifs6efIktXuyo9gJVEzEQyE2a+CA/kKAYPNQs+bMelNsEQRt2htvim2YBSkfffiu5cr88Sfq1buvKFtjRr8u98PKVOTnwovIGlZY1/AKVdzHZNJ/l19qKvBLze9Ll7OddRNXKa654/Zm9PprwyR1C1ykeMkBEcc9GzVqwPGW1URJg8oGm39j6kRpK+y6GxPDLVu2itp3qfZqFpNYeboQSN9S6g/3Il7QEFwPgvr++x9IfeDSNAtTgnlGlHgF83TruYpA+kYg3RIvzFhIiloxZw26tWALWa1oCNnc/6ZybBenc3Bko49l5atolpL0UImnmXgh/YSlB8w/xC6SMxus+K7k/DKuvpIVjUyMMEG8NmKoEKTePCHBtYgkqVgtiAPqD9yQ3bo+K4PqE091lLd8kKOKFSvwasKj1KlzVyYsW2kEx06hPCgIJiDZ2zSgbnXltA+N6tenSZPGCKkYz2/ms2a/K/FUEezuM8QLKQHgDgQ5QlzMnNkzOV6nDu3evUeIF2LKevXoRo9xcL3J47Vp0yYZ+I+fOEEDX+kvbhrEq93f8mG6tWkTeuXlfh5b8HjXD4H4Dz/SliKiIujzTz7gyTWvJIjt99IrEh8Gd6OQjWSCzn09Ek6lC79j9eKNNzaS1YyffPIZrVixgt2Oldn1+ahgvmbNmksiX6lFvAQPRGhxoHxc9TwE1Ys3V+Atgph4ZQ2jLK9uoLB/TsoqRXwGjoXNs+OLZKULQ6pL9vpQpJ3gDPZRc3ZR2OJDeKMI1JQ9FC+zqvGDDz6i4aw+gUCDMIB0vT1zugShL1++guP0OtDI11+l+/93Lyuth+nRNo9LP8Ae4d6++647aNTI4dLPIPSwoQ/ee0dUreEjRtLsOe+LPeB72OGXn38sC0aWLPlNSA9W3j715BOsxraWFb/mAJGey/FnUN5QLxATqFeGeHV6pgvl5nQYZ86wksYKMtyVST1PIIvtnugoz/30aZOkDt9++wO7JYd4rLJMib06bRjquL160crT9fXX3wixbdWqlcRMwh2KwP6dvMjAV4b75KYJJV7JIaTfKwIZB4F0S7yMuzFrWDZ6oFh7yhaeiwdykK8Q2s4rFJHny/nGaFJHlMlRWeK7sLIRm2V/tm+muCPlzTTA6QrECMGxD3DCw6FDBsgEgjf7X39dKglS537wrgQmL1++UiY25Pma+dY7oiIgYz2CmBuwqwaTFCaaZctW0JDBr8hkYVYYggxZ2/dYmcIxgWApPuK+GtS/gSay4oW4qnHjJ9E7TLyyZcmaiHgNGjxM3uadxMtWvM5Qr57dJbgeKkXX7r3ELYl6Q/EaNnSQqAY4v1Xrx+n25rfRoIEvSz16v9Bf3D8IkIfrxsSUITYIrhO4GD+Zyyocu1OhjoB4WcHJrk0EU2j/sbGI40OeLqSMaCwr2JAyArFmUCcwiWPyRJJVuKQM+TIZ7oOZQFOLeLnj3+FzjAihiy9WobjinJqB83XBrRi2+jjvycjB98hML9bAFo6YLiZa8dczecGHIGPsnowauoFCOc5L1LEArdmX4vUxx2shNgsEyErpEEmffvyBuJC3sqp5970tadCgl6k1r9JDKpLHnmhPR9mGQKzwd4v776NXhw2SXn66cxc6yDb77py3hLhhkQiIE2IcUfZFjjX8lEk63Hw/82pDKGqwe2v7nNKs0tblBKl1OSC9itwfx1AO2kdMGYgL3Il4iYFr/7ku3UXxAgl88IH76WV2YSKuCkH+f/75F2V1JQfGggT8h/QUIDwIpp/MWfvLsu38+ON8IV6WUoW7Bfg25mXTJhAfz0R9fl4tpStK3Jtm9SLi5ayA+0eYfNV05fmylC88t97bCyX12CjxSuGgopcpAukQgXRLvAxWIE0N8jXjRKpN2PXIK6g4uBZB8/Y0Zc60YrvieAWkZJVmwvb7sZ9o1fFfZLVjMAcmK0wwHdo/IXFSKO+Jp56WnFF4Wx3OLrmmTZu437YxwHbr3pvjUH6TwXfwoFdEFcCg3Je3GII6hSB6JDTF23GXbj15gP5FyATKxuSRI0dOcdVBjWrACRcnT4Kr0SJeULywFD+cXY9OxQvEC4QHdTWKl5N4Pc+K1+MuxQsTJBKoom3XXHONrMKE+2fxL7+yC6e7KF5w/4DsIfAfS/ZzsrqAZFEgRDgsVSua652L85u9z5OrTbyQjNPEZQWDtTnXIk2hHEx9FytdjcUlC9KFOBwzSZlUEyBfyPNVpEghIWVY5WhW1wV679QiXqgPOBfmd8lgf0cRiuZEquJuZPd0ApMxd0ZV25QtBsbKVwi2G0L+rh/3U8T7u2VroQRmYyYjRXLt9UwnYeXxep9XxA4bPpJtOVLI/u1MwEe+PlyS/67klA1QvLCoYjATcdgmlN0veEuhPHwtFF3EbCF26xjbXUd+IQGxRxxg6dKlOFB9KfXo2UdyjCFFBFTYaVMmim3DppC4FYRKAvw5xgskCdsBIa3EeF7piAUtcHW/ysoZ3Pfvv/uOKF5YkAKXOOK4UKcaNaozKXtLXorwjIDwEAQXLwAAIABJREFUgWDJ8+TaiDp/vvzsljwpQf4TOcYLMZKGeAWaPsQXvobgox5wf+NFAeMClC6QLpNYGeQO58D1+MgjyPNVQ9yOc3mFNNLIBL/Tgm6SnZy96/eKQEZAIH0TLx68EbuVOyIftSj2BOfsysFrG3m1lxtZ59uqNbuBfCHu6wyvePxy32xeLHaShQVezRjEiy0ULyg7Xbs8I65FKC+dOIh4y7ZtQjxasBsM5ArJExGHhbQMHXkvRMRu4E2+7wu9JXgYf7/IK7SQx6h6tWr01pvTZOKD8oSYsaNHj4uaBDWg/VNPSJ6iSZOmcS6km2VVo3E1zuacQBjYMaB/8N4sifH6+pvvxNVoFK/ZHGNzPWfPB/Fq89iTog6BeLXl4HoEKY8ZN14WB8BN93TH9jIh4kCcGOLFoFZg8kQgMxQF5ONavmKV3BOxKlA/IlgZGTz4VSslAWcUxyT4/ffzOEfYgEtaFYZ6ADfE1LVr1042yUaeLihazuSoOA8TJkgWgquhfCHm6/PPv6CfOPA/mA3AU5N4SZwX3I1IgpqDUzX0qUQJRVn1wn6Nluzi5+CrmHwg5itq9CYKca1mdIlgAY0vJl5RMtcz+cCqRgSqf8MEAVnXyzBZgoKFBRs4F2rTh4x9ScZ11ttvSiqGf3jxxPARo+gIq7SNGten3s/3EHtETCJW94K8YSUh1NV4TvcwhcnVd7wCMQ+njejTuwfVqc1xl0xAJNUIE2kkGkYMFlySeNGAYonFJcM57hDkCDs+TODUJVlYLZr55htUjV2hJ/g8rED877+9vKJxq7wMTGVCV6vmdaJOvz5qLP3B8ZUY0KDEwo2JOnbllxwQwgm8qhFtnTdvAQ0cPDTgvG3+QMbLVgFeTfwsjw9Wzr4FHqTLKGImyauV5+sRiQPD9lZvv/2OuOYDJYCqeAVk7nqSIpAhEEjXxEsmK/4vOv4C1cjVgJoUvJdTRnCQvSunlzfCorjwrITVkAsOf06bTq/hAHxXbq8gmJcV43WSXuK8RMgjhYG9fcdnZMUgvitarCi9NWOaTBY4ELuBN3S4SqDU9OjeVQKTcWDCep/3cAOJavd4W1G+zPEfByUjUSUmPRyffY6A+UGSTsLk8ZowcYpMREi2CsULLiFMht9+9wO9/Mog2fYFisOHnN4BKw/hynzokTZCFvv368uB0A/4NUTkCBvJE5aJ9YF7FGoeJi4ciO+RtBqsjOH4myeM9h2eFSL25RcfiysSCkKfvv3cW7mk1OpNCok77rhd4tRWcYJXX7mVDGEC+arIeaBq86Q+b95Pgru/2DlfdUpN4oX7QwGSeC1OExFXPz9d7MyxXlC04FYEuXJU0nI3cu4uV1B9xIesjvx4gOIR22X2bwwQaNgrsAFOM6ZP5sS2/tXfjzmWbszYCW5yex/niUMsoEkuihxaUKFwgOD34PQiu3f/K5/BDhFHVZ7TlODwzr81hYPuZ/FKWZCsUayu3cFJT3Eg4SnIVynOGYZExFCEOzz9DLu6N0o98ELy3LOd3K0F4UGwP14iGjduKGXlca2uhe3DNV7CZa+IrWzdph0VKliIpr8xmZXeErRgwSJ2jQ8Iylb82Q/qgu2A8hfIR9/z8xjGq5QR4uB0eRs7w4sFXiLuvvsuIZ/YNzX4FwVVvAI0ez1NEUjXCKRr4mVNWNam17HxcUy87qHrctVjIsbbjYjyZd79JSKMY5Y5QSEH3K/mlYzYFBvbDOEIZvWQ6S0MlNjDrnmz22SSQZ4g5DPCmyvUJCyJx5J7qFp9XugnWbfxHSaOlrwar2OHJ6WoGW++wwHDH1M+fvvHpHN782aczfoBSU6JwGLc5wBPPnBR/PTTQskUX5uzXw8a9BK7fiKEdH3K6RPMSi/kI8IKyPkLFoqLBYM5gpvHjnldltDv5Uzk3TieC+XCHXMPD/QgZDgPOIIAYJXgXFY1oFjAvWdiuDBBQ53o0P5JUb7MNkYgYMisj1VpiAFCAkyk2QABg8t05OgxbmXqUqzdrPZCn5uUFN79Z5QEs92S2e4l2BQWqUm8XJ5GKwcd4o/Y5Rj90DWSoT4kmskX4r28mBf2bUxgohXxy2GKmLPT+h5eSVF1AxdwTZqDKryrwJDBrEyyHcTxs2RwPcaq63ZemTqf00gglxfOB+FBXdEfdevW4VWPT0hsndmKCu5EpBv577//3PnaoEDlzZtbVu42b3Yrq02IYYrjmMVDnHz4I3lRMCsVEbOFmMJbmtwsJB8EBC5M5OqCvS/lFYx4lqwYqUjq8tyzrAJbOy7Argex6rp02XJRt2qyjYOcIS9dTlZisaUWCBjUY6h6mzdvFWUKCjVUvF/YtT52/MSAlSZ/pMvYnckl58TNe7wxtob2mDEtZfaqxOtSxhe9VhFILwike+JlgJKAeaZW13Fqieq567P7Ma+kkTARyXAvwq24klNN/HOKXQ5MKFJCuJwdg0HVBMCa1A8yeWL+5Ld8BKrjTxAxcy/8i7fueL4WByYxpxIDYoZBF8HheFNH1ni89WNCwecmPYJzL0SZCHFT/p9JtWDKNW/XGNTN76auUKtwPsqFeoTJDJ9BDUOuJgQjmwnE1BWJV0HQkOMLkyLicJAuAPVDuSaRqZlEvOuRUsMOJjDeJuQ2W0nJ9amRx8vg4SZfrn6U2LkbC1Hs7UUpvhj3g5AvV3g9gud566CI7/fx9kAHrQ2yEXwPExDyFfhhcMG/ps+cV4s587OF1BBQPo09GHs2ea6KscoLdXY/B9LDZo0tOPf5NPs6gpAjqe4FjuPaxzFNcKnhWXG+1EA9A7GHncE2oTBjYQnqCTs19ZYAfV7tiDJBoKB04v64Hv2H73BOfi4HiVFRXxDCC2y3oYxnZCR2q7D3PvV+HgNHMvkzk7JB7+9SZq9KvJLvBT1DEUj/CGQI4uWcPKI5VUT+yMJ0bbay8m94SISknTh4YS/tv7CbjsUcpsgQK3VEsIOb54RkbT3k/Rn+NpOTM47DPcH6SKXgVGnMtZgEjTvGBOOiDF8rnfy1w4mLr7qaHEM4z7m1DiYfZxuck60pB/XD5AYIQAbN55igvcOSLgVnf5gnV6a3OydYkp2aipcH+UJCVEOwzrM7sTBvUl6Ns/Bfy/t5ssIF92MoJ0oN3XKawv7jDPWR7NrDCjzXdcGQrqRs0om7wQ6YeNuUp71CieTFLY79GZ3Xmngl2I2VAZ+TwzLp9/e8mP0dreeA9Wou2/tcY8MoMy7OzqrvfNFBW/CCgXvic6e9+lppm5xtBTpsB2uDwZ7v/Wxo5vpAe0bPUwTSNwIZgngBQjNowdUSwysXMaBam2FbKgEUMXxnYroudXD1dX0gRCe56wxxcxI40z5jKv5IlLcppbQ+zvs57+UkiM56+pqQkyOp6dvs7W1ernTm+kR9Bos15AvqFRMtJE2FouU+8DcTiARewQiBzH2+y9qDxTbQZ8GXKuPLXv3Zna8XDG9bS0zs5A6WG9b1nHvbnvnbqc467+UeG1xvBFevvariFazt6/mKQHIIXMoLUXJl+/s+wxAvMyjbRMHllnG3zExc9lt7SkHR665+BNJC8TKoitsRRAPkyjZbG3THZ5eidF39vZh5WmjZqxKvzNPj2tLUQMCQLmfIRKAvqpdSvwxFvBKTL8+mpwZglwK2Xpt+EEhL4iV27GZhJrbLCxuXyzqYQPr0g67W5HIjoMTrciOq5WV2BMwcYOXR5C0FXTttpHQbumDwzHDEK5jG6bmKgD8E0pp4ac8oAsEgoMQrGLT0XEUgaQScpAsZA7p27SoLz6ZOnepe6HYlhRwlXmqhmRIBJV6ZstszbKOVeGXYrtOKpzMEnKQLSZafeeYZznNYW2qJPYGnT58u5OtKKl9KvNKZUWh1UgcBJV6pg7Pe5fIgoMTr8uCopWRuBMy4bxIaG9KFtDQ4kMoG5GvGjBmSquZKka80IV5oYLDL/zO3uWjrLzcCl4t4qS1f7p7R8nwhoMRL7UIRuDQE/CldSEODpOLgJEgOjnQ5K1euvKLKV6oRLyTezJ+/YKI8QZcGpV6tCASHgElDYAgT0kngzSaYPfPwYBYoUEhu7J1wNLja6NmKQPII2KkzQjlZ8xlONnv8krc8Sv6ueoYicPUg4It01eIdYkC6kLx57Nixom717NlTdmEBX7mSbsdUIV5IbogANhAvs8WGKgVXj1FnlJY4cz9h+TAIFIgXdhMIdJ9HlIGkoCBe3sluVcXNKJaQMerpba+hoeGcuf8MbxF21L1/ZsZoidZSEUg7BEyQPILnQargXgTpAhfBPswTJ07krfC2SgWrVKkigfZY5Qgi5iRfwW7zlVSLU4V4YYJCIzBZOZMbpl1X6J0zMwLmQQRROnr0sARSBqp4WYQtnAryxss4ruTKl8zcR9p2GwFDwPBygO2STp8+GfCLguKoCCgCvNczK1sIpO/cubME0uPvEydOuEkXvsOBl/CqVatSly5dhHyBbJmYLxC3QF/Qk8M8VYiXIVu5eBPb7NlzeuxrmFwF9XtF4HIh4HQzIpMWNgXHJCZbT3vvg+TnpsaWs2fPQbly5fa4LtAyLld7tJyrGwFPeyVxiZ84cczntmJXNxLaOkUg5QjgZRkECmSqTp068qIN9yKUrs2bN4sK5kygiv1gQb6gfGEfWXjrli1dSm+88QbvkJN4K8GU1CxViJdRBvAvGgHFQA9FIC0RwL5/2FAZR7CEyUyIWAETHh6Rls3Qe2cSBGBzFy6cV9KVSfpbm3n5EDBeiYceeojuueceOnToEE2aNIm2bNkiKpgzZMTEgjnJFwLuv/ryS/r888+tfXMDfElPqgWpQryc7hh7s2a4aS4fuFqSIpAcAuZ5sXbrCXG7F4NxF/qzZevlIrka6PeKQOAIeNurc9P7yzH4B14TPVMRyNgIIJ4LPy1btqRNmzbRunXrPJQu8zyZl2qEnpw9e1YUslKlStEXX3whAfeBhqQkh1aqEC+jeOlgkVx36PepjUAwpMvULSXXpHa79H5XJwJqe1dnv2qrrhwCzmcG7nrEaSWXn8u5ChKEDd6Ny8ljUo14XTlYtWRFQBFQBBQBRUARUAR8I+BcUGVUraReYpzfmZRBl/OlR4mXWqoioAgoAoqAIqAIKAKphIASr1QCWm+jCCgCioAioAgoAoqAEi+1AUVAEVAEFAFFQBFQBFIJASVeqQS03kYRUAQUAUVAEVAEFAElXmoDioAioAgoAoqAIqAIpBICaU68fK0USOnqgctZVirhH9BtAl19EVBhPk7yLj+l+Kf0/nqdIqAIKAKKgCKQWRBIU+Lla4kngE/p8k1ZJoqsg45MlldD7jDPpa0MEDcTuTq9k76lhDBJOSjSC7OUlJVZHhptpyKgCCgCioAikFIE0oR4mUneECxsWOnMyozvsbdSSkiTN5m7UgTCvo/F867UfUzHonwkcnMSJEmUzv8XFhbq3rwz6HpwuSbhupWVN4G3ULg8+1Gl1Cj1OkVAEVAEFAFF4GpFIM2IF0gViASyyBbIn5/y5s3D2WEjZSPYI0eP8SaWp+T7YMgXtiOKjIighg3qUZasWWjJr0sl7f/l2lHcSYKcpBGEBfcImvQEaFVoF8hV4cKFZK/L+Lh4kamAz8WL0YR9pU6dOiPnmHoFg1t0dAyVL1eWrq9Tk/5as5Y2bd4q2yPooQgoAoqAIqAIKAKXF4E0IV5oAkhDjhw56PraNemaEsUplElDHBMKQ2DWrP2b/l63ISjShDKzMjG54/Zb+Q6h9NOCRXTmzBlRzy73ATKUJUsUFS1ShE7zPQ4fPhJUXYOpj7VlQSTdesvNQr5AvEKY7IlXldWpk6dO0cbNW3in9a1u5TDQ8kHQLly4SHW4H/Dz2+/L6J+Nm4TgOdW1QMvT8xQBRUARUAQUAUXAPwJpQrxAWqAS3diwAZUsfS399+9e2rptO52/cIHy5slDpUuXoqNHj9Aff67xIDPJBc+j3ChWapo3a8oEJJTmL/xZ1CCjePlTpJIr1wmfOfdidDSVKnktNb+tKf3111r6Y/UaIUf43q/yZWLQfPRHUmoZ2hUREU433diICuTLT9t27GAlz2pXjhzZ6dprSghRglq19u/1sg+Vtzrnqw3mMyheNWtUF+L1+9LlrHhtcStewWCmD5oioAgoAoqAIqAIJI1AmhAvxHTlyZ2b7r7zdjp99gz9OG8Bqy4XhEjEulQrbEoJ0uQMIDe/g4jgAHnDZ/jb/JuFr3MSL+NqdBIInA8OFBoaImVYZMmKy8fhjBOz4qo8zxWViF2ipUuVpGa33kJ//vkXrV7zt4t4oW6ughzYO8u07m8IGtyUpg6+Y6vEhRoeQTc3aSzEFITywIGDQrBiYmKpfPmy1LB+XVb3ztGin3+hs4yb2UUdbUT9vTEz98d5cFfWqnmdm3ht3LRZNgU1uBpszd9GlbxSrlV9aBUBRUARUAQUgasVgTQhXjExMVSkcGG6645m9O/evTTvp4Wi2Bj2gwkeAd4gJE4iBMKGyT5btmxCtEDWQIyMwhPPv6Mcb+JlCBrORbnZOP4LDb948YIQF3O9M+gf58bFx/G52SxCGBsjLjncF+efO39eiBcUr9WsdhnFy7VG0GdsGsqM4TZAlYM6BlUObTKk05BA7/gsE7t2802NKF++fLRo8RI6ePCQxLPFudTD25o24e/yinv10KHD7jahfcARRAp0EITRiRnwheLlTbxMjBcwQX9FRWVhFSxC6nue2w73rb/6Xq0Pi7ZLEVAEFAFFQBG4VATShHhh8s6dKxfdycQLpGLp8pW0e8+/FM4EByRH0hu4lCc0EEQE1+RnYlGhQnnKnz+fTPqnTp2mzVu20v79B4QIgIRkdSheP7EydNYV42XuWbFiBSpUqIDc68yZs7R1+3bas+c/l3omd5N75c6dSwLOCxcqKCQGQf+HjxyjHTt20qnTp+m66lWFPGJRwCleCHDm3Fkp768167hNcW7FyXQQ2okyixcrJmVmz24ROrhX9+8/KO49EByjVDk71pt4/fzLr0K8UC/UFeUY4jV/wc908BCTMiZ3KK9Y0SKMWTnKkT0Hx4WFCGbbuQ379u0XXHG/CxeiqXYtp+K1SYiWWfwAHMSdyYQ1mnE4wPfe8M8mIWxGrQsmmP9SjVavVwQUAUVAEVAEMioCaUK8RFnin7p161CVypU4OPwkbd++k3bu2i2rGTGJO1cJglwUYrLS5KbGQjb+5Ziw6JhoDsovIcrRb78to1179sg1Ufx98+a3WjFeTELOnT8nfQPSc2OjhpSPidLuf/8TlQmkBOrZqj9XS2A6rodCVLRIIWrUsD7l5OD/o8eOMzk6z8pXVipYsCATjo20ctWfdDPHW6FOhhSiTadPn6Xfli4VZcybQIEE1a1Ti6pVrSLB8IjRArEBcQMJ3cAB7StWrnLFo3m6Kr1djfPmL6L9Bw6I4pXAhK5c+XLUqMENdPz4CVbDfmVyFE2xTP7KlipF9dkFCZUPKhgSRxQtUljq9hcvXvhnw0YhrBe9FK9/NsLVyPFqXHa9G66nSpUq0qHDh+jI4aNS3yK8oGDnrl0cD7ZC2uCLLGbUB0LrrQgoAoqAIqAIXEkE0oR4oUGyUo/dgjVYOSpXtgxFMAEAIdm1e48E2p8+fUZUG5yHf29m0gXSBLXn3//2iiqWv0B+ata0iZwzb/5CdoFdEFfj7a7g+gULeVUjExwQgyY3N6YSxYvT4iW/CcmDppaLCU+zW5vwSsis9N2P8yQlA1YqNm1yExXksv/koHms8EP5IChlypQShW7Xrj2iJpUuXUqUJrga7Rgv38H1KAMrEkEcDx48KHFVIJQFCxSgprxaEfFlCxYtFuLpvQrTqXjlZ1fj5q3bBB+0K2+e3FSKXZ74femyFYIfyCBWjN7R/Daubyz9suR3VqkOS5uh0sFlCdL2ExPTo8eOSZtq1rAUL6xqRDoJrDItw4sHbmLcoSouW7GS4mKxmjKEGtSrK4R5OX8GkuYM5r+SxqplKwKKgCKgCCgCGR2BNCFeJijbiuWKZwWlMFViFyAUKMQRgXz8sfovUbag1hQvVpRub96UtjFhQm6urFmjBHeQFygyFdn9uPiX32gHqzC5cubkuKtbLMVr0c/iBsyXNy/ddWdzXil5TMgNSAqCzrEysXrVqlSbA8t/Z9ICd1+pUtcKmdrD91646BcmQWFyLuoBomRim+Ai9BXjldQKSbQVZaAstBM/KA9KXM6cOWjBwsVChLyJjBAvPvfmxo2oIKtsuAdcpXDH4ju0CwHxIF2WgnWRal5XnRW22vQn42iRQo7xcsXF1biumnz39/oN/P0aqY93jBcwAiFEn/z40wI6wm5WkNJoLjsv44nYtgNMIH9ltRHXAyM9FAFFQBFQBBQBRSBpBNKEeKFKToICMoLYqmJFmYCxW+uaEsU4juqMrNA7xq6+yvxZA3aZHT9xki6wqmWvbozjWKnsHPOVXxSZtWvXUR5WgLDSEMQLRObEyRNUtkwZTqp6gwSFY6WkWXUYn2ClnyjAqhNciFCMaoCwXF9LguU3uFxxzhWJJgAfpA3ECyQN6SSgjvlLJ2GulxWbTICu4XipggULiFoFVydIFILef2byePz48SQUL1b9OL5tDRMpxJxBoUIHQqXazaQrK7tDccCNitQTFdkFCbfknv/+I6z2BEmD8pYvbz66+67mHAt2mN2xizwUL2CwntudK1cOdu3eKHjChYmFBiGO1ZoFWBE8zbFuUM1AgM1CCH3gFAFFQBFQBBQBRcA/AmlCvPylIcAEnjVbFrqJFSCoXFC9EKxep04NqlWjBscZHRYXmyFe0FhAZqBK7dr9r7gAc+bMLmqMEC9WvI6fOEVVKlWgG+rWZhJ3gtW0k5J81DostyCI2CFOgLqJVaM6HIdVo1pVCfiHy1OC/VkpctbZJB0tzepYM8eqRihC3klHzXWIHStV8hrJl4V4MwS5I0gd7SlfroyQrUU/L6Fj/oiXpJNoxGQtrxDK/3g1aO1aNVi5qiMqGVY6mtWRMRyz1aTJjZKYFnFu+0w8mGvbodySyqO51OG7H+Z5EC/k8QLxQizXLTffKCrXfk5d4XGgHCZxCK7fsOEfjrfzvShAHzxFQBFQBBQBRUAR8EQgTYiXUB5XHitJburaL9BaYXeR44cqSnD7X6zsLF22nFcQVqPGjRpw8PkfhIz2UKniXYm3QiWPl+3qwne3u4LrjeKFGLIbGzeQlXir/ljtDtwH4bJInEW+ElgBQ/B7ndo15DzELznjrXAq7gvlxyRQhbqWnOIlWfpZmQNJgyqGduzYuVvuizajjNysLC1gderYiRNJK168svNnJlkgbcCuMSehLVO6JK3ntq3840+J3QIBQ0wcVjOCeEENg6sRmENdhFp11x3NJRcYcoI5Y7ycihdcjVDjED+HxQAmiN7sq2ltZWQRUz0UAUVAEVAEFAFFIHkE0oR4mQkbkzZcf1bMFScRhYLFylD9etdT1SqVJWh9JROgsmVK020cBI+g+oUco4Xr8INyTF4sXB/N7j9sGeTO4yUxXqc5v1Ueuuv25hxof4a+/3G+O1jeEBETtwX3HZQ2XL937z4mJYvdKyyNm84Z41UGCVSZTCGB6ir+ycrpFrwPE1dVnt1+TTiofQ27Q5exmpaTY9FQX5QHhS47Z6BfyCToGLv1/AbX8wIBxKstZBfsoUNHJCAf6hW2EoJSuHz5Ktq2bYesXqxapZLEv4FsLl/xh8SI4UAbERgP1+u6df+Iqugrxgv4YhXptddeI7Fuu3bvFlcmMDObdWMhg8mtpuQr+YdNz1AEFAFFQBFQBNKEeGFFIHJZ1ePVcVt5hR7cfBdZ6YKWVLxYEarDLjSQB8QPIb4Iag1WJRYuVIjjm9bKvoQgXBHsfkN8V/WqlVlB2sWr77ZJbBLiruBqXPjzYsnmjvgjxDyVZBLxN2+ps2HjRolLwvU5c+XkQPRq4k4DScnKrrUmN9/EKxAL0noOPt/EK/qgwoG4lCheggPfw9gFuUOux5ZBzTiQH2kw4KLDAVKCw+0OdQW0IxcWVhOCGCGQHwQGubyqs8JWlhU57Cn5Cy8c8BfjhVWfNyGBKhMvK4/XYakTyBsWF4BkoQyQshMcCwd3JghdBCuAWH24kxU21KkIr6xsUL+eKG9QsnAuSCVi2+C6hOKFRQYgslAKGzWsJ/dazqkuTKoPELCyvMIT7shlTPZAvjSlhA4mioAioAgoAopA8gikCfHCRA1lCa4srOBD0DvcYyBLuXh1H9x4q5lgbdpk7RkIolaIc2g1bFBPJvtjHNOEYPTIiEjeeiiXxHkhTQRUKqRRQPwSyvr+x5/YRXZWUMjLqhf2hsSWO0hbYWVfB/HixKL8n+X+2yWEyLrXDbJ67xSfe+7ceU59ESXpLHbs2EVLflsqZAXkBqknkJYCgeaI10KQv9lH0cBvXI1oL4LVUf9oVvZQd8RZIWYdhApbJx05ejTRqkZJvcE4QPVD8ljJ48VJY83qR7S/AROvqkxAd3Os2+IlnMsrOpZdkJzHi9VDqFdHjhyV6uB6tHE52suJVFEGiGXd62tTPc6rBhzXc9yWbBnE5YLQIWkt8EL7UFe4TbEoYMfOndzeVXyermpM/lHTMxQBRUARUAQUAd6CkOfkyIgotxcpOY9RSK069eERlCM+Lp5JzHF3QHlyF5vrTAA6VvYhk3suVp2g3oDMYHIHAULCT7jc3CsCY+OYqOSkCuXL88q+vEImkCj0OMdEIRO7UWNwDbLKoy7r1v8jrjWoMUJemExU5kB73BdqFwgdrodSBrXIxC7hXCRMBeEoxOcipxUCyY8cOSIpLUBCUCYIZBFOtlqhXDnKxmTkPCdrRVwa2uC9MTfKBOlB2gyQS8SKHWalD5talyhejIoxEV23bgO7Q896bAwuODMuiLWqzO5DkB6swER7zVZIsYxNjuxZqQbn4jrPrtut27GJ9nluM+cJYxJpjhphAAAgAElEQVQJ5QpZ/7GK8wzXDXjt5cz1wAptRuA/FgqUZqKGnF3Iam+wT+D4udIcQwaXI1yp6A9ghWz/KMPqH9RS47x0QFEEFAFFQBFQBJJDIE2IFyolsUJIb+DKjWVt+cN7Gco2NOGyUtGcJ9M6z+6yf6IroSpIB9yNiAnDuU6iA/cbDqhlTjIoMWGyNyPKDxfiZXJzeRMlk3MLihCIF+pl9jh07lFo8nLBded0uTnva5NHpM2w6oVzURcQTpQL1QqB8f5cdmbPRJMDzJxnyjbxaqi31Nm1ctPUz6y4hLoF16uJI3PWTdy3fK3kCBNCZZEp4ITDBOhDnUT5hri51jkkZ2v6vSKgCCgCioAikOkRSBPiZRQvozCZFY7efxvC5X0+yIX5zqR68D7HkDZneoek7mellrDtwblyz9e9nCkm8Dvq5E/xc9bN1MtZF2c7faXaMJ+Z8p14OS3YKE/me2e9DWaGNDrr5CzfWbavz1GmKcO0xdwn0z9NCoAioAgoAoqAIpAMAmlCvJx1SopoeNfd17lOIpNcbwdzfaD1CvQ8f/X0V6fk2uIPQ+/ygqmfv3tejjKCaY+eqwgoAoqAIqAIXK0IpDnxulqB1XYpAoqAIqAIKAKKgCLgjYASL7UJRUARUAQUAUVAEVAEUgkBJV6pBLTeRhFQBBQBRUARUAQUASVeagOKgCKgCCgCioAioAikEgJpSLys/RE9D+/PzB6KSCdhnWlWHvr725TnO8WB7/K9sTbXOsvw/N1OteBdH1/9Zl9rrZx0rk70XgnprKHH73KdXbp1X2c9rCWZdtkOzHwgbfanTMrOErcf9cf+lqYvPO/pLMvGxdmH1vmJy3CW6exrz/Y52+bZdk9svG3A7k+7vER15TYZeH3ZmDf2ISH+esrqF2vvT0+7deJmrYq1vvd3nqO3HT3o67nxX4av58BOQeIbt8T4efeDWJqH6fhEgz9kc/E407dNBWO3SVmsPUZ4jg+J7cj/QhurjMR95fnMJ9VvzhQv3s+j876++yaxzfi7RuzUy249t031tJXk074kZ7ee2Hg/Q4m3bE3qGfHVV4mfT1/PRmA2nfxYaz+prrq4rDr5frHq6WFDrqb6fjqDt1nLvvyP776w9z7fOcZY465Vu8RjmemLxO3yNUb5ak1yz7VzTPGwWVcnOJ9Xbzvy7I/Axj/PZ9i33V4OjmBlQ/DENPneTqMEqpYR+J5grUlLYHP968+UsakQcs5bPecyKUebk58YEwNkrvGug9tsHPUyj61dV2PYZuK1DMhFNtx19W6WV/sEGHMORtXk6pRUN5vRwAY78YRjBlvvh9wYk42FJ4H0JkvOcpyYoJ/tAd1+ILwN1rufkxrCEk8QlgHYduB/tahJG4L6+7qHjbf1QPlul2/bSd5uvabCZGw9qWfBaRfOZ8VZB392a+zSIn+GxHoOzJ73dsHrYFEB2q3f2T75/nUOElZ/mrY5bdLYredEm3gc8dFj8lgEZrf2ZJCUnSbVJvv+iSdsz7HMdzJiXwO88zmw22E9Y6Zv7TZaNXD2q/ndl8144mW3zDxj1jVW9zrb7V2mr/uhI72v8fUS7ut5crbTLsfZP/a84LqLR7c4WuImNgZb5zPlDxPffWz1oAthwcSqm/NF28bfSdqc/ep7PPKe2M2zYI9Pvuvqf471JHVJv4T7qJPrI9tqk7b7xEOAb7u10yF525Q/u01LjpB4PAnmk8uqeHmzaYFLjNAYpAW4ISSeyocFNj6zBg7n4GrKcH6fuEznxOFk6p7l2YqL23D4ZHlYHaqaeaN1gml/ZrfDOXF5A299Zx12m10PiTyXzjc862R5fF2YyRDnYtOJcXSXLFc57uT624Gzo0xznmceL18k2B4Q7Db6Uqv8qBWuKiWe2IxN2AOT0248+828gVnIWDg6yYKFpfUiZ2PlbKPzzdT7jc/jXsJxLeBNv3mrHlIL91ujJ4FLym69CY1VvrFzXy8hnji7ybuLCLqsTy40dutt+06bcGLmbSf+c8/ZdisDPXAWjI2tOCdP17TjZ47lK11vhfZEZGNs4+j5rLhaIGX6Vph9pzlx1tvTbkz/easV3m/rlp3ZE7x9vrE3u6HOccI5PvizO2/1SszAY4z0fW/zjHgSZYONXS+7P52dYezWm5BZtme112DlVGK9x2vrPr7UCUPAPEmCYwxxviY7xj1f5CARRq76+RpPzXOUWMV12ZrYrTy4jjyLNlGw7+U53nnOUZ7zjvcLtvtptoZuq0s9cPUkOr6IiLcXwFZUXdKCq0Bfz6s9jpkx0h5T7HtZZM+7/0zfG7ty1d6DuDvHXstKPMda5/xgjcfWS5J1b7v+7nHIOdZaD6UfL5CvscGbI5jyU5sjOF/4PF8AnHZqxi7vPr9sxAsFh4baFfAcFM0g5gJHxm8kHA31eOO2JwvPN3hP47EHU6t3XcM1OlN+dREYd6ebv30pHJ5vJN4ugsSTmVWG/fZtHjBrMDKDjyEDZvBGvteQUGvSQm1CXTK1bfT2YIathPC9IMQjhvV7PCdo9cbXepgtzK3f7T7ANkP2dygTE6ddR+dA4MTLDOAuTI2OyBeivJAQJK4NNV9KvZwEwvwuj6Y12tmd4+4bQcBdF/uhtk61H1bPvjHtSTzouWmI3N68edpECFgAO5Rt1ddbgjf9I+TCVWUbWzNgud6j+R5yPmMB+03cRl82aPDGvzbhYki5f+3vrPY7X0xsQmwGRAslpxszsX07B33vCcDYimULdl3cPe4gOlY7Xe3hXyzeZZQnZ10ZEw+7RbsAONst19UyUcsmLBt19jXbudtWYWe2nSe2W6dNmDHFVsKcE5A14FuJjc3gZyU6tp4L+8XDwtNVI4fdOscgnB/v3g3CtidvLJx1su+Fsp3X2Pdz/eaw2/h4xkts1cLL/G7UALscx6MlY50ZixIr15bNA2eL1Bk1xtiSbVtmovOcMOV7j8fZaErm+fZ+bs1Ya7B1jjHmmfGaE8T2nXU3Y61VZ+fYkJjU2M+csCzXWGs9KrBboQqOyd3gZQFnXgzM786x09zX2K1NMizbssZfLkHGeOv5cL6ceE643njZz6B5/tCPvmzFzDmG9JrzrbHAws1jzJfx2n6+bWJlcHDi74mvXQ5sxtighbGUaV3qJpme9m3ZQmhovGsst+Z4U29rrHWZk/uBtct2963jsbTwcN000ZxixhZzD/vF3PR/UhzBejZMGf44gmd4jT1/OMde1wjisGGDkFPkMP12mYiXlUnenlC9lQoziLkeEAdhsgYM54RuG6frubF62Xr0HBMTdyxIgHSqPWB4A2kbtOk4xyQoJVsWZD2YvjrRJg/24OZqh1zjZPjOdtqPhukA63q7HuZv51tq4knTbrsZfG0sjHU68fa8r7POVl29sbaJm+eAbJXtia2ncVtEDGU6z/M0XpuMmkHGOVkljZ9dX892WnZgtdMp6dt9bQYh6zpfRNlg6CrFNXH5mrRMqTA0mKAZzJyKl+lXM6Bbs5T3257Luiz1SMzAck8YsmnX0+nCMW33Z7em7+3nxtNOnXWyauD5vT04W+TaEHTLTq1H1fWAWIC76uyNldPuPJ93Q/I87d9+rpxXmn4xz5ULdNcpzmfBJk+edupJXJ02Ia13GY5dJ39v0M43WmNrrtpJ1W1yYciy0ybt+3gro067tcmSwdp78rRIqq1WWGOJ6zl0Qeg5Ytrle6qzxibNPT2fbc+xxbTT0cewG3c9fNuUVU9rPDZjtmXTLmXWqrnr2fWcSJ3PitU++yXI0ybMeJ94rPUc66Sz7TlXXpIMGTBjnnkRc2JiP2eWvXi21R4PDRO16+EkiE679XT72n3uPXbZGMidXfORH4Xf/VJsCQH2C7F5vu3+ttthkzRf5NX5fNreJ+e4Ys8Vpn1ONd3U3xBS6x72M+uyTMec4iK91hcuu3bZOl/mfBG2X/IN7s5rPO9jv7wmzxGcz1Ziu3WQS7w0mufONf9426x7vPR4IO3x2dgnrrsk4hUXi02yjzkYrZNhWwZgGLPV+a7B3PVK4K0oGaO234o9O9p+sFCOayBwPcwgAdYbvPNty0z2liFbD7T9kLlnPdcDZtQj+03fYRHyq3OSw30sEuM5WFoDgzFIb1XK9Tg4DM35IJrfjSE5BwZjwDaRsN5irfZa97PqZCZyq8ZmcrcnVHtSs4mPbTROnOy3UzMwmwfWDLDOPna+2diDAcqzlSZjB06S51Re7IHOMfG7Bz8nCfYkX85Jxjm4mzdBm9x6DtxW/V2Ew6IYDjJt9ZYbTwf/sGzJfGf1m6VQ2HX0VOdMl5t2OScWY7PWtQYPp/WZgdAQIeuFAaqopRB5qgW2vVt271DmZECD3YS57Maoo04CaN3ZHohdg6DjHdd+abBr6XS3GsXTHpycE4GxW/t5dLbPRfUcA6/TFox9Wi8RlupoHbYNmH7znLxMX1t4WedbipL3Gy3e0uOAgAsHexzyfElyTireLx+mD+yXHesZ8ibsBmurjYaw2ajaY6rVRucYZsZATzJtP1v/Z+86AKQqsu2dnhzJOUkQUREFDICoiGLABJgjuubFnNfddYN/V111zWvGnDMqigETioEgIAiSFAlDnJw7/HtudXW/7umZed3TKAz3uezMdL9Xr+pU9avT5566FR6/zvLqj1urMloMnfeQkRA5WcrQC/eJY3qKIFURBD80X0Yq85HPDOeYQ5uwZ6x9dph+9/uhltu5Jdy/wREQrGu4HdKHjrk6uu1mnEcqoJGEIdw/YRU/cp6zz047boOxzYixY8iIGauRn1UnUTLtt3iaephnk3OOsdfbZ7B5z3zGzbPMtMk5npykzjkOw+TPzg+2DuE+tnNnfazs5yL8LAyD7VS3w4KJnVuDIzPIEawK7niOSeMcc3VwAP8+HCH8uQ1zBOBsxqKdE+1nLPILZjiyZ3AP9invh5yZnkXZ2dkR4yH8OY38LWXw0GEhPofBVFJS5HiIRX/QHSM+9BBjMOWzZAeUDQOFB1mkNBcZcgpVXb5JRX8rsmWEOywMjAHJOYjMwKwf8gw/DJyTuw0xORWBENTBDghPLuFvweYBFb5vpKJgP2S2UyJVj3AbIz1v9T+s4Qd29DdZ5zem8AfFfqCj1aBYpMz5rSbcFPPBNvWPoPjBCds+nML953yQmAnIORljsjP7XTq/Ndv6WfLTcDvlsRAqwz50wuXZD4+9p3OsRit7tl2OSU8mai41OM9bsmZxtBNqrG/u4Y9Qw1hI7QTG+opTNL6R47Y+uTAPYOfDzPkwdX6gw/0W/W07fFawn0PqXOTnzvllyPkN3o6jSMIeJqVOTJzfBJ3fxKMl+ujnQhgzJ4Gz4yf4iAsShPB4N683/MCMd9w6VYToZ5KTJJrxZ+5t+9pOkPg78gFdH4dIcmjKcSphFlEnITL3MV9kLbELn2dIq/OLWviLhCWdIYyD/CVWuLKhcRsmGGFSadoe/Rmsr77VL9N8NsJ953x22Oea8znk/OzaL1T23k6CZ1XdYOnAK0Jtiu7DaJxxAb7KBNXBGNdHEzuLafQ4CD/rnPNFuN2xxm2sz219jC2JMmPQWnzCn7vo/rGfkQaUVtML9b7sRT4LIkmTk4xER6icc2PouRDxrP29OYLzc+2ckw2ezs+q+XzE4gh2zJn3mqV4+X1QvIqD30qcA8T5gA1PNk7AnRNiZPjL+WCyk0pw0ov60DofxGF50w4sMzCsR8J2qHNQmi9D4cEVKRU7H2yRD7nIQRT8oOIRFvSnOBmwJVTRcfsINcFBNsJqhyVskXjYB3f4wxtWwML3dXQ8BgGGh3xTjiSx4fPD9zIfTOcHK4y989uMwdOojJFkoz6JsW11Ejj7jcx+Q7MENPTBw0db+jtysgoT1PDD2xK6cB9bshn2YUV+y7RfPZxlRz/s7Hg251jiZ+5hv3HbD5n9Ruec3OqrEOFvqvWJqnmQ2XrZTeAjJ+hQH5oqmGkoCIhTKQk/AJ2TtUXHTsxmLFgfkfRmyAsXvIFcEiyDTxZ9xdEn0STR4GS+2TvHlpNYRRLUsPoTJiU21BAet873TD3DyqLzoWfPMzijDuG2mtZbsh2cJEN/hyf0sNrtmLgjHq52kg+Pz+jJL3Liixw7zmdWeNw6xzLq7Ky/80EfrczY64CjUTycX1zCpCtMdsI4OMmq/fybe6Os6OdTuN+cY9JgGvbuGRJnca7/rI2cjE1/2T5yqn3hz6KTXEp5QQW/oWdtzC9moWdgeF6KJglhb6GtY/gzGvl5Cj8PQuQ0tOgEBEw+BPbDFvr8hMep/cIZ+ugGz7VY2HHrfN+OW0vUI1VT+9lFPcOfNfPstH0QxtGOkej5JbK9thnh5629t30mx3r+Rn/uMB7qj6XI53Vk21oKRzCdase2/c1+IU6h1NQ0Sk/PSEzx8nKosbS0KDTIbCc5Rp1jUNlJxQ4I/B0mDc6Khn+3H+IYJQqRCH/IoweKvSI6BGOuiSQaoQ9Q/duEXrHl4Hrx66L29dIR1J+868vKzknfYGAnjPDtg5OcRU8+QJEP/NgfDNs28+ENf2gswWgMcycmkX1k+0MeavhwB795GiIQfDdI7MJYNoSx8yEfjUWsfo7+huGsWyMdJqgKVZCToloXxN2+4xxnODPaNG8npEiSGR7vTbXV0bMR49bc34lj88dtZF2chDF8n0g06o9BSySjiYq9ztlvzj4IKguh8RF73IbbGD35RD4P7APaGTaJxDy63yLVrvpEK/hJcz1uQzWNGi+Nj9vYz5xkjNvo8R6rH+2CF/tcie5Li3mYhDT+KbLE0X7OLZnfeuM2/Kw148F+4TA1CM8jMZ4WwS+C9nMVrqu5LtazNniuvCvMTlbvxnrGNTRurcdVSgo9q03fhN8L90dkOyyRC39JavwZ4OyPpp6lTb0fiWC47s7IQTzjNvbTP1Y/1e/Hhucf51xWf+5ueEyEn3fhfk/uszY2fpb8hsetc8yauhjFC8QrJ0I5bOizGBFq9Hl9VFpWTD6fz9XFTX3A9X1FQBFQBBQBRUARUARaMgJp6emUmWE8Xm6OSI8XhxqLijdT69ZtKD0jU8IMThOzmwL1HEVAEVAEFAFFQBFQBFoyAk6bQUlJMaVxuDEhxQu+qi1bNlGXLt0oOyeHlS8lXi154GjbFAFFQBFQBBQBRSB+BJzEa33hWsnRmZ2T6ypamDJk7+F8vYlL+znEWFS8hTp27ExZLJmBiKniFX+H6BWKgCKgCCgCioAi0HIRcBKvDesLxeeVk4jHC6saEWrs1KmLEq+WO160ZYqAIqAIKAKKgCLQDATqES9eeY1IoZsj0lzPCldxkRIvN8DpOYqAIqAIKAKKgCKwYyIQTbyQ8iaHiZdzFXRDyESa6znkWMQeL1W8dsyBpK1WBBQBRUARUAQUgaYRaJh4Re7AEaskIV42GRvM9MUaamwacT1DEVAEFAFFQBFQBHZYBOqFGjnRdFyrGq00BjN9kYYad9iBpA1XBBQBRUARUAQUgaYRiCRe63ghIpvrJdToUvGyt1Di1TTYeoYioAgoAoqAIqAI7NgI1A81pjDxynUFioQareKFjPXFnE5ia3q8Io1n9bcqcWNMc9UyPUkRUAQUAUVAEVAEFIGtgEC04uXxpAZDjXEqXj4/E6+irUe8Qnt28Z5XvoCX//kEDuyj5WGZLpX/YXc4JV9bYZRokYqAIqAIKAKKgCKQFATqhxqxqhEJVF0Sr63t8XISLj9XqtZfQwVpbWiPvH2pY2Y3+qliHi2vXEQ1gSrK8GSFQFEClpTxoYUoAoqAIqAIKALbNQJbkw8kUnZ9xQvm+m2AeDkJF5QsEK7MlCzqm7M7Dcrfj9qktSc//wfFa0PtGlpQ/q0QMBxpnnTRwnS/yO36s6KVVwQUAUVAEVAEmoWA4RIeKSPA0TKSaFl9q5K7m+A67NbDP7nMlJS0YLnx7dTTkOIVKttRGZs5wr60VTxe0ewRhMvDDeyTvSvtmT+c2qd3Bnrk5f8sBOkpGRJmXFH1Iy0o+4Y21hYyKAFKS0mX183/AL4F2x3EepYioAgoAoqAIqAIbJ8IWNIVCNQxCfCTJ60186Vs4RA44uUElp+IrclfRT7vFi4jXf7FI/TUTydBrHjlJRJq5L0am+nxCpMu9nH5vdw0P3XN3Il2zR1MfXJ2CxKuOlG5nIAhBInXQLR8TMiWViyg+WVf02bvBkpPyVT/1/b5mdFaKwKKgCKgCCgCCSEQIl0QbzhCVtD2eMrK25vSMroZYUmIV3xFg6/hmgCrZt66dVRV+gWVFb9Nfm8xE7pM1+QrHsUruoaRileC5nqnwgXy5BXjvJdaM1B7scLVjwlXBocYa/zVRt3jVuM/W3HLWkPG+iABK/OV0NLKBbSofDaVe0sp3ZMhypka8OMbaNvC2aavQbbDtUkkrr4ttEXroAgoAoqAIvDbIOD311JGxk7UrtufKCN7Z1apaiTcaOeSoPDlujKGdFnSlsZki7lJ1ULatPoWJmJryMPkK8TqGim1IY8X0nJ5OJmq86gXatxryH5SBbyRaDoJCQEGiVRtgI3zqW1oN1a4+ufuSXmpBUzE6sTLBdKEw1lhWznna/gd/6Vy7JXXOlKpt4jmMCtdVrWIy6plAgZgTDnxyoyue0dPTBoCIa9f8JMSknrRz9qHScNZC1IEFAFFoOUggPkBE72XOvS4mbLzRjBHKZFEpfB7OYWbRNpsCBju4aPU1NZUWfYZbVrzbyFdZqpqXEqLDjWCi5hVjUFWF+RVseoWpXh5OZ1EUfx5vKz/ijzUl31cgwtGUOv0DlTHTNXPgUNnWFEmWpC04H/WiGY0MPO6sEOHryuVmJUyBuvZgL+wfBatrFpSL1TpFviGJvp4Xv+9yEKs+/5edUkE79paDjEHFU+Q/LQ0JtapnEJEyZdbOPU8RUARUAR2EARSyO+romz4wrvfxEqXST8FNSkZc4YtAwqVFXA2rf4bVVV8x/fIEQLW2FFP8WIymM3Ey5Zn6xmTeEUoXgmFGtnFxf4shBJHtz2OemT15b99VMcqF27sDCnaxqHCyNuVLoY2gOjn85mkSf4LwzJjKWAZ7PVCCHNxxff0ZcmHTPMifWJuRmO0+mJlRyf4tpx65wa7orlM2009Y50TrRQlcxAmWqemBib6E9ii7l06d6Fu3bsK4SorK6NffllFpaUcQk6HqTF+9TK6f5z9ZsdQtCLa2DUNEVv57iPh8fBHMZH6bg2MtUxFQBFQBFomAh7ycrSrbadJ1Kr96ax2lYdWNjYn0uV8dofnch95ODpXvGEyFW14lOeotgypIXoNHQ0pXpZL2DpGhxllPokkXokpXrWsbHVM70IndD6ffVxVKNZ4saJWHdi/0ziEWOIroiXl33MYsZjasDo2gMOSOal54aSq0WEp2PR5AkeaCaySfL7wfv6bwYqKpTYFlAmpci6x2ho5FXUCEcjI4FWVMSZ/vFZdjXON7AmFJiMDqS7iX03RnA9HNOkCWUHba2trt+lwK/oMmO0/YjjtvvvulJkJ8yITbw+nENmwkT788CNat349pXMfuCUzdhzZbxR1Xi9/M/JJ/6Bc3A99ivOcuDn7rK6Ow99CCM01Bk+QxMhvOUK4gmF4nI8D5Tfng9+ccaDXKgKKgCKwYyCQSr66TeLtKmh3fGj1YXPa3tAc4/fXUVp6WyrZ+CxtWXc3paa349uY57074oW9Gk0C1WjiFev6KOKVWOb6Oq50+/SONL7TuaxacY6NYGzUOTnZSRCkaz0b2KZveYtJ1xYj5vHs1zWrN41pO4Ey2egWnTbCqTB5WOeq9FfQy4UPy4rJeCdAhLhatWpFewzcnRkuO8hSPaK8LFu2XCZfG/q098Qku/fQoZSRmU6pvCXAmrVracmSn2Ty/a0PLxOMbl270qmnnkR9+vSmN9+cQlPfm0ZZWeGks791nZoalF7G+6ADDqB99tmbampqZFDiwE/Uu4hD22+8yWOBlS+QpXgOkCdc07ZtW8rJzqbUtFSqq/NSSUmJ/MN7zm8blkAh3tm5Y0fK4mugYtUwed20aRMT7Op66hvGC0KkbVq3kvNR74qKCr4PwqbxK67xtE/PVQQUAUVgx0XAI2SrbZfrmHidwF+uixmKxL/02i/8dV5E3FjP4qmIpww5xOfFaSpAvIrW38u/Q/GKh3gVyhd3JFBtjHiFVLDmm+s5HxeHFVundqDjOk5kcsJKQwxXvzOUN23Ty7SqZjllIRdHkOpUcyx3n4IDaZ9Wo8QbFkvJQkgShvuius30xoYn5Mp4iBfOxaQ5fPh+dOMN14kakpebS198+SX969//CakkdkKtquI67T2UbvzTdQIqdh7/7LMZdPudd0m947l3cz88uBeIwZ6D9qA/3XCtKEePT36Sprw9leuV3WyjYXPrF+t6kJbWTHLHjx8n2DlXewB7bFGVk51DM2Z8Sd98+22Q+DZdE0vie/boQYMYjw4dOlJBQb5cX1lZKWHM+Qt+oLlz50aoUyBL7dq1oxHDh1H3bt2poFUBfwBTqKy8nNYVrqNZs+YwCf8lRL4sSd99t91op169OH6fzXX2i0r366+/ikqqhyKgCCgCisDWQIAVL+9matf1eiFePg472mSn8d7Nkq6a2gDlMu248OxsmjPfS5/OwIpJZFgA8WpjFK/Ce/h3KF7xhBrrK16NcYSkKF5ezteFLYCO6XAGk6mcmEqUkfg8TKpq6KXCh8QDBrXBOGdI/u6c2Z3GdzybqjntBPZtjD78CAsy4y2sW01TN74QDFlFLttsrENA5jApH3jASLr0kouNagGjHk+m/7rlP/Tjj4uFxCDcBEULKsx5fzibjjvuaCouKaX8vDyezL+nu+59gJedGg+bYcuGAMZS+Kzi0pTXyJIJ21lOr5stH2HFgbvvRtdcfYUQmSefeobeeff9EPGyKl20nOr8O9pD5wzFmTaYpbbONjlDdvEMeChcA/rvQmMOO+2IPEQAACAASURBVLQeSRVcGOe09FRWG1fQe++/71pBgvIH1fK0U0+h/Pw89gH4pK9QXl5+vhByEKrPPv+CZs+ZI0QKJKpNm9Y0duxY6typI6tvtbwhfDFf6xUyhnNAbN95dyqtWrVK+nbwXnvR3ky887jfgQHORdlT3n6XVqxYIYqdU42NBxs9VxFQBBQBRaAxBJJDvPCMTmXhBKSLgxZ0xYXZNHTPdFrxi5f+dlslRzQgojSfeGHOcCperomX18dhmuL4VzVis+scTy4d2f4U2QbIh5WMUVnNRPHiisF4/+b6J8TjJZtii9HeQzW+GurNOTqO6HCKeLhs6glnt0DxQoLVlVU/0cdbXoeTLC7VCcAgBHXU2CNo0h8vpPKKypDq9eRTz9KbU96mLFaScGCSLSgooD9df42E9TApQ2VCSPLW2+6gClZWLPGSn9wO8RoFV0hgIrfGcku+LIHB+SF/EhM4vI6wmCxGENx4eyUOb9nX7co/EC+ESK+95kqZ9J96+lkhXmmsl4J84Cfua83sTtKHskE0QUBAd9PTzf1s6M/W1RIuWxdc46yvW5UP54F47bxzPzr8sMNiEy9pdyr99NMymvbBB3ETrzNOP01Cv4sXLxEShbb1YBVsn32GUnZmFm3avJlee/0NqQfadczRR1O/fn1YFauiOUzIFjHRRj/vvPPONHzYMCGwGzZsoLd4HBQVFdNpp51C/fr2pTVr1gi+7du3k5/vTp1KP//8sypeOmsoAoqAIrDVEGgu8TK+bESrausCPLen0JUXZQnpWrPOR3c9VEUrV/koIx3zoJdFgOYoXhxq5DkPqxqjv4zHEl8iFK9EiZcxvafRGDbAdcvsLSsUozPTm8qYLYAWlH9HXxRNlQ2xsboRKhh+Htp2PO2UvQt52TMWHWoU0sIxV1yDLYW+Kv6I7wlVzH3aWpSJCXrC+OPojxdfQBvWb+QMuOlCtpYyofrHP/8lRAREB2FGkJyb/nqjTNyY1HM5LPnrr6s5LHkbK2BhDxEIEQ5MzBkZmTKZYwK3PiZLxkDcUDbKA3HLZJLUoUMH9pp5aMuWIiF3ML1B2evEqgxCWfBAQc2BwoU6DdpjYEjxmvzEU+yPepu680pBvF9WWkYbN21m1p0V8jZZQlXN92zHXigoRFhcsJlJCUiVXVGI+qN++BvtQR3RjvasBsEDhXvHs5AB5aHdwOykE08UUgMMrTIooUZgivDt55/Td7Nmuw414joQzx49ujMB+kXCx2Kmx0253KOPPop26d9fcIOCtXr1aurVsycde+wxfB36egX7496kTMYXXwYquW2jDz5Ywso4pr73Hi3gUOWwYfuJr++HhQtpII+FA9mrVlVVLe+vXLkytFBgqz13tGBFQBFQBHZYBJpHvGx4EaQrm/WUKy7KYdKVxou5fHTHA1W0bCXmHyyoAsBJULyi0knYboslVkSGGnlCKy7eEnceL3AqKFmj2h5Nu/DqRKxsBJGKPkRNCebqmlv6Ff1YMVvCiq05njq4YH/JcA/1DEesysITlJWazaTrQ5pXOpOJF0+c7nmXlIlJ+rRTT6Y/nHMWfffdbCEhu+02QLxB/7j53zKRW/Jx1pmn04knTKB58+YLUdqXDeIbN26km/5+MxUWrpfJH2SpKxvex487hgbs0p9at25N5ewZWsIqzptvTQmVhzLPOP1UDl/tSU898yytWPkznXPWmdRrp55s8EulX1b9Sg8/8riQm5P4nrsM6C/EaxMTqZdfeY2+/36+MPfdd9uVrrv2Kpn0n3v+RSEOow8+iMlWNpVyOBThtfenfSgkJDWocqGeY488XOrfpUtnIVXLV6zk+r1Nixb9KNeCfJx04gQ6dPTBNP3Tz+kVvuexTGAOP/xQVo3e5FDgB0za8l2H1qxyhnuNGDGCDth/BIH8WTUOfYz7bmA8X2dVCsQungULlrjhGqs4YjCAlI0+eBR7vwZREZPZd5kkrWI/1sgR+3M9hkn9P/r4YwkrYyUlrgHR7N6tmxA21Gn+/AX0yaefyrkgwVgxCRJ2wMiRnOG4mt7lsKgSrx12NtCGKwKKwG+CQGziFbbBRNpinFUKkS4OL2ZlpUh4ce+90mhtoY/++z8mXT8z6cpm8z6TLmOv8Tbb4xUr1GgjW9HWnaR4vKA6VfvYtN56DBvkR1El59tAqDDa8+RcYYYwYzU2qOQGZ3AmeihZMNVbpSyWTwmaF/KFTdv8Cq2oXEQZqVjN13iSs+jxgUn2nIln0UknTaCvv51FM2d+TROZYIGcgOA88+wLlF/Anh7ukFv+9Xfqy6GmZ597gTq0b09HHDGGiWkJ3fjnv9HadTDTpbDK1Z6uZyIE8rZ69RohWr169WQVqhstXbqcbv7XraxmbRFF6obrrmFVZQjNmjOXOnZsT127dBHPmSc1jUlAKv3IITOY/fv335lKWK0BcQJhg0IDlQ0r7/Zi4nYdhxrRoaWscPXg+1RWIexpVnuAiDz00GM09f1pTM4yJPXFxReeTwczGYHat3TpMlkFuNNOvWg9p3H4Dy8UWMb1BGGB7+34CeNp+vRP6Wf2OR1z1JHUuXMnev6Fl+jue+5nj1SbUGjSzefO6TkbPnw47bnHHqLGYfVhDafoKFy/gaZ/Ml3SSsSTy6shDxsUOuB80oknSF0RIgT5Bak+8ogjaA9WC0EEX3zpZVH8LNEDuYLyNmHccdSO+3Mthy9fefW1UOgXY2bfffehkfvvL/UGmVPi5WYE6DmKgCKgCCSKQOOKV3VNgKMWSF1lokRO/7KEF2uxct4TIl1Quu50KF0gXQiYmVyjSSBeLhUvifpErmrkPF4JeLxSAilUxSRq19y9aFSbo3iLa1atJLYaaT63ihfCktW+airn9P9YEQlDfm5qvoQh8bdVvJzGb8Ng2afkq6Wpm16gjby5pdk6yD3xEgWDdcULzv8D+33G0pdfzqSHHplM//zHXyRNw6zZc+iOO+6myupK2nvIELrqysukM6++9k9y/lFjDxdT9o1/+Zt4vRBWvOC8c3hSP4wWsnJ03/0PstL1E5Mwo0qhzFdfe4Mee/xJ6tihPV15xWX83i6yyGD58hX09jtTpU2nnHyiGL9NaLGYXnvjTdrMShdUqt1331XIwn9uv0vCcfvtty9dc9XlIU/Y51/MoBncjl7sbTr22KPEdA417s9//bsQPpCJCy44l18rpEcfe5KVnM+4Xl3oissvoaFDBtOXM2fSHXfeI6oPfG+HHzZGwqRt27WlSvbALV78E33y2edMUL8J5S9z8zFyMnyQOoQ1QTQ7BkOoJUxgl7NBHe+BIGL4J2Lit/exHsJDR4+mXVh5BK4ffzydvp83T3Ade+QR4uUC0X3xpZdYlawIES8hiNzPJ51wPCuCXQT7Z59/PjQOUXcQLyhe1VC8lHi5GQJ6jiKgCCgCzUCgPvHiBBAy5yM8OHC3NFq2wsfREniFw3s/G9IVqXQJ6fpfJYcXsaqRIyNBpctWrvnEK5xOIpbHy94n5PdyEi+EVIoSCDWiUPiyOmZ0pcPbn8iqFKc3CObYCpMnNtezGR57NmLj6x/L51AFK2P4G4QrJzWXBuUPoz5ZA+Q1S75shZHVHudtri1kxetlzuXFKg/2bIqjWy15u4yVnYM5PPf55zPottv/y2HHiaLuwLd1+x130VdMMi679GIJM37//Tz6Eytc5517Do0/7hgJyWEF5GwmaQhP3XrLzRJefObZ51kZe5E9W+15ci+n8887W7xk8+YtoH/+3y1ClK69+koaPHiQKFv/4fuCICE9waSLL6RxvHJy3bpC+u/d97G/aCGHMKt4NeUxdOVll3B4tFJSWMz48isazsTrKiZeUHbefe99IXXAAMTpogvOp2OOGSuE6a577uOUCgvob3/9Mw0dOoQ++mi6tLUVp1CA9+mwMYfQlZdfKsrd7XfeTT/8sIiuueZyDjWOFqIHL9tTTz/HdTUGdJv4tClzvZNw4ToQK9QVSl4aq3dQvHAg3xbeQ1gWJMjrrZN74IhWtBrqYifpwjkHjxolqhYOeLSmf/KJKIH4oB511FgxyheXFHMY9ZUg8TJ5w5zEq3PnzqIMPs3h4BDZV+IVx6dMT1UEFAFFIBkIxFa8amr8dOSYDPrDaVk0/YtaevjJGv4SjcTWhg1A6crM9LCR3oQXradrOTxduRxe9BmxJjIi99spXnLvCMWLJ8rikvhXNdp9FRFePLbDRGrHmei9snu4c/sfbHqdTjPZFP992VesVvGqP9n0B2nKzLZDmCAPanM0Z7Hfy4QdgykajNeGZcPUHPqpYh59vPkNSpcwY1ArdNnHUEUQervqystpBHt2Ppr+Cf0fhwJHjx4lJATvPcpE5hMOtd10042SM+uRRyfTE088TZMmXSiKCIzm997/PwnHDWVV7K9/uUGIyZo1a8WPhfAVvGgd2TSPFX3rmNiAeG3evIVzh10jJOjzL76ie+69X1QZeM7OPOM0Ov20k9lvtZj+fevtTArKODxWTYcecjCrZJcKkTLEayZ7jYziBS/SY48/wd6rDzndQa6E02AOh9Lm4/r876FH6Fv2sN179x0SdkNY8WdOFJvB5AekpzUrbLsO4IUMTHigeH3M7cEKzjFMyBCGQ14zkC6kUnCuznQJtRDBVgWtaFdW/5ADCwsPLLEKsh2Rh6F8QY1bunyZ+M4wHtzs3xhJulLooIMOlP7C6wsXLgp5tJAgFyoliNduAwbwStYKDp2+wOQYhnyzqhb/QApPPH4C+xs7iY/vuedfCI0/Vbzc9rqepwgoAopAshCITbzq6vy031C20JyTxV/oPTTtk1p69BlOfs3fo5HxJ5NXL15xYRaTrnS2s/jpDla6lq/0c85IKF2xc382X/FaJ/N5dDqJaIJnkUmKud4UxvIeJ0E9lFc2wiQP4mUPTGzwca2qXkbvb3pJ0kjIHo1mBpZrMeFCNcsP5gPL5vAjjPahlAd8AhSvb0qm05zSGYT3Aynuw4y4E7KoF/Cqvr/ceAPtuusuvDrtAyYdd7PfqSf7pq7iVAN9OZHnLJoy5R36y5+vF+P8Hf+9WwjPH84+i05nUz4UqieffJpeZ2P6gRx6uvqqyySMVsuTOwhXCIu6WpnQS4pL6b4H/ichRBCboUMHi6IGzxQUH5jKJ551Bp16yomcEX8p3fqfOyVEiJQHokox8QI5Qz1Rj+FMvK5m4mXTSbz9znuiIqGue+zBqzD/cqNA+vCjj/N9ZtLDD94vahuM7SBkpqt4APLvULZS2V/2GCdihZoGDMYeeZis8PznzbeIMmZ9UG5UKCuxguCaFA37iZ8Mf5scWPUP9C9SW2CRwwJW6L78aqak0gBhauiezhA0yj3owAOF0OL1H35YGCJdJiUGBbE8lP1xTOi5r15+5VUJp9qtfyRRKqcOOe64Y6W+K3nhw1tTpoTarsQrWQ9SLUcRUAQUAbcIxA41pvC8X1ERoH2HptHlF2Rzfk0PffBpLT04mTfUZnJ1Ja9e3GewUbpCnq6Q0mVyVUYfzSde4XQS0fs+N7mqERcUFW2Oe1Wj0CekB2Cy1ZdJ1yGcFsJmn7d5otJ5BeK3JZ/Qt6WfCGmCyhV9SMiMU1Ec1hbkbWBI9RKuwP/B//U2Uvp7NxnzflyBRg5v8SSNrV/+8be/irn8tdfepEcee1yIySWTLmKiM5rVjs20bPlKzm6+L+d6+p5uue1OIT6HcxLQ89nPhXNfePFl+YcUA/+6+W+ScPV/Dz3K6tM0ydRu0iYgNwhnNOPfYRyHQgXP2L6cY+rLr74W4gVsoFSBeJ3G2wDBTxVNvHCNJV5fzOBQYxTxenfqNJZPeUUjG+2xmg8GeZSJ8hcvWUJ33n6r8ZrxykR40KA82bQOwBWkAh4oKHmTOMUGcpyt5AUCIF5Qvsw2Sk0flgyhnIG8J+NhYw51JB0NbjKNpKmSVsQcNt5tByrIJEzr7059n+tV2+gqR5SDuu+zzz6yDyRI1kJO+zD9E7Ma0Zn6AgQTGe6RMgL3/JJJJjLlIwSKA/jCFzb2yCOlf7/9bhZ99dVXIWKmxKvp/tczFAFFQBFILgINm+tBnsor/LTvkDS6jMlXAZOvadNrhISN2Ded1m/00e33I2WEUbowRzdmk2k+8WLFy6W5Xua+yFAjp5MoiT+dhAUbKlcem+SPaz+Rw4KcSMyx1xFI0jclH9MyXo0IEibhyRgHyNvg/P1p97y9hchJmCvo7yqsWUXvsrE+OkeYm87GfF/HYTWY3G+/7d+SGuGll1+VVYzI7TSIV9xdd+2VUpTZaDmNV7a9zgTrFfkb6g3IGcjBO2yKf5TDfDCL//1vf+F0Ep0JpAiqFJK8gnRZFaUr+8CQbBNhNoQIkdwzEeJ1O5v+oUoN228fUbxAGh59bDK9wub9bK4T8mUho/0+rPwgRcMNN94khAKvIay6iMOGt956J0uvhVIXQ7gyJQdYBXus1rMCdNmlfxTihVQXIF5Q3uLZPxHqE/KSIV8W6hS9RVD0wLckzEnAgO8XvIXQt0yMGtqSR0g+E1qEekeO3F/us3ARhxeDpMuGKp3kDuWeyKFihF038irKN956S5Lp4gCWhx9+GHvA+ojyhqSrWBFpSacSLzefMD1HEVAEFIFkItBUOokAk6+AhB0vv8CEHXEUbgjm6WLjfdjTFVvpsrVNCvFyEWqMaa5PNIFquPKgWn46sM1YXuE4mFcuIp+XSSthfWBNmbNRlhFFwsQMxCuDydrnRe9x7i/eAoZ/j/8w2eCRx+qO/9wiagbSJLzKqhc8UphkoV517NhBPFAgT1i9CI8WCAXSOFx2ySTekiaXPmaj+iNMenDAn3XiCePFUD/tg4/ou9mzpepIPDp69CjZZgh5v/DaNVdfTkM41IgVgvfwtkMgDAg1ogysbMTm2/9hcz+SpiLUeOiho9l7BnN9Bf33rnsjQo2o7xzevgi5yEAMsQk1coSBYGAlJVJgIMs66oAyQB5g9EeaCZSXn19A+3Jqi732GiSG/rm8iOBqVtcOP3yMhNr+71+3ST3cEi/0K+o86qADeAXgvhLGdPZ14982zLcRm7wWWL7EKR9qajmxbnBlrLO/0ZbdeP/EQw8ZLW308Y4LK5nc1rHahn6FdwyYIPXD95yDDQqgJWoHHXiAhJzhK0NiVD8TrQHsdevJCVbR1nnz59OnvPLT+gtxX6Os7S3pJLCqcSrn8dLM9fF/AvUKRUARUATcI9BYOomgRYmVr4pKv4QWr7oY+SgDdOs9rHStYKVLkqNibsEdG1+G13ziVX+TbNvOJkON8CgVFyWueInPixOids/qTYe3PVFWHYI0OScxt6A7zdPwhFX6y+ndjc9RibdYNsqOJ3GqwM64V/NEDAP2Lf/+p+zrd///HpKUDtgaCJPzWWJyP0WUsbmcsBTGexwwig/YZRdWt25kD1A7CUX9hdM1YJJHJvgreOUhVtMhOztW6NnNlUEkvps1i+66+wEJnf2NDftQrD7ljbax7RDeBwm64Pxz6Zyzz+BQ2Y/0t3/8S/J1gcRAffozb9BdXlFON//frexd+lyUNxA4mN5BspB1H6QWbUMboLw99Mhjsv+kPU4+6QQ6llc75uZiX0OvrCTESkz4qJDW4k4mdbj3n2+8jo7jlBTIG/YnVsxQj3hCjRjkR409Urxy8JzFm+neuSISqhPIUSzih/444vDDaciQvYRMG5+Y2aIplJIiSN1B4JYtXx4y9o/ilY9IQovzrTJmw5ZLly6lD3gDbGDkNPjjfiM4nIlQZRX3y5vs/1q2bJnu1ej2w6znKQKKgCIQNwIcOfJuobZdrpNNsv2+Yi7B5KvEEZ4v2PNVGaB9eAUjr0OjRT95OS8jrD7mhk1xBRN5YT95amvZJLto/b2ca7ItvxaeQ2NV3Rmx2bC+GaHG5ni8nEDA3zWm7QTxe9UGVyfGjXnwAps09fuyL2VFZCavZjQhzHgSSZjC4PHq27s3Zyg/kjvURx+wcrWEfVAgL5WsZMBwP37csTIpf8wrHr9iLxbCcpiI23KIahy/V8Ahyl84uSiyuSMUBjUEYbUDDxwpEzryaKEfEaZbwEbvr7/5VkgIzj2KU1b07b0TLeEkpu+9N00GDib1Aw7Yn31KwzhxZ6FswAxiJPsyMplDLi+oR++wiR4EAoRp5537ymbZMIKncUgUCo+PySJWMeJ+dm9FtBlkGiRzxPBhvOHzEKkf2gc1CwrbbPaxbWSChU2/YeaHaibZ5N+YIvVwm00eYwfljmODei9exYg6J0K8UGdc984774pHLVa4Ef2x6667Um/26UG9MgnwzJZUZhziN17QkZ4hm5qvWbtGyrEhyv5s/O/Xr58onfhUQsWCgrXoxx+FNEevqsT9kEgX5Bv9Pfd7xowxcqsGJjr29TpFQBFQBHZcBJh41W2mdt1uEOLlrdvCc0O05xir0jk/AkcZazihKgeq+LnvXumy2AbYPw6yBeK1Zd3dlJreXshYY0c94sVZGrLZ8uP0MRviV5+rRHi8mpPHy1TQgODjRnTK6E5HdzhdpkL4nmzqfHehxnDoKY2BLmXWi6Sp5d4yWRGZAOcKsWOEEZHpHVDA8O7MmI4JFv8scbGkw4bBoE7JvpQckoKnyrm6DgoVVufZ10s5UScYAFQp23YoUiB/SOmAe9tOATGDYoX0BvAb2dV4NazmVPE1uD9exxY3WFUpqyiDK/8soTDKD2/SGSzXOShwH4Q0QTKQT8tmvZctmJhYWgKBc2COx/6EubmmHm4PGybcnUOArXgBg9PA77YMZ52xpY8zu3x0GSCm6KumQph2f0znCkmzmtNgjQP420UGoRh81IcF7+Mf3gfmblJeuG23nqcIKAKKgCIQjUAqP+NZ8ep8KbVqfyorXjynsuIVTWbCype5HkpXUyqXvZOdc8BRUtmXXrxhMhVtxIK7Niip0S5xq3hF11f+TkbmemftLAhQvfbl7YOGFBzAKxWrTc6uYCioqcnSngcih3DlZ1vepZ8q5xtTvmNrgHgHqr02tFUM95BdUecMc6FcJ2u17xlCZNQVSyyc79nXcT1IFBii3ZsQ1zmvt6s97Qo8S86cexlGKFesxDjraDE09cdAM+kXQqG2enKsYd22fJtKoal6uCHKzkHsbG/c/ePw9SHxKXZ7j3VYzEzdTKw/8hDJSz59zvo48cPvtu3Ofok1vpx9DDINhbE54zBeXPR8RUARUAR2PATw/OYUEXkjqEP3m/iZ65VoRiwRx/k8dvtstufJPMBzBZzoG3+9iarZR+7hPaGb2hWnHvFyYa63fRhBvLysgJQ0y+MVLBabZvN/UKcO47xePbL6UQ0b7UEOwqQqLME5SY5dxShqESdMRc6umSUfcTZ842WKhwjEM1Abm3DdlNPc693cIxbBbeo1JymKtaowWXi6HezxtHNrlIn7/9Z9FU+b9VxFQBFQBBQBeVIHF9p5mHj9VQiYj7cZTJE8oBBAmocSvrcboYLtJWmtqZJ5xsY1/8dlZ/K/WF/oo77eByuAumzgbAEQCrJzEgg1QsUpTnDLoFgEAAlQkbPr4LbHieG+1l8jpznzbzmJWBBq1sbYLJ2SQYvKZ9OMkvddq2XN6wa9ujkIbA2StDXKbE4b9VpFQBFQBBSB3xYBP/OGjIxe1K7rDZSRsyurYNXMmJArs3n1MPMLFmVxHsuqBbR5za3sIytkn5j73JXCZ4R4NcNcj2X5iWySHav5plEeSXqawQ0b1uoQ2QpIwm/4j4GDgiUqFqgVn+vh+C3+v8pXQfPKZ9KC8u+kaLynk3DzBplerQgoAoqAIqAIbE8IWB4RYPLlYVUqr/XRlMP2pbT0zqJ8QXSKl4DJNQwCuIe3djVVlX1NZUVvsoeM1TTeYcfk4mya1UWGGpujeDU7nURkl1rQ/BybRab6Hpl9aI+8fah1WnvKZiNbpidLyJnPz9vXsA+skjfNXlO9khZxjHVT3XpWvcIpAtwAsT0NKK2rIqAIKAKKgCKgCDSOQIh8sYgjqw9T2whBSsYRYPXM5ytlHoIUVWmuSRfuXc/jlXDm+iSFGp2AOJUqL1JLsKrVJr0dk692kt0e5nns0VjFebq21G3gPF1FkqcL/0yMd+v5upLRcVqGIqAIKAKKgCKgCGw9BCz5MoQH+/42vuLQfU3gOwfXMNkX4hF4IonXWjb9p9bbJLuh8iLN9Uy8SpLg8YpudJg8GYEPWwHhH5KrmsVnWPPo4U2wDeGy2wkp6XI/fPRMRUARUAQUAUWgpSKwNflAImXHq3hFLCyMTCeRHHN9Qx3vbJwx2DvjqMbvJf9DeoSWOnq0XYqAIqAIKAKKgCKwXSPQkMfLpqiyjWsygWoyzfXbNaJaeUVAEVAEFAFFQBFQBBpAwI3i5SrUmKx0EtpTioAioAgoAoqAIqAItFQE3BAvtN2F4rV1Q40ttQO0XYqAIqAIKAKKgCKw4yCgxGvH6WttqSKgCCgCioAioAj8zgg0m3hZKQybJhcnY8ug3xkQvb0ioAgoAoqAIqAIKAJbC4Hkmeu9TLxKtlCnTl0oKzs7tIH01qq4lqsIKAKKgCKgCCgCisD2hkA9xSvGJtlW1IpOVxGZx8vrpZKSIiVe29sI0PoqAoqAIqAIKAKKwG+GQDyhxkaJF/JPFBVtpo4dO6vi9Zt1n95IEVAEFAFFQBFQBLYnBCKJ13reyiilXuZ6tCd6VSP+jlC84PEq2rKZOnfuStk5ObyHYnwp9Lcn0LSuioAioAgoAoqAIqAIJIJABPEqxJZBHlfES8hYZOZ6LxUXF1G7dh0oMytLPV6J9IZeowgoAoqAIqAIKAItGgEn8dqyeRMTrxTKycmrx5vsVkFO5SuSeLG5vqS0iHJz81g2w07dukF1ix452jhFQBFQBBQBRUARiBsBJ/GqrKyg9PS0RhWviC0TnYqXN7hJdn5+AaWlpSvxirsr9AJFQBFQBBQBRUARaOkIOIlXRUU5PC60mgAAIABJREFUc6bUesTL3ZZBfl7VWFxMeXn5Srxa+qjR9ikCioAioAgoAopAQghEE6/UVI+EGu3rttCmtwwKhhqVeCXUD3qRIqAIKAKKgCKgCOwACLhRvABD08QLoUbO46XEawcYNdpERUARUAQUAUVAEUgIgYYUL6TlsmTLXajRhwSqGmpMqBf0IkVAEVAEFAFFQBHYIRBImuLlZeJVqsRrhxg02khFQBFQBBQBRUARSAyB+sQLqxpzYqaTiL5DMJ0E0kZ4yKehxsR6QK9SBBQBRUARUAQUgR0GgaQpXkq8dpgxow1VBBQBRUARUAQUgQQRcOPxQtFqrk8QYL1MEVAEFAFFQBFQBBQBi0AiilfIdB+xZZCmk9BRpQgoAoqAIqAIKAKKQKMIxKN4RWStr7dJthIvHWqKgCKgCCgCioAioAjERbxiZa53F2pU4qVDTRFQBBQBRUARUAQUgZZDvALclBTefDvAcpvzsK9Fvqo9rwgoAoqAIqAIKAKKwLaFQDyhxuiaR6STwCbZpVs7cz2TLrb58z+igJ/TWPj5Z6r5W37n/xrK9rptwa61UQQUAUVAEVAEFIEdEYGGzPWu92q0RMfr5QSqpcnPXA+Vi3eOFHJlGBb/qPZRSmYqBbJSKaWsjohJWCCbf7fki0+HKqYK2I44pLXNioAioAgoAorAtotAs4mX0CEmOb6tsGWQDS2SJ4W1LD5qeR8jr58CA9tQ4NgeRH3yib5cTykfryP6pYIIRIwVMOFpwZCkkq9td/BpzRQBRUARUAQUga2NQHhloCfJt2I+wlwj3khbEkKNlnglb5NsaYhhdBQATiBcdX7y98yllDHdKHBAJ6LcNEqp8YnqRVtqKOXT9UTvrCIqraOUDFbD0ljxgvIVVMziBSbJvaPFKQKKgCKgCCgCisBviABEGLAA7K4TCDBJ8lfzT29SapCSkkae1GwQFSkbP6Ps5w3eJ5E8XrawoMfLEC8vr2osLS2ivLx8SktLT4wFoupBH1cAzItDiFTlI2qTQYEjuhGN6UqUn8FEjEONCCtab1c6/5LBDG1FOdG0NZQyaxMTsFpWwJicoRwQsGC5qoAlZcxpIYqAIqAIKAKKwDaMgLAuPjy8B2IVeTw5lJXTj9LS2xpBRqhSfIdE4UApmGh567ZQVeVi5ik+JmBZICyuS3VDvJxiEX4PXRORQLUZezUaEJiVgiBxWBGopFR7yZ+XTgR1a1QXor55lAIS5uM3EXqEh0u8XDDWC7MS8hVgtYsWFlHKW6x+fb/FSF4IQeInwo+Ctvq/4htuerYioAgoAoqAIrD9IGDX4vl9NZSdP4g6dT+PsnN3o7SM9qFGuFWo7AWhMplzeOs2U2XZbNq45imqKl8k5AuEzE10LXmhxgTyeIU8XHalIjgRk6tAGv+yZ1uicb0o0L9AiGQKG+qxgtEyPydTlXKCjBAkTMKPdfzq/C2U8u6vRD8UG0Us3RMmYEq+tolPUKz4eCIx822iMVoJRUARUAQUgW0GAZ+vivJbj6AeO/+LUtMKWJyq5rolJ9RIlEapqTlUxwRs1U83UEXpLPk7aHBqFAM3ipezgAj1KymKV1C7C7CHi9g4T7u3psDRbJzfow2lpDFZYn+X6GGschmJL+j/impWmHzZcCWfyysf5foP15oQ5PpKIV+UCgJm8oG5kRqbIgJNvb/NjMJtqCLOgWdJM17zeBCL574xwXlX3x62oWZpVRQBRUARUAR+dwTMHJKSkk69d3uQsvJ2Jb+3gv/m6JczbBen5BWe61E++IiXCV0eK18/0C+Lr5CQpiFJjTMLt8SryU2yE8njZWQ7bgC4VftM9nCxcf6QzsabxQqXeLOCJi0hXRJeNI55CTEGuaVton0/FL+1pC6TyVYxp52Yvo5SPlhDVMGMN0jk3IwPC3ZDEqIFUQmYGzTNORYrH4eo62prKT0jg78teKi6qppj8OmUnp7Gg9ikbdNDEVAEFAFFQBFwjQCvyvP5yqhNx2OpW5+beC6B0sWCS3A+cRMObOxe4TnfcBgQvNXL/krFm6bxPMbZFmBCb+RIHvFKII8XqubhEKW/dSYF/rwnpfTgVYuVTIoQLgQxAkpB5SOCVHHYUPCTAtjvBY8Xq2URYFpFC9fjfTbg+9n/lTKHw493LggmYm1a8XISBOQqi9VhHk+qEIXo5GeuB8lWONFJFi3D9zOTae6AS0ZVbd3q6uqoTZs2NGiPPah9hw68KCOVioqK6fvvv6cNGzYwpu4XaTRFjqPrbVW1bQGPZGCqZSgCioAioAhYBFLZg7WJuva+kTp0O5N/Lw2pXc3ByCmuhMmXj8WC1rRh9aO0duXtLCJ04FuwcPRbEC8oFyVxZq4X1arKS4G+BRS4bSgnQ+XfJRN9UNlCxS1FtcZ4+LQWFBG9t5poA7PY7rlEx3SXMiTthKh8QVobTLwawI0gq3EYS1JQXPY1Ez5OT8F/u8nqUcuKTI8e3alnz16E3+0BIlZUVMTtLqHi4pIQ+dpWJnMMDNQX9QSJyWBV6fdW5ez9UadOnTrSuHHjqEuXLqHwIkKNW7ZsobfeeotWrvw5rjqjbJC5pggw+gd4bCv91JwHgV6rCCgCioAiEIUAp4+oq9nE3q6bqX2XU2QFIlSp5hzGCoOcpfgp5ESKC/jqKC2zDROvJ5h4/ZvN+0y8JIzX8BGteCHak5OTx8pcpDgS8q6DE1kfe3M9XhIJBBHi/FyB/xtijO/2cMaYrOcHitXMjZTy0GLyc0oJeLWIvWGeTrya4IZB5O+cIwpaEJVwWVY1gzm/qJYC135LHsbFz/doiniBCIBUjR9/HJ1yysn8exFlZmaFQKiurhaiMG3aB/TNN9/GRRSaMwiauhYdm5aWRn369KGOHTvQmjVraOnSZUI4fu8DJD03N1fw7Nq1K1VV2bi4CUFmZWXRpk2b6Nlnn6Py8nKWbtmr18SBAQti2a1bV24jCKbJqxJ9mNQndbRq1a/8AeK0JBrLbApafV8RUAQUge0MAaN4dev7dyZep5LPywvsyPi7EjkwL6Uy6aquCVDrVilUXmE8XqnMKfycPD4tA4rXZFr3862sfv2mipeXlZ/4tgySXF1MvKhrDgX+MZhXHmLbH6NMRRz8mp8b7UEI8p/zKGVFmaSIkNwQOLWclbLDOc/X+buYUCVUs+gD10It+5Uz3N80x7zrwlyPjiotLaOjjx5Lxx8/gX8vpbKycqqurpKJvnXr1pSdnS2T+eTJT9K8efOZmLFfjY/G1KVY7zV0fvTrTalWeB+kogOH76688nIO57WmN998i955Zyqz6pwQq3ZTPzf3imcw41wQrYEDB9KJJ54gihxes2XgfiBRIF/vvPMOff31N5Sbx8Qc4eJGDnuNJXMoF6TZHvi8+bkMkDj04TPPPCs/3ZC6RD6oeo0ioAgoAorA74QAm+i9tZuoe79/CPHy1nGKKU54msghpIs5RUWFn3p2T6Wr/5hNs+Z56aU3agxVCXCoMQOK12RWvG4JKl7NDzU2NK9GJFD1JZBOQixayEjfgRWrv+5JnlacHDWYpysCIEzGIF5INXH1N6ySGRlPpDewL/47sEsropsHM/GC4hWDeHG5gUye4H/kWO9t88T25ZyYG+oQnFNSUkrHHHMUq17jJGz3yCOP0nffzRJ/0j777ENjxx7BiWPzhHQ9+eRTjsneEAqQIBADHCgPk320x8jImGZFH863hAfnogwrQTq9TM5ycQ6uxz+ci5Bbx44d6dprr2aCmC7E68MPPxbi5SSFtmyU1VD9bF0t5riHraNtSzzkC6Ro5Mj96bDDDhMSZtttywfG+fn59Oknn9IHH35IWdmcnK5x3iV1R7knnXQS7b77blRZWRnC2fYB7gMVECra008/I2Fi/K2HIqAIKAKKQAtCIEnEK0S6KgNMujx07aRs6tEtleYvqqP/3FtFdazz8AzfbOLVWKgxulciiVciHi9Mpj4mJAVsor5uD6JenCQVChhCiM6DiYSsbsQqyH+x4rW0lPzBpKjYUshTzr6egzqT/9LdydOQ4gXilcWK19cbiB7gbLMgZy4ULyfxmjBhvEzuIFdz534vYTuQhEmT/ki77jqAVqxYQQ888KCQHkvqEIrMY8UmKwtbC/D+3vw3FLNskAk+bKwX51uVJj8/j0lDmpQNVQYH1DUn+cI9EK6DMmTJGshGbW0dK27Gy9W5c2e69NJJfE4mvfvuVPr4409CdbZECfVBGSCOtn4gJnjN1s+5eAB1qqmpEQKH9ldUVLgisLY7reI1bNh+rCIeLddHq04gdajPBx98SNOnT5ffm/JtoXzgA8KGujtj5VAjO3XqREceeaSUtXLlSnruuecjlLYW9MjRpigCioAisGMj0GziFQ4lVlT6hWxdd4khXfN+8NLdD1dRGYcb03lrQoQa08XjlVzFCx3YZDqJRMz1drL0cAgwcOlu5B/SjokTFCu5Y3jgBFcmSmLUb9njdc8iWdEY4DxfQtTa8arIq3bn7PYFvKdjAx4vpKDIZvVoyipKeWEFhx35dxdDM5bi9eijj9Hs2XNELWnVqhX98Y8XiZcKKhhImTXBgaSAYEAV69Kls8SEsVrv66+/lnNtiA0/QaTgdzr44IOod+/eQhBAupYtW06ffvoprV+/QUKYIBTAGuXuv//+HE5sL6QEZAnnfPPNN0IKjzrqSNp77324fgViCCwuLhXCtGjRIla/pjBxypZ77sErCvfbb1/q27ePQF5YuIFmzPiS5syZI4QKxGzXXXflMOt42rhxE73wwotihgcJXb++kB57bLIQQDfEyMINgtm9e3c6/fTTBEO0B/dyKnv4/cUXX5T229BtY91llUCnCmgHLlS1I444nA466CAJCb/66mv044+LXZXrYojoKYqAIqAIKALbEgLNJF7Gv0UcOQkw2WKlK0i65i+sY9JVTSWlAZ4/EIkCsUiC4sVcJic7bK53muqjYY3aqxHqTJweL6OpmCSnF+xCAezFiE2ukTg16pCJFZkhOC2EGOzf51WNxbzCsE8+BY7tyaQr34QgnasaHWUEoKzxFkQpk38imsrXgoSJyazxI1rxAnl5660ptHDhIiooyGfyM4L22msvJjW14htasGCBKC4gF0cddZQQILQRPjEcBQWcPZfJ0/vvT2MP07uiZKFMrJq84ILzJTwIolBZWSVKGfxjUNIef/wJMZxjQOy33z50xhmnC9lBGNTHjBvl9OzZg8v9gB5++BEu6zwhZiBkVn0DQVq06Ee65577JHXDqFEHyqpCkJ8VK1ZKOX369ObzU+mVV14Twgeisvfee9PFF18kpBGkbMSI4bTTTjvRkiVL6I47/ltvJYYbggTSd8ghh9ABB4wUAgiSigN1QVu++GKGqF3xhDKdYVgTm4SR3ivk84wzzqB27dqxqX4VPf/8CyF1MZ4QaVNjRd9XBBQBRUAR2AYQaIB4hecIk6mqvofZKl2c7pMVrR7s6QLp6onwIpOuux6qptJyP2VySiuQLiFIfpjrk6N4RQsYTSpeiW6S7UeokAmU/7Q+FOB/nhJOdBpMKRHqPkkLYfJ1ScQxm305iBQGE6nCsCX7OOI9m4qinmLGpA1k69b55JmzmX/nncVdjA8n8TrhhONZOSoWpcSZYR0k66WXXqGZM2dKqAvEadCgPejCCy+QCf777+cJiUAFR48eJUQGTYLP6NtvvxWidv7554r6tG5dIU2d+h798ssvtNtuA2jMmDGiasFk/swzz4k6dNVVV7BC1ZdmzZrFK/+eF3IBRW3w4MGyehFqXM+ePZkc9aJjjz1GQo8zZ34tHjSQviVLfhLF6dJLL5GQ5yfspZoy5W0ZhMfx+YeOOZRXahbRfffdT7/+uloUsT/84WxpF0gRyBFSPfz0009CzqqrYTJ0g2YYcDvgrSIIQmoWMpSKYvfFF19IXeMt197Blg9Su++++zIBHisfFPTD559/LoQ2HpXOxVDRUxQBRUARUAS2BQRiEC9s8WMXWbFOwuQpuCoxSKBQbat0IbwIsnWNJV3s6br7oSpWuvi6oNJlKEaSiBfLa9k5uTHTSUTD2WxzvTQUlWePFu3fiQJ/HCD3kOz0diJHKgmcAzGL46mSWHU1b/2zqpwCnAMspS2vIOzGoS5OKSFJVBGCdJIvm4oCvjG+T8otnDyVryXeTqhpvcuY4a25Hqsay8rKhByAbCBcl5fHShsXtHHjRvFRLVjwg1xz6qmniIF89erVdPfd97HyZBQvhCYvueSP1KtXLyFTDz30sChm55wzUcKLL730sqSmQLm4BmTv8MMPE1XsnnvupZ9//oX+9KcbRN1atmwZvfzyq7R582bxSkE5Qvk4ECJs37493XDDdUKuXnvtdXrvvWlyDxC1Qw4ZTSeffBKtXbuW7r//f5ISA0e7dm3p6quvEg8XDPkgZAcddCCdffbE0ApEqGpQpCoqjBfMrWrkVKTwO9oEYgr/FVaHAkek7li3dh1lsi8NBNdKrk2trowenHZBAMqYOPEsURKhGD711NMh4/228HzQOigCioAioAgkGYEGFC98+c7MSKGDD0inb+fUUeH6AM+PwZAhV0FWLwY9XTDSYxWjKF3s6YLd2pCuKCdUEhWvWHm8GideCZjrTYG8YrGWV/T15JQS13MuLjbae7wgXpCvjNKFlvrh5yrh1ANvrCKayQb5oMIl7Al7Mh7elQLHcMgxuA9jhEeMjfUw43t+Kuas9QvJzwZ8T7SBv4F+jww1jhPz+hNPPMkeqLlCDPqx8oS0CJ1ZccIqOZCYdevW0TVMXvr268OK1iyCJwyEB6CCaOD8Qw89hBWjpUzK7qH9WJGZePZZQqAefvhRJlc/C1kCuevff2c699w/CMF5/vkXRQmaMGGCrKQE0aqrqxVVavnyFeJbAhmD6R33AtmAOgbFCwTKrGrMlrDoGWecJt4zhCJB5hBmBFmBmgWPWfv27djc/pGs4ARJO+usM8TwP3Xq+5LcFIoRzsV93JAi5zm1fH9k+u/KObfatGnLHrEcVtLgX+Ptg7hNWCQAxa2wsFDImZv0HM7usytEUQ7aiFQg+GYyY8YMXmAwXcpzU+ckPwq0OEVAEVAEFIHfAoEYxMvjSeOojZ9OGp9Jp47PogU/1tGd/+PFbuWcO5IJFehGJb/foyvCizmyitGEF5l0sW4SrXTZZvyuocY6TidRVlokSk1aWjxbvWBO5BZja8a/72W8WtXI5YXXAUY4j0DKfT8SfbGeZaPIrONgsbKy8bS+5D+hlxjuRYWRuCQrZkhRkc/XfMj7NP5vCXu9OFTpch/ASHP9ePE8Pf74ZCFeIB9QwEaNOkiUKfiR4P/C5H7zzZw/hBWnTz/9jFWsl0JJVxGuGzfuOCYDRzFhWkV33XUv7T10KJ1+5mm0mgkUzOpQoRDSs4b7SZMuFgM7VCuEBUHixow5hIbydQhtoh6mniVMrj7icNonEcQLJA71ApHKycnicn0SBh0wYBdRxvDPqVrhb9zPhDefZcP/wUy8Thfy98ADD3EocK7c16agaOpz5DS+I1y8yy79aejeQ2UxAdpiwrYm4alVuIArcFgwfwEt5AUBOGx4143ChnuCFKJfsDgAJAxqF5RJm6KjqXrr+4qAIqAIKALbIQINKF5eFnV69/LQJecG1axFXvrvg1Xi50JGpW5d2Eh/qfF0LeD37nqoUkhXBqtk1tMVjUYyiFc6ixpZjhyb9h5NerwSyeMVYoxQrZAG4oL+vEk2J0Kt5hCiyUwm+yz6c9mPNWODrGb0M2mSRKoRrTeqGLFvK3ATk7dO2eHVjVBkIItxmDLliaWUMm0Nl8Gqmou8UHayt6FGm04Cihd8SCA8mNAH7TmIzuZwFiZ0GOYRKrz++mupX79+sjoQKSasqR5kCiG+gw8eJQoVwofwUCEcBvXpwQcfFtUKxAdlDxiwKyteZ4tK8/TTz4qvyxIQkBaQGKyo7N+/v2SoR/kwz8OQDx8XFC+kkwDx+uij6VJnqEioA0KIUNfuu++BUBZ3u9LSkqqKikr2pA2RUCjI4COPPM4rMr9zvZLRki6QIChvMNQP2nNPSmPFsY6ToNj8Zs7uxDXA0hKkH35YyGHS96Tebs32UBZ33rmf5PVCvYEb+mZbyNy/HT7GtMqKgCKgCGw/CDTo8QrISsVePdm/hVAiE6wfFnvp1rsrWUzw0J8uDxMy4+kKr15s6At/MogXFrtlZ0d6vNwlUOUwUQlvpxOv4oWeBDXy8IpE/6A2FPjTIP6dE4jCyyUEi0kTryCgp5aR5+WVFOBQZL2Nv8HPYNLHvo+XcVqKMd3kd9lAG/QNyVeZ2KXcNJcCm3l/R2wd5MrhFfZ4IVwF4mUTqMLADhIDIjBx4pmSiR0kAvmhYGRHqgSkhkB6Bvi4fv31V1ZzPGKCv+iiC5kUdZO0Eg8//Bgb8QdKOBFkC6sdX3/9TS7XJCmFVwyKGkjZ3XffKysLoaTBkwVlCiQF/q7hw4ezD+ssUaLuvfd+mj9/vvjIkLkeihf8Wu+++57cA+WCdJ100olS7pNPPi0EEe0xiVHh9WrD55qcVzDAo40gf6gvSEw8KSRQR5Q7YcI49rMNlvrisAPLqlz2Naty2p+o18KFCxmXNyKui/UUsEQP/YT+Qr/gfkhNgZAsSJgeioAioAgoAi0YgQZXNZo0oRJShHk+6OMC+crJSqE+OzER4xDkfx/klBFlxg/WkNIVEo6S4PFKjUon4VrxQviqrCwx4iXiExvjEQ5EBntRrODzMjlTjV0LKSB+4P2WQMIaOriMwAGdxKifghQV8IlBMYOR/ruN5GHFDLm/JBGrG2d9kBzYLYMwkUOFms/hL/iPQAigOCFRKSZ0kCuoWwj54XWkYIDCAv/VtGnTxCMFEgXfFtSeyZOfEEKB18899xxelbiXJFf96KOPZF9FZGBHugpkyEcaB6RBALm7jJOi1rDX7MsvvxTjfx2TjMFs0B/DvjFgBgVr6dKlEsq77rprxItVWLheyNWGDRt51eNsqTNM/thWCCkWEB7FOTgXShlCmSj/lVdel7QTZ555uhAvKF7xEi+EV/fm0OL48QY/m7PLEqtoZu983YYMgTVI6VdffdVg/i1LuqD6IdcYyC8IokmY+pykyVBvVwt+2GrTFAFFQBGQb/ANbRlk0kUgt2VlFStf7OPCykX4unCESJcLpSuZxKsxxSt6zkrKqkapvChWrHqxtytwBvu0juvBni2jWBmfF/9gc3wAObyQQiLG0AKPwupHyeWFDbSD/jBRzWC+v3cRediUj5QSHhf5u+wtQBIiN8kuFq+TCXnBLG9yUMFQ/+KLL8nmyzCOg1iNHn2weLkQ6jO+NyQ/9Utahrfffkf8WtbLhZQRWDkIlcqEw8wAAYkAMYL3CyoX7n399dfJZtAgLDD04yeULpAykKLnnntB6oTXzzvvXNqTU1uAnGHPRuTxuuWW26R5MJ6fcspJUibuCV+V/R33RS6vKVOmiMfr3HPPlvfuv/9BUers/Zr6lNuUEPBa7bzzzqH8WW5TOdjtfkD6oFjBL4eQY0NpJnA+9tE88sixnEZiH8Hk9ddfl3ar2tVUb+n7ioAioAi0BAQa3yRb0kZA+WLO0aOrh264PEfyc912T7SRvnGFRuYxTqCamp6cTbLjzuPVLI+XMFT+hyz0PTg1xI2DiHKZfCDpKVJDyMpGyXbW9IgA4UKYEmfy9bK1EKef8Px7HgU4OSu8XmLibrokOQP3hkoDxWbYsGHyu1XLIEEWFRULMUIyURAC6yGyGeZhYEdaCXi8UP2yslJRr+DvwrlW7YEnCSsJR44cKfm3oIKhPKg1SN2AkKDdVxAqFQzj/fv3k9AuCB28WIsXLxZDPK7DuSBfuO9o9pN179FDCOGaNWvF72WTlvbq1VMSrXbq1FHuiXogI/3cufMklxhIYp8+fSVsij0fYd53m01euoBDjFi1OHHixJDPzY053tk9dpUiMHj22eeEgDbk1UKbkSgValfXrl0kZxkWCNhluvHe2+Uw0dMUAUVAEVAEthkEPLwx9mbq1vfvskm2z8vRMjL7HpvDKl+cIKGaE6Wy4lVdE6BNm3mFI4ccmwov2mbGJl7t+W2zN3NDhzOqg7RMsRQvyz+iy4hSvLxsRIsvc31EgViFFvRi+c9lk/0R7NNiXxb2YhSa5DY2KJgGzfcga2y4T3l6GdHbqyjAZM5jFs+5PpyeIZCS6Ikbf9vNl6GCWbO4Pc+kfKgL7TdoN2+26ovtAJQB0oBzQSqg8MCbhPdxrnMjaZAZnIt7gXghDQP8XmgYyJFz9R/OsUTMEiuY3G39UA7aZdNDoH64BsQN/6zihHNAHHGtW4M7QDbkL59XUV5Ybw9Ft53gTA+BLZmQjysW8bK5u9AWeOnatWsvnjiQV90M2y3aep4ioAgoAts5AhxqrKvZSD12vpmJ1ylUV7uF50VEkiIPmzK0jq1NCLAhj5db0mVKwup53qsxo63s1bhmxb9538aOooI1l3i5M9cnnMfLVt80guDt6sgbP/99MKtePPHXcfgxVm6uhqmkSaAKtQuZ6peUkuf2H8hfg5WS8ald9haWfCEu3JDo5jSEW7O4BQ5EyK4StCEySxKijeXOhKHR56I+TkM6uChClzgaKteuUrQM31l+tLndEhzpiWBDbdvtuc56u/logsSBJPXr1zeuNCPOssMrI33ilwPJbCyjvc2Xhg8QiChIl3q73PSWnqMIKAKKQEtAAIpXEXXueRl17HE+b2SNBV3GH+4kNNE+43jmiVBYkCNOnrQcKvyFF7+tfozS0tvwXeJTvBI21ye6SXZEFyOaCG7E6SRoNCdEPb+/7OMoYlcwJ1ejypdkuQ+uhsS2Q9Wcz+u/PxAtLmFTPvZmRDm//aCK7szGOtftubHKaKjcpsps6v3mIoby7V6MzS3LqnAN826zf5b9Z4lic++r1ysCioAioAhsJwgwkfD6MO+iAAAgAElEQVT7qyinYDDtNOBuIV1WWIiHXDU1z4iHmbMV+PzV9POPl1B15RL+m3fTaYJn1As1OrYMaipfZWSosZmKl6gswotYusOqA1a+An/YmfyHd6OUClarEJMN5vYyBCrYMqvMiLueX4aZHsoUG+o9j/GG2NhMG5tj43VMyNvJuGkp1UzGII/Gwk2ZznPcnN9S8NZ2KAKKgCKgCIAPgEvUUdedrqd2HG6EAoaUTsk8MLekZbSmjaufoHW//JdDlblcfNN+pnrEK5jHK6SiBSsZK9wYQbz8TLyKSxJLJ+EEQniUkCjZdJECZ/alwBhewYeNLJEiQjLSmytCezLij2BbA0g3gXNfWEH0DpMumOtDpC6ZkGtZioAioAgoAoqAIrDtIWBygAb8dZSa1oq67HQ1tW53mDCBZAS+TBkiE1Hxxvdo3aq72daFcCYM/E2jEU28sPAtKyvnt9skO2YVgyFDkb6Qm+tIVr2O7UWBtpz8EqSqjl/HNkBBBANYqQjChddWllPKKz8TzdkUJF1m2yFdzdb0YNAzFAFFQBFQBBSBloCAmfc9TGbqhCTltRlJrdsfQZlZPfl1Tgcl1MwFS3KAYffMQdStumo5lRR9QmWbP5EzUti8jwwDbrhGQ4qXc5PsmGoXonZ7DdlP8jvghGQpXihP+JT1awEe3hA7pSuzwUO6EPUrIOqSzfs1chwVhAv7MhbxirvVFZQyZzOlzNxIgTJOG6FKV0v47GgbFAFFQBFQBBSBhBCw5AuEKOCvCVqU4iNbDd/YpLhKSc1k+mb2G3ZDuoTjBC1SOB/pJLBTTU5Onqu0R8lNJxHVugjyxTgFeHWjGO1bZ1CA/4FYYesfrIJMQdqJLTWUwklXA1jJiNcFE1W6EhqtepEioAgoAoqAItACEAjzgGQRrmhQkBMsPq7hRvGyolb03aLM9ZzHq6QZebwa6WBplGSxZzIFooXtheDpkpT2HErE3ousfslPWMPiBKEFjC1tgiKgCCgCioAioAhsBwgkj3h5eZPs0uab6xvELBR6DKaccJwo5nlwMKPhxZdsdTvoJK2iIqAIKAKKgCKgCLQMBNwQL1cJVJGnqbQ5metbBp7aCkVAEVAEFAFFQBFQBBrRkcz2h9bjlfCWQck012t/KQKKgCKgCCgCioAi0BIRcGOud+5q48Qgyly/lUONLRF9bZMioAgoAoqAIqAI7FAIuAk1WkUsGpgI4lXn81LZVjLX71A9oo1VBBQBRUARUAQUgRaLQNKIl4YaW+wY0YYpAoqAIqAIKAKKQJIQSBrxSsom2UlqlBajCCgCioAioAgoAorAtoiAm70aXa1qrOO9GsuSsFfjtgiS1kkRUAQUAUVAEVAEFIFkINCUud7eo8lNsr3s8SpVj1cy+kTLUAQUAUVAEVAEFIEWioCGGltox2qzFAFFQBFQBBQBRWDbQyBpxMvLocZSDTVuez2sNVIEFAFFQBFQBBSBbQaBhkKN9nVbUY8Hm2+bZKs4EHrcqptkbzMIaUUUAUVAEVAEFAFFQBFIEgJJU7x0VWOSekSLUQQUAUVAEVAEFIEWi0B9xSuVcnJyye/3i6rlVLiiQYhQvLy8SXbp1twku8V2gTZMEVAEFAFFQBFQBHYUBNwoXu7SSfAm2WW6SfaOMm60nYqAIqAIKAKKgCKQAALRxCs9PY2ysnLiV7w01JgA+nqJIqAIKAKKgCKgCOxQCCRN8dJQ4w41brSxioAioAgoAoqAIpAAAm4SqCLUiPOiQ466qjEBwPUSRUARUAQUAUVAEdhxEXCjeAGdJjPX+/xeKikupry8fEpLS4/J1HZcmLXlioAioAgoAoqAIqAIUCg3F4hVRUU5paaaVY3RObuAVbTqFaV4+ahEVzXqmFIEFAFFQBFQBBQBRaBBBOqFGtM8lJOdp+Z6HTOKgCKgCCgCioAioAgkGwE3Hi8barReL1uHyDxeukl2svtGy1MEFAFFQBFQBBSBFoZAQx6vWKHG6KZrqLGFDQZtjiKgCCgCioAioAhsXQTcEC+reCnx2rp9oaUrAoqAIqAIKAKKQAtHwO2qxljkK1Lx4lBjScnWXdWIPbpTOK9FILSXEfY04jwXwdfCOxy18F7T5ikCioAioAgoAorAdomAW+Jl00k4fV4pg4cO4+tNgi8f79W4tVY1gnDxmkoSmiWkK4VSOH0FBfxEnjR+zcOvMCHjc+Tgc5SEbZfjUSutCCgCioAioAi0aATcmOtd7dXo8zPxKi5Kah6vII0SRQtkyipe5Ksjf3Yr8mfkUmrlFkqpq6JAWqbhXEGSBoKm5KtFj11tnCKgCCgCioAisN0hEK/i5WzgVs1cLyQrRKI8om5B5QqwwlXbsT/VdNmD/FkFlFayljILF1Ja0SpRxSg1zRAwR0hSCdh2Ny61woqAIqAIKAKKQFIQsJE5j4e5RBIPv9+fULL45ClePla8SpqveIVUraDCJRixwkUcTvS26UXVXQaSt6CLEKsUfx0FUlnpCviYgK2mrFWzKa18A5MzBpcJWohwqQcsiUNNi1IEFAFFQBFQBLZ9BCzhQtjO6/VSbW2t/Gz+kcI79KRSZmamZJ3HfWLtq9jQfeoTL5O5HkTO6euKULrs3o17DdlPooHi8UoC8Yo0zzNtYoUrhZUuX14Hquo2mLxtd4KTizwc1jSyFp8DnxdTLL8nnVK81ZSxaRllblhMqRWbmYCl8lv8Tw34zR9nWoIioAgoAoqAIrCdIGCJEAJhtbU11L59e9pll/7y00l84mmOLRMEafPmzbRgwUIqKysVAoYj6Ipqssj6ocY0ys7OqUe8mtwkGyyytDT+VY3WxyXmeVG5QKZ8lMKrJH25bSWkWNe2N/nTs8jjrTVkC6fAYA+WiZ/i/jK/w+vlqSqhzPULKWPDT5RSW8HcK0NM+WLOdyCjIcgmx4eeoAgoAoqAIqAIbJcIYL6HKLTffvvSEUccTm3atKGsLJCk5s3+ARZ8ampqaePGjfT++9No9uw5rIDB5hQySTWKV/LyeCWgeEWGFY16lcJhxUBmLtV0YB9X593Jn5kn3q4UZpjEIUTnNaGW2VAiSBWXAR8Ywo2plUXs/1rEBGyJqGcIP8qKR6dZf7scTttXpWOx9nhk2e2rtVpbRUARUAQUgd8TATu/VFdX0wEH7E+nnXaaELBke7wsgXrmmWfp66+/FVLnZm5ryOPlzFwP/GKtbExK5vrQykVfLZOldKrtsAvVdB1IvqxWTJBY+QqGEkWxilC4Irs1mGwiTKyggAVTTaQXs/9r7TxKLS1kAsZhShjwgwrb7zk4nPd2dpabjttW6t1YPZztsOFonG9j4vi9pbR1e+gPraMioAgoAjsKAiBa+fkFdNVVl1Pr1q0ljPfFFzNozpy5PO/AopTYYeYsDw0fPoyGDdtPyNHmzVvovvvuZ597icxvTR3JW9WYoOIlQVE+YJiv6TqI6lp3Z3ULhAs+Lg4dWoUKk3TE72ygF48XEqgaEGOey+/7mWgh0Ji+ZSVlrfmePBVbRBEzGcESP5Kh5DhXW1iDXrLIiNNYGK/5L3FUzJXONtTV8eIIPvLz8+X18vJy+Ts9Pb25t9HrFQFFQBFQBBSBCARAhioqKumQQ0bTCSdMkPc+/fRzeumllyQkGK0sxQsfygeRO+WUk1lRGynlvfjiS0LscnJymizfTajRXR6vBIgX6JKHQ4C+zAIqHzSO/GkOH1cDREoSqLJhHrm7JL1EarrJ4YXVAAhE2qz2oZWMCD8aIhBI5xUI5Rspf8FbIaKW6OLSxshRvMQJ/jhLTrKysozXrZmKnPN6lA8Wnoxy4xmgqAPatfPO/Wjo0KHUrl07GaylpaX01Vdf0cqVP4fIV0ODzHk/J5F0U4/fmmy6qZOeowgoAoqAIrB1EUBIEerTGWecLuQLIcdbb/0PrV+/njIyMpp9c8xXKHOnnXqxonalmOvfe+99JnYvU6tWnGMU1qhGjkQUr9D87cxcn4i5XrQuNsz78jtS2aAJbJ6vkZWI1gQvapSTSOGdlABlFC6W3F2e2nL2gLWi6u57UV37vhJGrH+NKQMeMSFt7CErmPuSrIy0qlcivWCBcy7/xO+W4LgtE+VABu3WrZssT12y5CeqrKx0JVc2dQ+UjTp16NCBB2EpmwGrQ2zfDdFpqvym3seYGDJkMB122GEy2O1gBEYVFRX05ptv0dKlS4V8uSWalsw19Y0F7UO5v0U7m8JB31cEFAFFQBH47RDAcx/E6+yzJ9Lo0QfLfHPLLbeJGR6KV3PmBTtXITVF9+7d6frrr+X5LZNN9u/TCy+8KMSrqfkpmnilpnpYKcuLWNVo6E9kTA5/N9vjJUZ5JkLenLZUPvC4yK1+nDcM5sgIcMgwa+18yv75K/GDCUlDji/2clXsegTV5XcRBQ0m/IhDvGG4GYcXmazlz3stZLBvTqgRas6BBx4gKybw+8aNm5jxviLxYwEoCrRYww5x6PHjjxNysnbtOrr//gdkmSqISlOd1xSjRtkHHzxKGP/PP/9Cr7zyqgxGs/pi6x2oN+4NwnfWWWfKtwGQMGtsBAFD+4qLi+mJyU9QFX9zcGN6tNcNGTKEz4cqGOblpjVm706UhQ/a/PkL6g3krddqLVkRUAQUAUVgW0DAKl6Yf0C8qqqqhHglU/GqqalxEK+MpCpejXGHCOLl5Ym2NM4EqkK8EGrMak1lA48RMuWR/RejiJOoVchez2a5BW+Sp7rU5OgKzrwebx3VsuJVucuhTMSQciJGABHki69JLd9EeQvfNkb9oM8r3oFiQ1ggFFdccZmAD2KB1++440769dfVrv1LIBMnn3wix4kPoOXLV9LkyZOpqKio2eTIqm9XXHE59emzkySOe+CBh2jRokWcLyS7WaTODV643/77j6BDDz1U7o0PgpNI4ncQwHfeeYfNjt8zOWta/gWZQ/z83HP/IGFL/B09QO3KlU2bNtETTzwpcrAbs6ObNuk5ioAioAgoAts+ApZ4TZx4lhAvRJFAvDZs2OB6bm6slZh3nMTLhhrh89paoUZbn0jFKwGPl6hQfF2AU0aU73YUhw1zQkpURKMRMuOGeljdyp/7stkgWwQOSejFIcY6Dld2ovI9xjPxqg4mTY2CTdJMpHOG+zWU9+P7JuwYzO2VyDACmRg4cHc677zzmHQZ8zhCW59++hm9+uprQhCcYUi87wynWcLg55DnCSccTwcddJB4nh5/fHJI8bL1csqSNs7r9C85yYfzdZBBkJ8jjzxCQpioFwYLBqW9JrJsw2Wb642y8e+jjhpLe++9dyhTcLjNRhEEIZo+fboYEt2QQeAJsoZyEZpF+5ztQLtyc3OlH6AaPv30M6H2JtLHeo0ioAgoAorA9ofA9ka8zNyVV08Qcc7tIY8XMteHJlNOeFpcEl8CVaN4+dlUn0kVAw6TDPVInBpb8TJEKXfJh7w68Wcx4tvDU1ctKyIr+4xgnxhCj7EVLz+HJDM3LaXsZZ8ZVSwB4gVSYkNZZ555Bo0cOYLlyw1MsgLUuXMnWrVqFT344MMibTrDZ9Fmd7ttAfA79dSTOSR4MK1YsZIee+xxUbxwLcKX+Gn9UUjYBqLmYeUOChHeAxnBeVB6cOBcq/BYP5Q9D6/jn70G97YhzVhluPVdxfpYGsVrfwlz2nZEK16oy9SpU2V5bzyGx+gwrvn2UU0DBgyg448/Xtr45Zdf0kcffZyUbzfb32NHa6wIKAKKwI6LwPZKvBrbMsj2ZnIUr2C4sHLn0VTbZicmYjXs1AmmighLPiLF+HkFY1rZesr96UPy1JSH0kf48jtTBV/v58SrNjlqxJATjxc20M6gzF/nUPavs7gsmPhNNvt4DxCJjh070cUXX0BdunShKVOmCPE65pijObRVI0rL7NmzQ8tKLYEBOfL5/NSjRzfq3bu3KDaIOWM56rBhw8SHBeIFAyAUnR49uospfvHixVLWnnsOku0ONm3aTHPnzhVyB6VowIBdmPR1FkK1YMECKixcL4QDf3fv3o06deoknicQO4TekL23d2+EH+sk9IgD6l3nzl2EwM2bN08kWUvK3HjVnBiivWgbPF7nnXducEspv/iyUBbugfpB/kV7kV7CqcI11B8Wx1jeN5R54okn0G677SarJp9//nlat64wLkIX7zjQ8xUBRUARUAS2PQS2N+KFhXXZ2ZF7NQLVkMrl8ItHerxYiSktjm+TbNllEQZpDiFW9hlJ1V33oFRWr2IpVqHJVnxaGyUbvYe3A4JKVttxAG8plGO2GjK1rT8SuH7Ydihn+eeUuW4hp6HANkJ8qzjHDIAAiQFZwlJVhO7uvvseUaEuv/xSnujTOVXC15LTwypeuAZEBHmsjjvuWNpjj4Gc4TZLwma4HuoQMt4WFhbSo48+TmvWrGOz/aESgsRrr732Bh199Fj2avUJqUc//PCDbFWAsBvIhl0xCMIExQ2hNtwf90Oocfny5Vz2Y6LOwZx+9tlnyX2RcRdhzt13N2WgrmvXrmVCNJkJ3qZmec1Q/vDhw7ktY0RCtaqcJYVvvPGmEEW3aldDChyIcNeuXejMM88UXBcvXkIvv4x8Le5XS8Y5DPR0RUARUAQUgW0UgZZEvKIhjlrV6KWSOPdqNDsssteHc3JV9RhKVb2G80bXnJ8rGAaUGwbzcQmfCqpjfiZNBHN98JAthbCPI05H+DCYlNUmWJXXpQAP+7umUmrxGiLk/jI7Q7o+nEoLVkvsu+8+4p16+OFHJQR48cUXUd++vUWluv32O+UnmCyuA6k588zThYhAdVqzZi2ToEJRsLp27SrnFRZuEOK1bt0aGjPmMFntCGJmE75BEevUqaP4mHCAcEDxAqlCht7WrVuJMvb662/QBx98JGUee+wxskcVznn88cdZydokKR4QJoUC5fX6pIylS5dR27ZthBzi72nTPqC33primhRZEE0XYad2w9bRbqhp8HrBEG+J3ddffyN1cmaxT0RZwzUgeOPHj2NFcE9R8V588UX2y63UMKPrka0nKgKKgCLQchDY3oiXTScRHc2JNSc2O9QY5FWyErGubS+q3PmQMHGyPq1gKghJFACyxepYOhOntIoNkgMskJlPvpx2VNeqi0kXARO9JV9ivjcJVP3Yu5EVslw21nuqiyUFRTykyw5JkJ2ePXvSpZdOEnXlww8/EqKDjgbJGTPmUCFar7/+phjHQZIQEoRaNWnSxUIGZs+ey0b3V4U4gXicdNIJNGLECAk1ghwhrQTKGTeOU2zwgddffvkVJmtrZPXjhAnj5HWkY3j11dclFNm3bx+aOHGikK9vvvmGQ20vCulBGZZ4mTDmJho8eC8hXiB0UMZguv/pp6XUr19fLuMsKigooG+//Zaee+6FhPKSWQ+WTQyLdubl5Qo5BDYIBVZweDGT8QMelnwl4ikD6QJxPe20U/keeUyEl0jaDDtg4yVzLefRoy1RBBQBRWDHRGB7JV7RC/JcEC9WvBIw18N7JQb7rALOxTWWfBk5JqWEJU34iXQSnMMLIcbsX76RPRdlmyB7Do+t2nZ9qKr3CM5Onx1+LzjmZF8mTwavaFzN/rCPZFUkVknG4/Gypnr4ko4++igaO/ZICTk+8MCDnD7iV7lTjx49hFyBAIAMPfTQI0LIQA4QbkPYD2QJr//yyypWlrKEfIF4WXP9ZM5rhVDfmDFjRPFCeA6KGrxYIEo9e/agCy+8QMgRCAYM5CCAULomTfoj9erVkzfr/FpIk8kRNi6CeG3YsFEUr9NPP53vn8nq0Mv0ySefCkFEJ1955eXi/8JKwxdeMNsruD0sRiBcxuPVnuuzk/jPsBgAShoUNj/jX1FeSWuYYP7yy8+CCe5jjf/xkCVgi1xqo0aNkvpPmfK2+OuArRU+3dZfz1MEFAFFQBHY/hHY3ohXLI9XQ/NgsxOoiuIl/wdJykvlux9DPt6zEb9br5aQJmwRxFntcxe/T2ml68TPZdQqWRcp/w+/V22XgewVO4BfxvZBeMsqXhzq4+2CJPnq8i+YnJkVkfEqXiAWUGgmTZrEBKi7mMPLyspMaDRYH4TqQCJACKAwIYQHQoE9nUaO3F/UrHvuuZfDjSakCoYL4nXggQcGFa/JQrwsUQN5AlFDWA4HiNf5558nuULgI/vqq5lSPkjNpEkXCdGZOXMmPfvs86IuRStelnidccYZTIbSRRn75ptvpV0YrMhLhjJmzPhC3nO7n6IlXVh5WVCQJ4sFBg4cKITOerhs3i2b/BRhVKiB8Kt9/vkXEla1KzibIl825UVOTjb71c6WMCYUweeff0HK1Nxd2//DU1ugCCgCikAiCLQE4mUoTH2WkpRQIwqXPRs5DUTVTvuxwX5PydclBnuTVIpTR/BqxPU/sjH+M/6dFS2hWmZzbXOEK4d8YN7cdlxGMC2F3SqIz4KxPmPjUl7RyKkY4mRd1lQPrxKM6SARIFjODPM4BwoWyAdCa++8M1UShIIEnH76aRxOHE6rV69hM/69TMx49SafD2J5/PET6ileIF4gTZZ4YWsdnA/idcEF54vihX2hZsz4Uso3itfFEgZFqBHEK1aoMUy8ThdDP8jVzJlfSzss8cL+UygX78WjeIFs9urVS9RAqFzAAnXAis9Y6x3QHtwT5A45zN59910JfTZ1TxuShFcOhBUJ8vAafGkgnTYnWFPkLZEPtF6jCCgCioAisG0jsL0Rr+gtg6xdJ9YK/iQrXpxqgVcolg88VkKLZltGCUSKtyt3Ba9GXD1XNsQ2xCvysNsPVfYbRdXdmLwhnxeIDSgaK0updZWUx1nvoZwZFhB/KgkQiQkTxnM29tGca6uEw3Ff0JYtW0JEAeG1tm3bSugLRAipIu655z5RxU488XghV9iyB+HJNWuQ3T5DyMk550wMpZNAAlWreDmJ17Jly6TBlnhZxQsECUTFKF4XC/FBqLFp4nUGE6+MBogXFK8ZromXXTwAte/UU08R0hW936RdFmtZvHNAgZzl5OQy+Vohe13ZxKiNESdcA8KGlaVIvQFcn3zySfaPlblKTbFtPza0doqAIqAIKAKJIrC9Ea+EQ42YCIuLt7DSg1BbfMv4RfFCugdWorDnopcJmChWQpzM/nsZRb+Qp3KLSXwaM0ho1DEvhyrxL+QBE39YOqef4FxYK75gk73xLMWTRsKmQsBm1kgZgfxUCxb8wCHAhyOy09tw20XswdqN0zNArUK4EWb6gw46QEgCiNasWbPojTfeklWHI0eOFMUGJOL/27sOcKmqa725hVvpVaQGFQuigAqWGMEWsBsRjYLd5CVqojGa5KV8X17yYidqYmxREX32EqMRMIio2GuUaCyAiBSl3N7v8Na/9qyZPeeeM3Om3OsAayK5986cs8/e/97n7H/W+tdaIGqIatzaiBfwhLULqS3222+/0K4+Ny8XokJLS8s4RQasVijBEPQCIWtoaOS0HNCwwVq3dOlLFOhAyXUJR30pAoqAIqAIbL8IbG3Eq7iY6lCXdqx206muRqvzon8U3dg8dLxpGjGZIhatZUouDPJk6zMmWUywkhFh48LZ7MaLuiSJrFV8sMAUk7h+C4gXC+vDv9AHuLVQDBsuQ7QLF+L8+Qs5/YLk0MJkw7oFNyEiHHEe8lRBHA8NkpA2tAVBOT5HAlb8DgsZcnYhf9batTaqEWJ8EdeLxgtJVUXjBVcjCAcsXhDY/+AH0HhZi5dENaKNI488IppO4o5YVCPE9bB4QUCP1A4gL+gP+jhypLV4QXifyu0HFKUuJPqF5KxuKZ+wKKMNkK1VFHQwd+7dpogWYtDLWruKqMblTA4EqK6upXHYhKlow888G7YfepwioAgoAorA1o2AEK+ttUg20A8lro9QtFpVTXoJVN2p5WSqZPXYQsJ5rttIUY78N3sFkZuLjmAilYwyIXkUFWMWYsXliCiakQT5lUS8INpHYex0rF3SR5CJiy66kKwse5CbsYqKYV/H2d1dYiIut16kv/rZzy4zlUTKEN04b969rF1CotMZJKQfTJnk4dPFcBYufIYtRCgbhMzyN910M4vEoZNCJvZ2IpLXX/8nSvfwEXcF+qsLLvghpY3ozclPURsSfQBxsxGJo7hczh133MWECG0gChMasZtu+gsnUN13333IvXkWRzWC5LzwwlImLFisl112Kae+WLLkOXLdzQtlQZIIRiQwhcvTGxIb5hYW1yGy8t977z1EYOsCBfK4HrLxI2ABhBYlh5DSA8lrM0lJEaZ/eowioAgoAorA1oEASAvSFgnxgofkiitskWzsl7nQ/8LLM3ToUN4zYfh4+un5nEOyZ89eKb/8i3HAasfrTBEC5Ehuk346CSI11WS5ycTVKJGNIEwFZOlqGopkqpOsHgtaLOFafgpt7zqI5hAQwxj0XeWfPGdKIKp39GHpWLxkM4d1CpaW1tY2tkq54Ek3+Fj64xujR7P7DXUXQaykPiIsQiA2mCgkUP300+X8O3JRQXCPPFs4DxquPn16MznDYkHEH16wTMHVCTflxo2bolGVVqSO5Krdu5dwCR4QPbxA0JDbC6WMUIoIpAUkDYQF5+A4KdmD40FoQMLq6mq5/TALFG1C13XyyTP43EyIF3DDDQHr34MPPkg/qwOJF45FQAEiJnv16sn9B2ELY53bOh4b2ktFQBFQBBSBTBGwFq8qzm0JKU9DQz0Rr6s7GEsybR/7ouSQvPzyyzhd0j/+MZ/3Luzd4gULaj8M8Qq0eI2fOJnOR8Qa1d8ji1d1FhYvdDDCpIUE9YW08ZPVq728N2u9YKVKiyiBrkWtXcUbV1DurkUxoX1BGPLmgxbGCaBlvOKaCwJWjpXC1BKlIDmuRGwuRAXHS4QfPkO+qzYKEMDvkuqBMYoWxZbUFt6C2OL2E62TXM9tG+5LvB+2jVSLE9eEtalvX0vmMrE6yTnoFwgfNF/JSJ/o7mS8koQ1DFFMNR79XBFQBBQBRWDrRQD7QF1dPbZLK9gAACAASURBVHmOjiTJznG8J/3970+SROipWNR7NqMT+REyEqC8HwwkDz30iFm06FnOaJBK7tKBePnUagzlagRRqMmCeMUsVIQGIhJbew819WMOZ9chFZ5hkX2MfPmRp2iGe4CJaMgIEq421VDurwWmoLGGyByKYttXOiQOxwspcIHAe34Ew3usAOwe622H+xQdk9uu9z05Ltv3hQTK2Pz6FjS+ZAxeajFms6BxLkhUKtIlnwuBzYTsZdtPPV8RUAQUAUUgPxGwNXyHcJUZm7y7jaQ9C6kqy+uxknaZ9hxSoYkTJ7J+Gp4WRNXPmXM9/wyTQzIM8XJ5gexz/N7eEybZEoiweGXhanQHzxs+XI4kkG8aMs66HFG8mQpgI7cXEzDQSyFf4lpkHRgiG4mkFRTTOa2m/COKctu8mnVeBe45maId4jwvAXD/TkbUQjSdt4d0BukJ02YqbPMWMO2YIqAIKAKKQKchIHsDJDogR0gDhd+lkkwuLgyvEq4D7xcC3RYtWhytmGK9gMle6RIvt62c5PFKIF0gcXA1RlNIdCOG2rzDHqZx+H6Uv4vIEwph25T0PmOK5vyi6MeC5jpOHVG86TOr60Ime05Nkb61KxcTpG0oAoqAIqAIKAKKQNciACkKyBZ0XlOmHMK6YBCmVMQoVS9BnGBRQ9lA1GtGkJv1JAXxk8QWvcTLJkFPLa7na7gWrzbSDdVUZx7VKN2KlRCKEiWI7Vt7jzBNwyaY9h6DogWwJcIxSqVwbLSsUDHl+ypd/Ra5FzeTz4pSJIBuUWgkoiPTdTGmAl8/VwQUAUVAEVAEFIH8Q0CsXqKLHjJkBzN+/HiuIWy1yHHHWdjeRx1sTLCQvuj995dxrWbRfIfx1OBaXuKF/lRUVHbQhrkEUdyNCcQrQtapqprMohp9Bx11OTJdovxeIFGtfUdwctT28n4mUkICNsrrBZckLFwFtespyeoqU1S7zlrM6DMmWpZ3KekKu7L0OEVAEVAEFAFFYBtAwNVcIxtBa2sL58bMxQtWKljPxOUYlnT5Ea+MM9djMNU5sHhFuRLjwpotcCcI7JHHi3RbplsRC+XjGexRYJtcifgMZI1cjXJuVICmpCsXq0zbUAQUAUVAEVAEtjIEXOsSLEu5ekkAmhCpdNyXHV2NlPaqvNI3j5eX0CVavIh4VeWIeAkwEunINRvZeWrLB1lCllgk2/t5LIlqrlDWdhQBRUARUAQUAUVAEcgSgSBxvft+kAXNI66nBKq5dDU6A2MlV4x8JR+xHKd6rixXhp6uCCgCioAioAgoAjlHIExUY7g8XpROoibDzPU5H5U2qAgoAoqAIqAIKAKKQB4ikI6r0dv9RFcjZRqvqso+qjEPMdIuKQKKgCKgCCgCioAikBMEwli8cKFYJKOTFyzR1ZhDcX1ORqaNKAKKgCKgCCgCioAikGcIpNJ4Ceny67YSrzybTO2OIqAIKAKKgCKgCOQ3AulYvLwj8ZQMonQS6mrM79nW3ikCioAioAgoAorA14pAGI2XV1zvm0C1nRKodlZU49eKkF5cEVAEFAFFQBFQBBSBHCGQO4uXarxyNCXajCKgCCgCioAioAhsqwikQ7ySJlDNZeb6bRVsHZcioAgoAoqAIqAIbN8IdCBeVI2nzFMkO1wer1Yqkl2r6SS27+Wko1cEFAFFQBFQBBSBZAikY/HytuPJXE/i+holXrrcFAFFQBFQBBQBRUARCEJAiZeuDUVAEVAEFAFFQBFQBLoIgZwRrzYS19fkuEh2F2Ggl1EEFAFFQBFQBBQBRaBLEOiQTqKowJSXVZpIJMLZ6t1Xh7/3njAJ9av5wEh7m6mqrjKVlT1MUVGxCaqs3SWj0osoAoqAIqAIKAKKgCKQhwiEyVwv3MrbfdV45eGEapcUAUVAEVAEFAFFIH8RCONqDBXV2N6m4vr8nWbtmSKgCCgCioAioAjkAwK5I17kaqxWV2M+zKn2QRFQBBQBRUARUATyFIEwGq9wJYM0c32eTrF2SxFQBBQBRUARUATyBYEwFi/0FeRLCFjsnARxPanxq6o2qbg+X2ZW+6EIKAKKgCKgCCgCeYdAUOZ6eV867KfzShDXt5GrsUZdjXk3wdohRUARUAQUAUVAEcgfBMJYvEKJ6yPkaqzSPF75M7PaE0VAEVAEFAFFQBHIOwTCEC9xNXo7n2DxUuKVd3OrHVIEFAFFQBFQBBSBPEMgLPHyI1+ePF4U1VijCVTzbH61O4qAIqAIKAKKgCKQRwiEIV6uqxG/+4rr29uUeOXRvGpXFAFFQBFQBBQBRSAPEeiQTqKQSgaVdywZlFJc3zWuxi3E+hBeucUUUDkjlDSKUNGiSMS+R+/kIcTaJUVAEVAEFAFFQBFQBCwCYUoGhRLXd27mehCuaE4Lg1+MaWgqME0tBaayrN2UdN9C5EsGZAmZkjBd4oqAIqAIKAKKgCKQbwik62pkRhN1N3aBuJ5rcLOVq6BgC9uzmlu7mbb2bmby7vVmp6FN5sV/9TAfry4xFWURU1xkCZhYxZR85dty0/4oAoqAIqAIKALbNwJBrsagPF7BGq+clgyKW7gwPQXkRmxpM2zhGjGoxZwxbaM5ev8q06dHu1m+psQ8sbS3efi5Pmb9pmIiYO1E0iz5wiDU+rV9L3AdvSKgCCgCisD2i4DlAVaG5GaCzxYRtCtEyb1GmHbDWLyknQ6lg9zM9e05KxmUqONqJwtWfWOBGdyv1cw4pMocd9Bms+OAVtPYXGBa27qZsu4R0714i1m+tsTc/LcB5p9v9DBNZBUrL7E6sAgTMACuGrAwC0KPUQQUAUVAEVAEtgUEXELU2tpq2traiQ9EdUlZDrCALDxFRUX8D690yFcY4hVzLUbLBvlHNWZl8RKXojBS+pv+q2/qxi7EKXvXmfOO/crsMrTZEi5yNbrieuBYSgQMrbzzSbm5Z2Ff89zbPdglCQ0YyBfcjnELGHPfLGHX0xUBRUARUAQUAUUgHxEQIhQh/REMQzvvvLMZN25PM3jwIDbGWAtYej23RhxD7UXMl19+aV5//Q2zatUqJl8gYmHJVxjiZfvXsYOePF7tlMdrcwa1Gq0lCgOCjgvsqbHFXmzK+Dpz1rQNZtzoBnq7G5Muirpk65UFDsdZdyIiG/EqL203DXTcojd7mvsX9TXvfFzGFrES+odTbAQkjlQLWHpLTo9WBBQBRUARUAS2HgRAukCKpk+fZr75zYNM9+7F9HexL6FJZ1QgTm2UQqupqck8//zz5umnFxC3iBCHsUaeVK9M0knE3KVwNcofbcQoa9IuGeS4FYlQNTV3M3At7jW60Zx62CZz2MRaU1wcofcLmSaBdIEwWfF8fGjiSsT7SC+BsUPrVVVXaBa+3tPc+sQAs/rLYo5+BAHDNQCOuh9TLY/sP0/2DSDst4Pse6EtKAKKgCKgCGwvCMjeAmJ03HHHmKOPPto0Njby8OVntliUl5ezAai0tMQ8/vjfmHyVlHQPZfUKY/EKmU4i/QSqccIEt2KBGT6wxZw1faM55oAqslxtIQsXiFQ3Ilzx6EZr7bIES4xW1u0ognwrrEd0Y2HhFlNRGjEr13U3Dy7uY+a/2sus21hsysgqBgsa/qevzkPAJVb4HeZevGCSxT+m0Y7wsfN6oi0rAoqAIqAIbE8IwCI1ePBg86MfXUjkqNQ0NzczQXr33X+xdSqbF0jRfvvtR4RuOhmHik1DQ4O58cY/m3Xr1sU0X8na72jxKqQEqhXcLzcQwK+NBFdj5hYvWLK2mJMO2WxOPXSzGU5Ri3UkpherlhAtdMD9vbyETIhErFpIYI9oR+/nMYJG+BYXRVgrtmxFmbnlif5mMem/ikDm2GwWjnz5EYR03xOxXDpkQ451z7VjDdfvbBZXNudKv8UkW1ZWZvr168cLq6pqMy3URl6groAwnesFYe9ik661LdW8pPo8nf7rsYqAIqAIKAKdgwD2lbq6enPUUdPMMcccg6/45rHHHier1HySQ1XGohEzvXqsfSJexx17DFOJRx55zCxc+Eyo9tNxNXr3HQ/xaiNXY7q1Gq0bcfSOTebh3y5nDFjHVShwWB2WaLJg/SomsgUQQaI21RaZQX1azS7DmtnChc+Fj1gNmNV/gcTB2NKjot2s3VBsjvvFTqadXZI4yJK2VC+XSFhfbkEg+cGxAix+FtKAcA4YeDoivPg1DZ3bytfD+e6kCQGTa+YTIZNvFfvuu4+ZOHGi6dGjB/cdpt6lS5eat956m7FJl0h6yajf3AUR1iBilur4TEhzqjWlnysCioAioAjkHgHsz9XV1Wb27Flm6tQpbJH63/+9wmzcuDGURSpVj7AftLS0mKHDhpqfXvoTtqiB1N133/2md+/eKS1qYVyNQfti1uJ6WKXqG7uZPUY1mft/s4LTRhRRElQ/DReIFFyHtQ0F5oZHBpr5r/Qy1fWFpm/PNnPa4RvN+cdsIO2WtWD56b8gqodlrYbOP+bnO1EqCgj1wwnsZVOGqwzEB4y5vr4+5jpzyQ/AwqTDwiObdU1NDZkRy83IkSPMmjVryeJTFSNQqYiSTNCoUSPpmg10/ho2beIFYiP/8F6qtlItplx+LkQQi/7AAw80COWVsQhpXbBgoXn11ddY8BjGmuSSI8wFiKxL3LxFRTEeXBfXk+PEAiehwGLalbZxPNrB8dKeRMVkY6HLJbbaliKgCCgCikAwAnh219SAeM1m4oUv+3/4w5UciSjP8WzxY+I1dKi5/PKf0h7WnYnXAw88aHr27JnSohaGeLm8QvKP8T6VfR6vLSyoH71js5n33yuili5JdBaHBaQLFywmYfw19w0yf31qgOnbA9YjOp8iIFtaC8yV319tpk2uiUU+uqCy9Yv+D8evJY3XjF9/gyxeNiVFWFcjioCfdNJ3zO577M4Td++995lly5Yx03VBhJhvDzrm1FNP4c8+/vgTc9ddc805555tdt9tV/77r3+9k/3NonNKtgBABKZOnWqOPfZos2nTZjN37t1m5coVNNEl3I+Kigq+zldffcVEMB/Il5Cb4cOHmdNOO42H5xIrsQJi4d5BWGwm16MQo1Q3A0gQsOtB5He33Xczo0aNYhzXrl1rXnnlVT5dCC+wGzNmF5qPsWbIkCFM8PDN58MPPzRvv/2Oqa2tTSDAOH7EiOFmt912NzvuOIQIdgWHDW/YsNF88MEH5v333+f2w8xbqnHo54qAIqAIKAKdg4DX4iXEa/369UySsn1hj8E+5Ee8evXq1WkWLyZgLvGKUB6vqnRdjWTxaibX4sjBzeaun68k0TtZcGKEKA4NC+ULyC1JBOukX40mF2Mha7RYeE9WsDqyYh28V725+SefkUWLPou5Kp02iHyVFLWb98lFee5VI9mqxukrQmi8MFhs2GeeeYaZPHkSb7zPPPNPZrdwn7micRx32mnfNd/61sFsbcExb77xpvnNb35t+g/oR6bOTeaPf7yRmPf6lCZPEBS0PWvW6eaAA/bnwcydO9csWfIiR1JMmXIIX6e5ucVcf/0N3MewBCbbhZfqfJAq9O/ggw9mk6zkOJHzMDYQxwULFrDVyyWwQW2DdMGSuBsR2LFj9zDDh4/gBQ5r30cffcRmXiFGLS2tZtKkfc1hhx3GWIFACflDX3ADPvLIo/wNCOeDMB944AHU5yl8DbQrx4vLdOnSl8zixYvTyteSCif9XBFQBBQBRSC3CAjxOuMMa/HC3igWL/EYZXNFL/EqKSlhi9f99z9gMiJe5GEpI3G9GHGkb14vTkeLF2WETTePF2XvMs0kjodO65afrKKM9C3sAowGvMVwsTm+ImTNKjQn/nI0uRitmxDkCT8REbnPmAYz9xcrTU0jSFlHSJFCAlnuX3q/wvz4xuEs1E+nnBDIwy677GzOP/88ZsyrVn1ubrnl1gSyA5JUUVFOx5zPbsVNm0CyrmeLyT77TGSX29tvv21eeunlBEuLWGhcsMVVhzaHDNmBRILTiSR8RURlIRM6/Js582Rz6KFTzOrVa8x1181hBu62JeZJm4LDtu7VKrmWKO+5sgjCuAFdxNEOiAz6vM8++7BLUK6Nn+LeA0l89tlnzYsvgkiWpTTPYsyYg9NPP53J0ubNm/kca1n82Dz88CM8PswVrI4nnHAC/11VVU2J7l4nq+CXZqeddjLjx49ncvX555+b//u/+7h/uDFnzTrN7LnnOLNi+Qqz+ovV1H6V6d+/HxG93XjO0V8QaZC8XNy82dz4eq4ioAgoAoqAPwJbHfEia1FZWWJUo7tnJuyvrsULm1dNTZrielh0SHuFnFtzLvjcjN+lwTQ2FTriens5G/lpXY2/vWuIeWBRH9OvVxsTJ2Snr6Z8XZfMXG++d+wG1onFxfnx7kZIXF9OkY2PLOltfnf3YC6oba1dqaMDhQRhs/3+988nd9QIbhjEa9myf/MmjhfMmePGjTPnklsR1pxXXnmNN/YiAhWfgTjgfZv/g0oaEcPEe24IKY80+pmUIsAxOF+0YyAA0JjNmHGSOeKIw8jNtt5cddXVdEwTu9NcV5hoq1x/Mc5H23Jd0TDhuiAYEggg2qhM3JcgP/vuuy8nrgMhxDVdNi/uxscff5xceMtCmX8xlkGDBrEb98033yJXYY056KBvMjmCK/DRRx+LWalOPPEEs+uuu5p6IlQPEln69NNP+RpYp4ceOpWS6X2TSdn8+QuICL/EeBx00IHcz5dffoXxxu8gkPjGhH9YKyCJzz67OJSFTh+KioAioAgoAl2PwHZDvNozsHhxLvmoJeb3531hvr1fDYvfC0l85RXIw2LTndJCrCGN1s9vHWre+qicSBcy1UfM9Ek15vLvrjWlVJ/RK8y3RAYRj1tMDyJeNz46kFNKlFIyVftKTbz4qKi7cfq0aea444/lDRyWK5gWsaGLrmnGjO+wew1kY+7ceWzhgkVm8uTJZuDAAazTWrJkCVtMQE769evLEX/QIGGxQHe0evXnZMFZzmkXYPGCjmnvvfdiqwxIAa49adJ+Zi8ieSPIsgYSBn0T2gMhkcgNEJWhQ3dkC8/AgQOZ5C1fvty89977LPCHeRTv9e/fn/owgcnH4sXPcTtwuaE/sEiJqy0sARMXKdyw55xzDmulxN1oiXSEMYG778477+LxxK1zwTepEFIQV5yL0g+zZs0yffr0Mf/5z3/YdQi3K8b83e+eaip7VJq333rH/O1vf2O8cQ2Mt3fvXtSvs7nKAvReDz0ES5nh8YNw4ae4bHE8tGonn3wyE2y4G5955hklXl3/LNUrKgKKgCIQCoGtjXgVUnb48vLKDkYYvz03UePF+Zk2pVkyiNIy0IZXQ9GJv5i1zpx91AazsbqIrFF+2JKmi6xjyMn1VVWxWfpeJWu9vjGk2Rw4to6z2rvpJLwtgKT1rmxj0vYoWb0qy62GJ2w6CXGfjRw5kt2NIBMgL3Pm/JHIUj1v3CAyl156CZMc1G/605/+TIQDhTnbzCWX/JjcX3uQ5WU5hbX+gbsHYd55551rBgzoHxPFo4AnNvjFi5eYe+65l88FCZo9+3QW0N9ww5+YHPzyl79gMiEi/fJyWN26mTvuuJM1U1h4IIAQ5YOoiBsRRA59e/DBh9hdChI0ZswYGtO57Ca94YY/k6VqHzr3IP4cSeEkCjPUincOAtkaM2ZX7gOCACzesPQVcqjvQw89TCRzdVpuO7E+4ieI7IwZJzN5BYEC8Wpqaib35gTKVnwcHKzmySeeNK++9hpjILqtYlpgJ554Irktd2H37QMP3M+EGGRLtGhikautrSN93WRz5JFH8mewkL1G7eVCoJkunnq8IqAIKAKKQGoEtjbiBa9YKlej7OFZp5PAJlxIhGUjEaizp28wvzh9HaeLQL0jNx+XLe1j6yyi7mIZJU+1VixbRgi/c/Fs0otBMA+rl7VS2c/sCwlTjfne1cPNmx9VUPFs20ZYixfrnOAaJDLxve+dzxoikKIHHniALF+vcp9hhTrllJkxyxE0RyBRICAXXvhDdn2tXPmZufrqa5gInXLKyRyxCDfZggXPMDEACYP16b33lpl//vOfTFbgFjv11JmkFdtgbr31drZowV0GgTky84KIIRsvXrBmweoFTdl5553DY4Sb7d133+Uw1wMOOMD07duHLV+33HIb66TQr7POOoOJI9qG9Q0uNvx+1113cwoMuDDDvHA9KcUkFiZECI4fP4GJEm6Izz5bZd54442EtBphdGRyjLQLrE455RQajyVewBv5zoAXcAXujz32GLky/03Ey2rI5N/RRx9lJkyYwBZGEFxERWL88rlcA0JJaOl22GEHcqXXsIUOP5PlcQuDkx6jCCgCioAi0DkIbDfEq42iGtNPoIpNOkK6rEKzP1mtrvmv1VxPcQsKWUcF8pYcWTJVSuL4z6j8z5Mv9zIfrirlYtgDerea0UNazNH7V5kd+lHRSspi741WhLC+hGo+fv5ld3Ph9cP4Zyn9TbaXtGcdFqb995/MmzGsHiAQd945lzfsM8+cTeRrEm/Mf/nLLWxZEpciyhZApL1y5UqOroAFBlYsbP5vvvkmWcduiumT4IbDPxC7lpZmsj59i1xnp3AEHlJRoF24wETjtWbNOtZ4gSyJmwwRmBMmjGfShb6gTyB2Bx/8TbL2nMCEEFGAyLQLoofj0VeMCVa5RYsWmRUrVnKbMaYdKls+ghYKYjoxITIgbsh/1kamR2DYjHajSWglqaxX6xY0OUKKQORmzpwZI16weAEXWAgR7Ym+g3j9+98fcmSjvHAMtGco+QAL2T333MOYAnPpA7DHHAHj4cOH8/uIWsFcqbA+7dtGT1AEFAFFoMsQ2NqIV8auxnZSr1eTJgm6GVT/DmPBEIEX3ID9e7Wb2y9baYb0b+W8XIhstNYTw1nnIcBHwesr7x3MOi+4KCGiR8AcBPZ7jGo0vzt3jdl1RJMlX1y/0bbRTqaxnhURs/itHubSm4by5MdTeIXTeDH9i6Z3gBUERAqWFliF4P4DcBdccAELvaE3uvnmW+11orqiiy66gIkXyAxIEt7/zndONIcffihHz61bt54j8xAx98UXa1jPBRIEYgASAeIFV+Ntt/2V3XPoC86fOvUQOvdLjmqEhQeuRGirfvazy9kdCmIFQtKrV09uC1YvBAhANwY917x597Dl7KyzzmSisWLFCrrGHawvc5PAptJ3iXAepKu1tYUJINyyiCJEVCbGIsL9CK2V+vpGGucX5pNPPuHxoN8gNGHIVxDxgsXLJV7W4vU451vDWNxIUSFeKCsB4oXEtOI+RF9g/ULettGjRzNZXLz4WdZ3KenqsmenXkgRUAQUgYwQ2NqIVxhXowDhyePVTnm80iVebMwiy0eE6jMWmlsv/cwcMLaei2NbsbWNaIS16rP13c3514zgBKi9yttZz8VxiSBg5IrcQNqwKRNqzXUUHQnSJfnAbCkhQ8Sr3dz29/7mCiJuIHltsKplNKWGCc7JZAk5mAgRJvimm/7C/YULEi8QnUWLno3lg4L1RIjX8uUrydV4NZ8HUThciEjyCbIKQtLa2sZuL1Q6f++995iIwHV22mmnMvG6/fY7OA1CnHhNYdIG4gULj00/MYQ1ZSA/KAoqfRFCAZI1btyeXLYHrkRonc4++0wmZUiXAEIG65TkJwsDkxBtaNqGDx/K+rJRo0aynkteQqrcCEucB7cnCCIseq7VKei6ySxesKYhf9f06UcxRhDWv0F51NzxgBweTwESY8eOZfctLH/4KcQQ56G+1/jxezORQ0AD3L4i0A/3pSIManqMIqAIKAKKQK4R2OqIV4g8XgHEK4MEqtyS1V41Ui4uiOsvnrGeXY+wZllrlSVNdz3dz/zhnsHkWmzjXF/eF+ouNrd2MzddsopzejVGrV44DpojpK249M9DzYskykckZDr6LvdaEt241157UWTcWSzIRuQiBgFROsgD0kysXbsuphnC5u1avK644sqo9quZfpaTVWUUZ1cfPmyYGThoIJ8HUfecOXPIErOOUxmIxcslXnAZHnbYFDpmPYv8QTpAlhCleNlllzKReOKJv3PuL4jb0Q9YtdDv3XffnS04yKq/yy5j6L0zmZyANIJ4pSMeFyICi9r48XuZaRT5KdXgvbnBBEs3tQTGW11dY/5OfYVrtDiFniwZ8QL5BJFEygkQz+eff4HdpqLfkiSsyNk1ePAOTPpANkGOxa2N/GNwAQNLRIsiitElXUq8cv2Y1PYUAUVAEcgdAlsd8QoQ11v+kmgiyoG43hIvNNtIpX+g1brnl8tjCVRZJE//FRdGzK/vGGLunt+PSVgkAuIVU80z6YFWrIESrP5q9hpz3tGUzyuaDyxC5i7k7Fr9ZbE5/XffYHKGcaSTPNVdDuKuwkb+gx98n/U/cAu2k8atZ89eTMJAjmSj97oaYfG66qqrYtYVWM/QJixeEOhDlwX9GEgDUlUsWfI85eo6gi1jySxe11xzLYvscT2Qq4sv/hGVvdmRrTW33XY7kyp8PozIHVyNAwYMMP/4x9OcSmGvvcaxuD4b4iWJXqG5wvWlRmKMpVO/4u5I+7ssKLHEIeHs3XfPo6rydUnF68mIF9yCcLGCeMHyh8CAefPm8RyBPDU0NLIl68QTj2ctGlKCLFy4MEY0p08H6RrPJBafwdJla3vZNSe5zZR85e4hqS0pAoqAIpBLBLYV4pUynQQ2z+pMXI3MvWypIBCk6374Obsba2H1or3O6rS2mI9Xl5qNNZRficv8+L8Q9Th0YIsZTv+4YDZZuiKk/4I+7PYn+5vrHx7IEZH2lb6w3iUR2MiPOeZo8+1vH8EpIwAQrF+IkHvttdfZ4iMvkBBENYq4/sorr+aNXgTg//rXe+wmBAlDzqgLLvghkwSQkJdffpWTpCJa0iVeIAHHH388l+XBuU899TRrmZqaGom41LOA/vDDD+PIQaRtQJLSsrJS0oV9h3KCjaPjWsgydwsJzz9gxVvszQAAEPZJREFU4oXSCtCGQSf13HNL0rJ4YZzoO4TocN9J8tFUN5KQF/zk3F7UvxeefzGWJyvZ+bBQIarRK67HPIA0QWAPbNAvRDy+8MILnMEeKTymTfs2WwVB8BClCIyA95FHHsE51XAO3L1wxcJVKlY7EGOQQ6SgyJfSTKkw1s8VAUVAEdjeENjqiFfU1ejVOHcq8UK+JaSVQCmgU6ZuMr86Yx0Xv4a1qyBqZkNEYzHVZQymXXZptZBFq5nE+VYfZssCQbz/X9eONO9+WpaVm1EWL4gCNn4k6rzkkouZNGAjRmqGa6+dE8syL6BhI//xjy+KEa/f//4PXM/p4osvYgsUxPHr1q1jwgDiBWsUSNacObbc0NSph3BCUBHXQ+OFsSFf1dlnn5UQeQgr2YsvLmWCce6551CW/WEkZG/gvFkggyBXWJSI0HvqqX8wqd15553Z/YjPQNLSzcyO8ZeUdOdkqT169GStWrov20aJWUOBBXB/dqMFEaTCA67AdBC5ZSWdBFJyoO9CkiBWBDEeO3ZPHmNjYwMnV4XLFSQL8weL3zvvvMOfw3IJjCXDPt7D72hPEsiCLCNVB7Lto6/6UgQUAUVAEcg/BLa2ItnYa8qpVmPaxAsunpqaDMT1sTmD1YOy01Oerlt/+pnZLRadaF2RLKZPxbroOBAtTidB/0FA34tck4iGvOwvO7ILM1MXo7u04rmeCrg80E47jWZ3FLK8P0EJO7Gxu64oWLzglkSiUuSwuvba63jjhsAd9RtB4HAOFgvIwfLlK0iXNZ9zfsGSiGNmzpzBAnCI4UG85HgUgT7wwP35+mjzySefYkKB30HgYMWBngtJQ/ECOYT7EvouTDYIDCIPzzhjFrsaEQUIXVQ6Gi+QGJTymT17ViygIFUUpPdWlWLXiBKdR1GG1ZurTaFftfPoiWLxOumkkzhIAdGg6DtwB47ADWM45JBvMeGVCE1cBzo8kFNYwnCMtTQOZyshcMMxUnZJ3KNCDDF/cF0q8cq/h632SBFQBBQBIID9B8YGpEmCRrqhoZ7SOF3Fz34pxZfuHuVFFvsG5DyXX/5TNmrAmIFALRhVXA2z34y4spv6+jpTlKm4PitXY7SIMwhTXUOhOemQzea356zh3/EeLB8SwZhqWUkKCkQyFpDuq42E+D/601Dz6rJKdjnCHZkL8oV+yGbcg0rT4FVTU5tQGkf6CpCFKEkdRPwEIcMGDisMyANyXcHttXHjJrbICIGT2opiaXNrLILw9unTm89HeyBWcD0KqUIfQMAQsYg2UWpHUlXEXWgFUR1TNz4Gc5nOosQ5yNYPUbpEBqZzPvpodW5FfLM89dRTjGUyd54QW6u/slYpKcYtNx7eg/UN+A4cOIj7hvJKsC4CK0kNIWRNLFyiHxSiL2lJBC+cm+74Uq1b/VwRUAQUAUUgNwjELV6nczJtSHCuvvpaSl30RU7KveH5D0nNqFEjzU9+cgnvJZD7PPzww0y8xEsSNJoOxCtE5nppK0fieqdr0PpEs9HPuRBarzomX0Vc0Bqbc2INR++g4lnTbW6vnpR2Yt7Cfuaq+wZRwlTbdq42TFefJGkXZOP2E167EyHWFCEMliBY7ZloxaR0jZASd6KEALjidCFjOE/OlZ/on/u5606TtpK1n+pWEOJSUlIaJbWpzgj6HFbNCBPHZOJ1F3v3m4XgKpgJPhi7zJEX36C2ko1AcM3VWsoULT1PEVAEFAFFoCMCeDZDYjNlysFcZxcvaHbvu++BlKQoDJ5oH/sAkqajSgykP/feex8FZL3EwWXpWrzgkSottWXtZF8J2l8SiFcuXI1cOZEE8U2UkR41GG++dJXp37ONU0PEhfbiLkyER0gXyBk0XXAxvvZBhfnRjcNYL4bz469MM3jFW3CJituyH2Hwvhd0rpAgaS/VNYLIiUsmgiYv2THJSE/QohT3q9tumAUsx7hkEr+nIjVBOAt59ZIved+9IcLg5DeGTPBJBws9VhFQBBQBRSBzBPCMbqdcVH369KLAtgs42TneQ9YBBL/ZV+Y8AAnTkXIIEfAgYIie/+Mfb+Dk4WH3L9mT2NWYwuLlcoNEi1c2UY0OvtZ6ssU0UDqIQ8bXmt+f+4WpoLxbKA8EyQ9ycsVrMSb+Dh0YdN09iHQtX1Nifkyka/ma7nx+O6Wg8KTDyHxW9cwEBDqDiHRGmzptioAioAgoAts+ArJ/IGAN+TWhPxaPSC4i0l1DAyQud95xl3mH6iG7aaSSoewaVUC8Mi8ZRBevrqlKs2SQt2us5IoKpA0XzD6QUkv89+y1ZpdhTaa6rjBGuvwGVVxEkXHkUnztwwrzP3N3MJ8S+aosbefUEnHSlTnL3faXq45QEVAEFAFFQBHYNhCwlq92s+eeYzn1E5JmI9AqU7mI6zGBVhpVY6BJXrbs31HNsOUwqV5e4uVn8QrlasxOXO92M9pxiOOplBDyeY3aodnMPnKTmTap2lSWWS0UygJhfHAxigh61fpi8+jzvc1Dz/WlEkQFprzEZqxXS1eqZaCfKwKKgCKgCCgC2w4CrtcEVVUqK8u5qknv3r2zJl7gFBs2bOLKJ7W1tbEodwnuS4ViGOKFNvzIV6e4Gm2H4UK0v0GbBY0WohHHDG80E6kc0O4jm8yQfhQRSLm9QLBWf1Vi3v6onDRd5WbtpmJTRu+j5JCNYJQcFKlZaCqw9HNFQBFQBBQBRUAR2DoQEPIlgWxSzzgXvUdEPSLlvcFqYdrOIfGKUCqATVm6Gjt2GQSM83LRq5lE9qjdyFYux5wHcgULWBElWO1OEZCIXrQRkOHMfmGA0mMUAUVAEVAEFAFFYOtDQAiYG/me7Si8AWXptJdD4pVFyaDAHksaCRvJyDarqOHKtV+JTUusZHFzn1q50lkMeqwioAgoAoqAIqAIdC4CeSau79zBauuKgCKgCCgCioAioAh8nQiEsXiJvssb4d+JGq+vExK9tiKgCCgCioAioAgoAp2DQBjixQ4+cvUlJV7IuFpVlXuNV+cMW1tVBBQBRUARUAQUAUWg6xHI1NXIyVn3njCJ5VX4A+kkhHgVF3ePpcxPlYG864esV1QEFAFFQBFQBBQBReDrQcDNB4YEqigZVFZWkVAySLiVt4eBtRoLC4v4WCVdX8+k6lUVAUVAEVAEFAFFID8RkIjIgoJCqilZm7RkUFJXI9dqrN5sKiorqZHihNEqAcvPyddeKQKKgCKgCCgCikDXIOBauuSKIF7dyUtYWpZYJNs1XrnkK8HiFaEEW7W11Zw2XxrAiZmm5u8aGPQqioAioAgoAoqAIqAIdB0C0MSDG6GoNlyNPSp7mmJKxrplCyrz2DRYKUsGcTrTbgUGtYtaW5tNeXklZ3NF41Kp24/pdd0w9UqKgCKgCCgCioAioAjkBwLgRg0NdQZGqx49ezLhkihG6WHSkkFyENga6hYVUJ2fspJyU1hkyVcy9pYfEGgvFAFFQBFQBBQBRUAR6DwE3GjGpqZG09zcZCoqKqn0UEksIDEZ6WIuJVGN7oHQetUTi6PsE6a4qDvpvYpMNzKpCXPTXPKdN6nasiKgCCgCioAioAjkFwJSvBDEq62tzbS2tZiWllbyDlaY0tLSBBej2/NQFi9xOSK1RFNTg2lpbeXCilDuo+SPfSn1yq8lob1RBBQBRUARUAQUgc5DwFKvLZF2qiVtOVE5iemh6xJJlvfaLulyXZAdLF440a0GDmaHRiN0sRjjc+gXm93AyKTIYueNOnTLXh9r6BM74cB86gtT5mgWXb+h5qqvuWqnE6ajS5vMNQ65bi8ZGF15rTCT0hX96YprpBprV/WhM66Dr+NSc9cdZ2dcqzOfX6nm6OsYWzp9yqdju2ru0x1zYL+Ey7g/Hb7De2hBN1NA/yukzA8F9LuXdPllqu9AyLyuxvgBW5hL5bISeLrg6PGKgCKgCCgCioAioAjkGwKSxytZqq0QUY3+w7JCMvtdxpLA6Hca+iGfoHGY3pgNJrGoyBWCjgn6xuT77SaH367i/ZER2SuGGUs2i8Flxm7EaDo4dEU/O7B1zxz7RXHEBIhB82Q73kGMmAzPILzcLwvpuMETTL9p9iW2ln3GF7RuCqL3id/nmdwTQf0PbMs7bwlzkLj2U61rvzUaZt2KSIGvliHmqfoW9Hk613PHIvOW6vmVbr+S4RXGMp3OeLx9844pWd+TrVv3vGz6kzZ2Ga4dL+buevTdZ6TOXvQ+78oxJuuPdy3Gno1+z6MMnrXpzkeqeyPdZ20mz8MO+1TA3hP4fHCOl3XC64P+z/YHf0Sfkyj7E9CQd6y+8xhs8XIP72hAziPPYqZrRM9TBBQBRUARUAQUAUXAFwHRtVtFlRS7jtHMpKj5WbtibYQjXrZ9sXgp6dJVqggoAoqAIqAIKALbEgJeubolXkH2/eCRQ6IVJLjnFsdPnExeIT9JZFCj9ljvKXmmr9+W1oKORRFQBBQBRUARUAQ6GQGvtt4anNLL4hDmeCZeMpawBCxB6xUDIm6G60jK/LU8LlnzY5p+fNCP4AkrtdGYlhQKVqw/i8SJZToE0cVb+hJ8/fCBnWHH6q6xTM6xiybzfgVd37s4XXNssvsCx8l8+C/w8H2V64QZn7d/ftf263dH7Vq8f0FtJFvT3mu469Y7HhstE7xuU407aMzeOfX7EhU0h96xpXOu31pMNQYXk2TXStZOsrkP2/9k7WOerMjW9jadMaX1fddpO+w1gvDzu1+DnmvJ+pjtevB7vqR6zvk9k/3uq6D5CPusSvbsDXN/BD2f0n0+uHtZpmvMb269z5dkz+107t1M1pFtv+s5gozL3ZP8rVt8ZBSi1FpYV4scuFYyIV62MX8rmXuj+t0ksvn6PayCbir3fQHGXZDyAE1c1HYi7YNRUmQkkjIXFO8C93tg+18nsU03u4bbhndsiWPqOD2pbrjg9qxZ1JvlI6gv0e0imkLEf5nInMrN6vfwcP3f7gNCWoy3URBNNBddRTGSnOg/985v/EEWv0G910mGWRDeQfPu9tuLnR+23ve8m54fst4HqXsdWx81kjCP9nN/SXbQ/eAdh981O2LdcQ3JnNtvc4n3fkcME8+X+8Z9gMfbS0TGb96D1oK33aCHHOfeiT4LQGb9128iqQ6aL+86Snxo+z9f3P7LfRI0pjDPj3SuGfTFM9majo8xeK0Fz6X/3HufD8mejd57J9l94rc3JLt3/Z75Qc8N93nvt9aSnec9N37djvgErdug5264uYu36nd/23sg7r1KfPbIMzY+/37P9DBY+j13g9py33fvE+9a8+4p8nkqjDs+t12OEOT1y721i/ubHfFKHhMiQLrAeReZH8EJOg+TgePl4ZnqZrDXcuMT4oSkY/RbHHj3+t6+B31T8G6KiQ9Q9wHmEgyLn1jqgtl2fFOQb9iymXjxc8lR4s2fuPnYcUlf4rh6x+vXfqJl1PsgSbR8uhtsEK6u1cB7fMcNOujBbmc7iETIWohj3dF65fcAlHlNiDqNLnuv9c49P3FzT05E3AdJcoKYnHQlW7dB8+COz0usE0mWP3lJRgZlPuLthvtW6z3Pb15k/crzoOO6jV8L15f7zNuWH4l2nyt+cypY+q1bOT6bdYuaubbQrjy/uEcxa7HfNfyIv5/F1h1b4gbuvW/9n7VBG2niOkimiUl8zrr3icyht4/+Y4vf72HWrbdtv7Xtjg3X9D5rvWvM3Qu897tL9L1rTq7tJZSypuVZE79+xztA+pfKm5PYr45GAj+LrbsPefcxt1yO18MUtG6D1lxHXPw9Hqk4QuI9mmuOkNrC5b2+5EENem7h/f8H6RDUxSOguvEAAAAASUVORK5CYII=;" vertex="1" parent="nmFTTgFp_2PvwewySN3C-51">
          <mxGeometry x="62.01999999999998" y="80" width="145.95" height="92" as="geometry" />
        </mxCell>
        <mxCell id="nmFTTgFp_2PvwewySN3C-57" style="edgeStyle=orthogonalEdgeStyle;rounded=0;orthogonalLoop=1;jettySize=auto;html=1;exitX=1;exitY=0.5;exitDx=0;exitDy=0;entryX=0.16;entryY=0.55;entryDx=0;entryDy=0;entryPerimeter=0;" edge="1" parent="1" source="nmFTTgFp_2PvwewySN3C-7" target="nmFTTgFp_2PvwewySN3C-56">
          <mxGeometry relative="1" as="geometry" />
        </mxCell>
        <mxCell id="nmFTTgFp_2PvwewySN3C-65" value="" style="group" vertex="1" connectable="0" parent="1">
          <mxGeometry x="480" y="190" width="270" height="200" as="geometry" />
        </mxCell>
        <mxCell id="nmFTTgFp_2PvwewySN3C-56" value="&lt;div&gt;Abhängig der Spieleranzahl &lt;br&gt;&lt;/div&gt;&lt;div&gt;&lt;br&gt;&lt;/div&gt;&lt;div&gt;&lt;br&gt;&lt;/div&gt;&lt;div&gt;&lt;br&gt;&lt;/div&gt;&lt;div&gt;&lt;br&gt;&lt;/div&gt;&lt;div&gt;&lt;br&gt;&lt;/div&gt;" style="ellipse;shape=cloud;whiteSpace=wrap;html=1;" vertex="1" parent="nmFTTgFp_2PvwewySN3C-65">
          <mxGeometry width="270" height="200" as="geometry" />
        </mxCell>
        <mxCell id="nmFTTgFp_2PvwewySN3C-63" value="" style="shape=image;verticalLabelPosition=bottom;labelBackgroundColor=default;verticalAlign=top;aspect=fixed;imageAspect=0;image=data:image/png,iVBORw0KGgoAAAANSUhEUgAAApgAAAIqCAYAAACAMzq3AAAgAElEQVR4XuydB3wUVdfGT0IIgYRO6L1XUVRAFEUUK4q9YO+KKIiKKCgWVERBQESx9/6qqFiwgygggkiTEnox9JIE0sh7zg13mZ3M7sxsZje7yTPfz8/X7JR7/+fOzDPnnnNuXFLFSgV0aIuLi6OkChWpfGKi/hP+DQIgAAIgAAIgAAIgAAIBCeTm5NCB7P1UUOCTlBSnBWa5cuWoUqVkiouLp6rVqlNySgqVL5/E/w2iIAACIAACIAACIAACIHCYgGjJ3NwDlJmRQXt272JxeZCysjIpPz9f7aQEpnguU1Iqs+eyAtWuU5cSE5PAEARAAARAAARAAARAAARsCeTkHKCt6f9Rbk42ZWTsU55MJTArJlVS0+L1GzaCuLTFiB1AAARAAARAAARAAASMBERkbt64gUVmDu0/kEVxFSslF1SuXFVNi1evUQu0QAAEQAAEQAAEQAAEQMA1gV07t6vp8n379lBc5SrVCipWrATvpWuMOAAEQAAEQAAEQAAEQEAT0F7M/fvZg1mlWo2CpApJ1KRZKyT0YIyAAAiAAAiAAAiAAAiEREASf9atWckZ5QcOC8ymzVuFdDIcBAIgAAIgAAIgAAIgAAJCYO1qCEyMBBAAARAAARAAARAAAQ8JQGB6CBOnAgEQAAEQAAEQAAEQgAcTYwAEQAAEQAAEQAAEQMBjAvBgegwUpwMBEAABEAABEACBsk4AArOsjwD0HwRAAARAAARAAAQ8JgCB6TFQnA4EQAAEQAAEQAAEyjoBCMyyPgLQfxAAARAAARAAARDwmAAEpsdAcToQAAEQAAEQAAEQKOsEIDDL+ghA/0EABEAABEAABEDAYwIQmB4DxelAAARAAARAAARAoKwTMAjM6rwWeUXCUpFlfUig/yAAAiAAAiAAAiBQPAKFAnO/rEUOgVk8lDgaBEAABEAABEAABEBACEBgYhyAAAiAAAiAAAiAAAh4SgAC01OcOBkIgAAIgAAIgAAIgAAEJsYACIAACIAACIAACICApwQgMD3FiZOBAAiAAAiAAAiAAAhAYGIMgAAIgAAIgAAIgAAIeEoAAtNTnDgZCIAACIAACIAACIAABCbGAAiAAAiAAAiAAAiAgKcEIDA9xYmTgQAIgAAIgAAIgAAIRLfAjIujCkmVKI7/r3qt+lSrdiOqyf8kVkii3Jwcyti3g7Iy9lD65tW0Z9dWZc3cnGz+/wWwLAiAAAiAAAiAAAiAQAkRiEqBmchLVlasVIXqN25Nx55wLovKulQjtREVHGTpaNSOccTSkyg+nmjHtg2U9u/ftGTBL7Rz22batWNLCSHFZUEABEAABEAABECgbBOIOoGZWrcptWx3LJ1w6kVUrWYq5eXG+4vKIPaKL0fs0dzB3szdNP3zF+m/Tasoc9+usm1h9B4EQAAEQAAEQAAEIkwgagRmhaRkaty8I5198R3sraxNBw8mhoyCZ9apfGI+zfl1Gs3/4zvauHYZi1R2f2IDARAAARAAARAAARAIO4GoEJg1ajWgjkf3phNPu4TjKyuzuDzcb5n+FsEoU+Pq7y7CK+PjDlJW1i764v0JtGLpbPaG5oQdKC4AAiAAAiAAAiAAAmWdQIkLzJq1G1K3Ey+kzsf2pgoVqx62hwjJuALK2LuH8vLzVGJP1coplJfnzmQiTnNz9tH0qa/S339Op+wDWe5OgL1BAARAAARAAARAAARcEShRgSkZ4d17XUgdu/TipJ5qfg1P4HjKzRvX0aYt2yknP56SyuVT+3atKKlSVT8Pp9Pe5ubspe+/fIPm/f4l5eflOj0M+zkgcHyP7lSnTm1q07oVrV23nrZv30EL/1lEW7duc3B09O1yYs/j6fLLLqH69evSZ59/SW+8+U70NTJKW3TqKSfTpZdcSLVrp4aV3b33DKZjju5CmRmZdP1Nt0UpDTQLBEAABMougRITmEkVkzmR5wrq2rMvJSZVYQuwy7JA0sILODO8gBLLx9OSRUupfOVGVKV6Zdq2cQMlxO2k9h06U2724Tn0g8Rz6A63/Px99NHro+nfRbMcHmG/2713D6Kzzjxd7ZjBL7uJk16g73/4yf7AAHvcdsuNdOEF/ahcuXKUtX8/jZ/wfLHOF3JDbA4879y+1K9fX2rZojklJhaNly3gmIadO3fRrN//oPc++JjWrFkbrqZ4ft6bb7qerr7ycnXet955n156+bWQrtHn1N40eNDtVKliRf4oKqCvv/mOxj47MaRzyUE9jutG9949mKpVK/T0y/meHjsh5POF40Cv2Nm17YN336BmzZqqcXXZFdfa7Y7fQQAEQAAEIkygRARmXFw8tT/yRDr/irspIbGy6rKUG4qTQEv+p4A1YxILzL/m/0WJKU04m7wW7dy6gSqV308tWremfHFAHorJVCGZcvCh2EwdrykCR/53HP8/XdpI/jsnex+9MWkobVy3zBPUw++/l84952x1LrmmiMsHRz4W0rkrVapEL06eoDyBsmVlZdGYZ8bTN99OD+l84TioY4f2NGTwHdS+fVvF1skmwvurad/QsxMmOdm9xPfxSiSdecZpNJQ9bWJX2dat30D3DH2A1vO/Q9nuu3cInceiPl4Ck3n74stp9PiTT4dyqrAd4xU7uwZCYNoRwu8gAALRSCAlJYVatWpJixYt5pA/lzF/pg4lJCRQp04daeXKVezgyoi67paIwKyZ2pCuGzSeqlSrpaa7yyXwdPj6NMrbn87eHk7yKZdE1Wo0oOysHFqxcjmlb0yjFo3qUu0Ku6lc3k46mHeQcg9ywk7FFKpYoyNVqNWBErh2pmy5edmUxQXY9+3ZTok8rZ6Tk0sNmh2rMoVEg7I9aN6sr+jr/z3PYnN/sQ0ycfzT1K0rn//QVhwRcdEF59HA22+hiuzxUn3JzS2WB63YnTOd4MzT+6j21apVS/0iAvivvxbQ9z/+TN9N/8G3t0xdnnlGH8WlVq2aSoj+NX8BDRh4l9dNCsv5vBJJN1x/DV17zZXsjS+v2rmfPdKTnp9Cn3z6uet2N27ciJ4Z8wQ14X/r7c9582ngnUNcnyucB3jFzq6NEJh2hPA7CIBAtBEQcXnUkUdSQvkEJQgXLPg7ZJEp4vKoo44kOWdebh4t+PvvqBOZEReY5RLKc/H0fnTmhTexx6+Csn8C66m0H2dS3Ro51KPfKbRrzx76e+G/lF9Qi2Muq9ObLz5IV/ZrT72aH6BFszbQquX7KaVyAvXsXYdW7cum5QdPo+btTqKs3Ttpz57V1KRhZWrbpg39t3ETzfnwd6p1yllshGQlZnkGnr2mefTmcyNoxbI5psrt7ofjpInj6NhjuvC5DyohJaLwldfepDffetf1yUY9+hDJtKreoklgyvTs/ffdo2LrxFP798J/lFhavGRp0H5efWV/6n/5xfT7H3Po0VGjXTMpiQO8Ekn6PPIgEGbieZz1+2wacs8w1926+KLz6fbb5OMjCQKTCUBguh5COAAEQKCECRx1VGcOcarua0WoItMoLvXJdu/exYJ1YQn30P/yEReYyZWr04BhL1JylTq+ae14dvAc+GclVV61iWpf1pZqN6xLkuQjCT6//ryQZv/5LeWd1oKatU2lZnSQEgtyOVyzgNJ5Ln3e9kxquzmVGubU5aUk4+iYY4/gKckkysjKpmXvz6DqOfVoy3HNKZmXnJSpchGYPENP6ZuW0+vP3UtZmXuLZZC3Xn+J2rRprRJa5OVfuXJlJb5uue1OV+eVqefHHxtJdevWobTVa6ge/1umVqNhGlTaMXnSs9SubRsllMRzdt/9DyoPppNNRGlycnLMxGF6JTAlPveC8/tRdnY27eLi//Xr11NxqY89PloJbjfbuGdGkyRTyfEHDhxQ54rG+EOv2NmxgcC0I4TfQQAEoo1AoTDszA6vwtBA2dyKTCtxmZGxT4nL4k65e80rogIznpfa6dLjbDrnkoGSxuPrSzkWmFuXp9GJG+NpfZWt1Ojioyk+t4A2bthA+/ZmUM1a1ejv3B00L3437Uw8SDkH8ymfSxdVpgRqX64K9aRUyt6WwR7PXKqVWpfjNBvSsplLqN6ceFpWMYviTzyaCvILQzX1lpe3i14aezevY76G/+SiuKbJAvpFJ1PAkphzZOcjWEzsUrFxM3/73bG9bh9wM/XnzGXxhH751TdqijlaBKYWDeV5qnfVqjQawTGmsZS049gIh3b0SiTp+NztO3bQjBmzOFb3LOXl/uCjT2jicy84bpZ4jx8cPoxq1KiuPKD169WN2gQXr9jZwYHAtCOE30EABKKRQHFEZiyJS2EfUYFZPrEC3ThkItWp38bP7pIrsj8rk+rPW0dNDlamxW22UVL9KpSSnEJ169ThLOU4XgLyAO3Yu4tyE8ux95LjKVmIJbBorFahElVk71hCYjyvP76X1q9bS1m5WdR8eQo1Zq/m55U3UL3OR7Eg9R9q8XF59PO379Iv371NB1mshrK1b9eWnhj1MNXjF7549Zb9+68SiTIV+vnUr+ipp8c5Oq0xuee//9Jp8osv05133Ea1atakOXP/pDsH3+voPOHYydi2/fsP0Avctg8//l84LhU15/RKJD3z1OPUk0sebdu2nV565XWSCgEiEpevWEm3Dhjk2AOsk3vk61TCL7p1PYaO7nKU8ppLQpl4zKNl84qdXX8gMO0I4XcQAIFoJRCKyIw1cRlxgVmlWirdMPgZqlqjSRG7q0SfP/6k3ruq0u8py6nLhb24sHplFoYH1bSseH7K8dy2X94y/8dB/i3/0NI/IuzKJRTQ7zNmU8ulXNooJ5NyTj2Wj+H5dottW/pKmjTmVhaYJvXpcFRKMsvDDz1Aqam1VPb4Bx9+4pvmdpPsc/ppp3L5mUEqWFfOM/WLab7zBkvkkOvLNPXSZf86bLH73YyJR26FkduriZg9udeJ7AXuROIt3bt3L82Y+TvN+2u+21OpWNFeJ/XkjPzW7FmOp/T0rfTrjN8csfJKJOn43I0cC3wXx10OvvN2Nc3tJtnHKPD1mBp6z10q7leE68OPPuGIT3F4WMGXj6smTRr7fpK2iJ3cspMx3KFDO2rWtPCZIHaSMW9ncwhM17cEDgABEIgiAm5EZiyKy4gLzKO6n0XnXznUslB6Oc73Wf3LDGoSl0Otzu9OlVlsKXEZwvR1OfZybl60hv6e9hc1Pu+igIXZszK30quThtHWLatDGnY9T+hBMg1avXp1X6zkY488qBJ13CT76GMkFkPqGi77dzk9yzF3DRs2oLS01dT/quv92ieFwB+Q61arRv9wqYObbhkYtP1GkeJGlMhJ77/vburHNS9F5H/62dSw1F2U9onAFkGoS/roDul6miLe33rnPVs7NWvWlO64/VYlwMz1OeVcIvaktqXEtgba3IqkQOd5ecokOoJLSOhYSaNYd5rso4+pUKGCzyuuk8Gk/NOYZ571y+A3t8ULHsZzStLWpZdcQDXZu24uU5WTk0M7duxU4l5CPaxqiIp9pdTSaX1OoRbNmwWsoSp2epW9td98970lXghM21sBO4AACEQ5ASciM1bFZcQF5qnn3szF1ftbmjyePY+Lf/2Cep/RTcWY5edJXGQo8rKwXntBfAHN/PoHSq7dlSpWrc5T6kUvK17Tub9No6kfhFZLUNc5TEpK8okv7Y2UZB8nIsKY3GNMDrJ7gU55YaKK9xQv3+gx4+jHn34JeCu5bZPxRJLcI9Ox4nUb++xzHB/6tae3rAggEdhSsF0ESz57k0Wk7GOxncoljoSj/F0Eyx+z59KIhx4NOLUssYoynSyJUrLlcEb/tm3buBxVjhI9Im50pv/X30ynJ0Zb290rgaltuHz5Crr6upvV9XWdUwmFGP7gI7ZZ+MbkHp0cpGM77eqkesVDWIqdxHN61JFH+ISlJC+JvaSubVJSBT/BGagCgjGeV84rdpXziPiXLYE917qsk4QAPPnUM5YJUXb3h6eDFCcDARAAgTARCCYy5ZK6FJG+fLQm9FjhiWgM5kXXjuRlIU8u0g61LOSmNdSgdh61b9OSE3KcFfAOZG+1IBBniu/N3E0zZ/xLTVt259xz3ky5PJxzRIv++pVX9xkZ0tDRpWMSuANGb40Wf04yho3JPcbyRjo7fcuW/+iBEQ8XmdrVxzmJ9xzxwFDqe/aZXBM0h15+9Q16mz14Tjf9IpdElUcee5Lmzp3n9FDb/URwPfXkY8rbKJtV6SMpYn/tNVdQg/r1lRj5lj1a0g7zJgJolAjVli2U6JkxcxaNG/+c33KV4n27ov+laiUcYfHe+x/RC1NeKXIuLwSm1K3UXmhjmIO2m1z0vQ8+oucnvxSQkzm5R5c30tnpIuIC2dNLHmY7bdq8hd5ndsZ6niLgZUUr+adxo4Yqm9HKg3lO37NoEMcXy1S41E+V1YiMS4rKeaQcVvdux6pY5plsx3vuG16EEQSm7e2FHUAABGKEQCCRKc2X0LlYFJfS5ogKzEuuf4RX8DnJz+RKSrLw27d7GR3RvgFVTalSJCHH7RgRgSlbHNck+vff1ZS+sxLVrluP8syJPixC05b/zSv7DHZ7CbW/FiKiW2W9apnSM/5dssrtkn30NKpZSOr4vUBT2kbP52peLu+GmwZYevaMBbrdxIVKP8RDKt5Feem7nVp3AtTozZKYu3vvG2HZB2MNTvFsTpr0In3+xVd+l3hoxDDOvD9N/W369z/SyEcet2zCBeefSwNuu1mFYATqkxcC0xifa0zUMv7dLqZVEr0uu+QiJdaMQtJJ+7zkcdMN19LVV/VX09l2VQTs2uakZJVxbMva9tfdcGuRcQGB6eQOwz4gAAKxQsBKZBrbHkueS93uEhWYannIcjw1vngW1UvJol6n9GYvFRelPrS6D4edUS4v2JOfq5WhHGG99njhspCFddP10pAyBb5x7Rr6dd5SatT6BKrGa54f1OpTzsSnWrNyEb028Y6QxuCtN99AV15xmYq3NC7paHxBBhN15uQe4xKTeoWgYFPgOhYvWNKIjuGTaXxZrnHUE2Mc99UohrwWmMbp4n379qnYTuNqQOZGGsWoOfTAyNvJ1LNRfFl9ANiJJCcAu3Km98gH71eVAMy1TPW0dzC7WSX36CUm9QpBCfwBYxUX6yUPYztkLMo4l0S0QJsX7OTcOjQj0LiDwHQyCrEPCIBALBEIJDJjUVwK94gKzAuveZA6HX2Kz96ygN66Pevo8/RP6OT9e+jcnjdSxXqNicMnOeYvm9akraQGPN1Whb2ahTFagQVmPrsnE3j9comxy+P4zXLl5N+5NOfHN+jHxHQuZXQC9U7qShVSKvmSfkRgLlv0B7330v0hjcFgsXA6cUeKYgdaHtCc3GMUWE7i7IziMdAa6MGuYdfpcArMU3r3omFDh1CVKlUcJSoZS0KZvb1XXXk5iZdNEmGEg8RpBtuM19bxkcb9vRBJxnXIzQLTid2sknt0G4OdW/bxkoeRlZOlKb1gJ32w8+BDYNrdvfgdBEAg1ghYJfRIH9wWY4+WfkdUYJ510SDqeuL5hwUma8b5a+fQx/nf0yCOizu59TlUULsppXAN9nfefJeeemwEnXb2OTTy0bG8hrgst2cdmylCcef2HfTh+69xskhbOr1vXxaRcZR9IIt+/+EF+qNFVcrd35TOSOjOiRYp7MUsbEI8ezgX/DGdPn3niZDsIZ6ws886w3Kq1S6xJlByj26IFphSe/L5F6bQx598VqSNRu+SVaymMQ7QSkg56bR+kXvtwTSu0+10tSLt1TJnT+tM90Bxf+Z+CrfXX32RmnKZHatakl6IJIk1vPuuO9S4NcciOkn2sUrusRKYVoLaSx7aSy/xkE4KxIfCTj5kTuzZQy3vKjVlZVlX+ViQEBN4MJ3cpdgHBEAg1gkEEpe6X7EoMiMqMI84tg9ddM1wnwdRqlNu3LeRpm58j87gBI7TTryKklIbUGVem/yZ0ePosRF304kn96E335/G8V/lC5d6NGhMPRUuAjN9y0a6sv951K3b8TRm3ATixGGeus6jv356m77PWUtVUk+hXlW6UzzHkenjpEzRG5Pu59V80kIam3ZelmDJPtdcfQXdeP016rpWa5c7fVGbi3Ab10DXnix5UdsllAQCoJONvM4i1/GFgcrZWLVHC3qz6NahAnZZ1cZzarFqteqSU/bBBo3dOYIl+xg/PqwqERg9y1ZeRS956A8dyfR2kiBm12/NTJJ4ruh/GXXq2J6XWOUbPsAGgRnSowkHgQAIxBCBQKWIpAvFWVaypBFEVGCm1m1Cdz70OpcgOhxHKYXR5879nlIrZlI/Xrc5P5+LpfPPO7bvor//nsNepuZcIqW1T1xm8tKR5ThIU7LCE9kTVY49RLLl5WZzjcP1lMxrfNaqVVtloJbnGM7FvMrJtG9n0AmnX0spFaS25mHk27euoklP3RJyoXUtMAMlIuiXrZX3R4tPXYRbx9fp1gU71jhoAmUayz7GlWScFuQ2D0gtViQz24kHy+mA1sIlUDkbq/MEOkbbwY3ADHaMU5HkRGCKV9WqvJNRJJprmWrxKR9IVt7rYMdKm7zk4SRUw8jBjp14byU0ovfJJ6li+rJJGMkGrnu5fPlKWrJ0KSfmrVCJWMGKyWOK3Omdhv1AAASimUCwOpfS7uKuXV6SfY+owCyXUJ5uGzaZatVu5etzeZ4O37hmI61fs5D6nNKJWjZvrESgirg8lLRz8NBKjrzSJM34/CdK/GMXFTSvRG0vOZ6Xk5T4zMLTidaURX3kv+XdlZG5n+b/s5bWrNtHrVu3o0osPvW54uLyaeaPH9IPX4vgzQ3JBnYvOaMnypgxHCy5RzdET7GKd8duCtnKk2rnBXPaYWM8n5Oi7k7PW9o9mE6EmZ4GNyY5BUvu0WyNU/y6iLuRezg8mE7Fu53AHD9ujCpBJLHS4j3+6ONP+cPlf0WyxO1mB+zuPafjEPuBAAiAQEkRcFJE3Ukx9pJqv911Iyow47nwZM/Tr6ReZ/TnFwwXZmZPZW5mNhdYn0eJDepTYsV91KFZCjVtVptq1kjhGEpZCpL/YYGpRaRknS/8agbV6NCMGjVrrH6TKXL9D8+k04Fszl7i8iar1uyiTXtSaN+q9dS6ZWNq1LkFsaOzcCvYSxOevJ22b91gxyjg7/olF0x4WSX7OEm8MSZy2CWu6Ol28ZTqqXD9N1kNKVAMp5OOG4VqoBJBTs5j3qe0x2BqgWk1Ba9ZWCX7BEvuMTLUY8/KA+5lDKbuhxStN5biCmTzYALTuJKRXbkjCMxQ7iocAwIgECsEnIhL3ZdYFZkRFZgCq3qt+nTLPRMoqVIqB/Fz/cud++jX16ZSzfZtqP6xx9CBPRupUvm9VD5/F7VoWp8qcUBm9WrVOU4rSXk0JQSzgEWkTIyL41H++0B2PmVl7KNdu3fTls3baU8m0e4DnChQhVcEYoX6z7vT6KSzT6b6XRpSrhKtOfTvPzPp8w8n0P6svSGNR7s4OH1Sc7LP+InP0zNjnqAmXIjbuHKPuRHGZSjtsneNyTxa7OoXtNval1YwdFkfEbCyjOWAgXcFXE3HKczSnkVuJ5CEk1Wyz6WXXKiWGt21azfplXusmOr6qVYxil5mkWvBKA84J2WuggnMQDG0Vv2z4wcPptM7DfuBAAhEGwE34jKWRWbEBWZCQiId2/M8OuP8G3gavIIqP5S9dwetXLWaEqvVp2p1GlL6xo20beNKOqLzkZSZuUckJFWpXEGJSrU+OYvGOJlEj5clBPnXXF5isIBLFCUksfDJpYw9e6hWw7ZUngXshlVzqFmdRlS7QQMqn5hQmGAUl02vcXLP2lV/8/Ut1pB0MBqNAjPQaiP6NDreUmo0yko0/S+/RP1kldyjjzGe/6/5C5SoC7Zpr6hMt0556TVe/eZKjkWt6UgU2HW3WbOm9PToUdSIS0YFW00n2Hlk/XRZXUdvfnUwAxRPN57PaR1MJ9nukaiDqQVSoJWYdN+MKznJykJnnN5HLXVpt8yoPr/VCktGr3NxeRg/BOw+Vowr/lhl9Adrs3nsoA6m3V2J30EABGKRQCjiMlZFZsQFpoCqXa8ZXX/nWKpYuYYqqs6hmfzvfFr41zxKSK6j/raHhVLLtp14neLC38qJr5JX5slXS5QXBl1KHBf/iRN+4lRSTzyfR9KHVFY418HM3b2N2rRtSTW42HU+ezvlvPFcZHPe7Gn0/ZevUsa+XSGPT/FMytrMUlLFLkbSOIW9W8Qvt8fuZW2s+2gVZ2duuPaUJicnq/Wt5XjJ/LYrYO4UgHEFHBGZIhbHPjvRb5k/q3NJvN2AW2+iqlyGauTDjyuvrd6MojHYlKmblXxkTIjH9777H7T0skZqJZ/33n6NWvD66na2M4pBEYvVqnJJLZ6ODlQ7VbPTCVyBYiO1iPaCh/5ACvZxIeJSYj+P695V3YtWyVu6zcFKb8lKP0MG38Fli45HmSKnNyf2AwEQiAkCxRGXsSgyS0RgxvMSO52P6UNnXzqAE3MqK27xhxYK37NnG6WtWEwFcVWoRj1eV1pl7bDnMo89lywk5YUZz8GbBfJ/LDQLWF4miLhk/cmakl9s++m/TUuUF6hli478kipcGUiXOMo+kEFvTXmA1q0+LHRCGZk6RlKScKbysoVPPjU24GmMIkJ2knYHKoxuPImeBgyUpW7c1+gRFCEgL3kvk3LkWrfwykVXsPdVahTKJvGFX38znb7kFYJESOlNREKvk3qqpRtb8drgki1srl0p+5rXuF65Ko3X5p5Cs+f86TtXKGuRS//nL/ibXnjxFSW29RbJtci17dLSVlP/q64POsR0so/eye7jQ/Y7XCd1v2WWerNmh9dmLy4PvX545cqVlXD8bvqPNOXlV30fF2Jn8ZhL2Id4LqUsllQdMNf/1N5aecgKlydGP+Ozj4yFyzg84Lx+56ilSeUekTGMMkWhPJ1wDAiAQDQSkIzwahzyp7dQV+ixisncvXsXLViwMKq6XSICU6edvcMAACAASURBVAhUrlqTevS+lI7qdjrHY1YtnPLmjSUk17zklXwyc2jb1v9of06W+mX/AXFBcgkjFozyApMXUD67JQ8W5FEiC5hyrDDjWUjWqpPKBqypgjPzuBamrpspAjMvbx999t54Wrzg55CnxrX1dJKKxICaX6RWFtZT2CKQnSyNKOfQXjAn05yyv/EFLi/6UGtfBhuhF17Qj2647hqqWbOGbzcV5sCuZhEycSz+k5I4gctQsDQnJ4d++vlXeurpZ4t4FUUIPTj8PuVxlWPkHLt371HxtKk8xS+iRv4uguWXX2eqpS7Fa2e1iadTvF8ylS+bHLNjx04Os8hUokVEjJxL2jr1i2nKA2u12WVC293BxjXc7eJn5VzG5Bfpv9369XKMk0Qer3jI9cwfF5L0k8f/iAiUDw7hKktJ/u/TqSwS+7JnP6XIfSG2HsVr27fkjw7Z5Bzbtm1T/1u8+nIeGUtr1q6jhezplo+LnTt3kVWJLcRg2o1C/A4CIBBtBOS52IVFplTUCVVc6j4ZRaZUwpnP4lKKsUfTVmICU71Uajem0y+4jVq1P05NdRs3ldDDQZfimZRNMs71PqZdfRnmsh+vGMnKoijinOw99Mt379PcmZ/z+uac6VPMza0IMSb7BEvuMTbLLtHB3IVwLu1ovJaINalT2PP4HipEwGoToSCDfe6ff5HEFho9ieb9RfjddsuN7PHsowSlcZPzpKdvVcLlrXfes7WatO3OgbeRJEnJ+uvGTcSbiJcPPvxEhTUE2tzaNpgdnAhMo/dZBFWw5B59Ladt9IKHvqYIvqt5Wc6GDRv4fUAI15UrV9HkF1+mzVv+o2efGU116tS2/PASb/5dgweqDwoRp3oTO+/mj4pvv/uBXnrldV4h63S6/bZb1BiCwLQd9tgBBEAgRgiIyGzVqgUtWrREzfgUZxOR2alTB37+pkWduJR+lajAlAakVKnBCT+3s8g8hgVBVX9xYb0yZAB7qOBM9Vscezr1JkI1+8BemvXT/2jub59ztrkkDZXMdnyP7mrt7XVcQmnpsn89b4RXtS/dNEz61K3rMapfehNBKMJq3l/z3ZxK7Ws8n4jBJUuWhXQeEW1yriOPPIKSKiTRqrQ09ootCgt31520OEAEVxNeulK8gJLg4/XmJQ9p67HHHk2NGzXi5LxVNGfuPL8QCSdtl3N07sx1b1u0oO3bt4c8XpxcC/uAAAiAAAhEnkCJC0zpcq06jenIrqdT957nUoWKXAw9tMRuC3r5dGD/Xvr2s5fo30W/cUmifZEnHMEr2q0AE8Gm4FIgAAIgAAIgAAJlmEBUCEzhXym5KjVrdRSddt7NVL1mLXZGHl4z3K19xGuZkJBHC+b+TPP/+E6VI8rPL54r2m0bIr2/eKiktEu7tm1sM9Qj3TZcDwRAAARAAARAoGwRiBqBKdglUUBKGDVteST1OPkiSq1Tl7NWD09325lGhCXPhtL61au5DNHLtD19Pe3cvsnusFLxu8QdXnLxBSoB6tPPpqryRNhAAARAAARAAARAoCQIRJXA1ADK86LjKVwjs3GzjnTM8eeqGorVUxsXJvPwP75lIyURSP5hDbpz23rasmkDzZ3xGf97Fcda7i4JnhG95rNjn6LaqbWoKtdOlKLqItDtluCLaANxMRAAARAAARAAgTJJICoFpraEKnlTkZd8TEqmU/veTDV4mUlJCkpOqcblifJp356dtHdXOm1ev4J+//Vjzg7fzwk91iVsSqN1dZa59E2ycNdv2EjjJ0yi3/+YUxq7iz6BAAiAAAiAAAjECIGoFpgxwrDEmtn37DNIShPJ8plLly2jb779vthrhJdYZ3BhEAABEAABEACBUkMAArPUmBIdAQEQAAEQAAEQAIHoIACBGR12QCtAAARAAARAAARAoNQQgMAsNaZER0AABEAABEAABEAgOghAYEaHHdAKEAABEAABEAABECg1BCAwS40p0REQAAEQAAEQAAEQiA4CEJjRYQe0AgRAAARAAARAAARKDQEIzFJjSnQEBEAABEAABEAABKKDAARmdNgBrQABEAABEAABEACBUkMAArPUmBIdAQEQAAEQAAEQAIHoIACBGR12QCtAAARAAARAAARAoNQQgMAsNaZER0AABEAABEAABEAgOghAYEaHHdAKEAABEAABEAABECg1BCAwS40p0REQAAEQAAEQAAEQiA4CEJjRYQe0AgRAAARAAARAAARKDQEIzFJjSnQEBEAABEAABEAABKKDAARmdNgBrQABEAABEAABEACBUkMAArPUmBIdAQEQAAEQAAEQAIHoIACBGR12QCtAAARAAARAAARAoNQQgMAsNaZER0AABEAABEAABEAgOghAYEaHHdAKEAABEAABEAABECg1BCAwS40p0REQAAEQAAEQAAEQiA4CEJjRYQe0AgRAAARAAARAAARKDQEIzFJjSnQEBEAABEAABEAABKKDAARmdNgBrQABEAABEAABEACBUkMAArPUmBIdAQEQAAEQAAEQAIHoIACBGR12QCtAAARAAARAAARAoNQQgMAsNaZER0AABEAABEAABEAgOgiUqMDsf/QuOqV1BjWveYDKl4sOIGgFCIAACIAACIAACJQWArn5RKt3JNGPK1Lovb+qR6xbJSIwG1TNpUfP+o827ylP3y9PoRXbkig3Py5incaFQAAEQAAEQAAEQKAsEChfroBapx6gPm0yqD7rr4e+rkubWH+FeysRgfnq5Rto5upk+nJx1XD3D+cHARAAARAAARAAARBgAud03EM9m2fSDe83CjuPiAtMmRZvVyebxv+aGvbO4QIgAAIgAAIgAAIgAAKHCQw+aRstS68Q9unyiAtM8V6+Obc6LfmvIuwNAiAAAiAAAiAAAiAQQQId6u6na7ruCrsXM+IC8+eBK+nyt5oh5jKCgwmXAgEQAAEQAAEQAAEhIDGZ71+9hk6e1CqsQCIuMH8btJL6vdI8rJ3CyUEABEAABEAABEAABKwJTL1xNZ0wAQIT4wMEQAAEQAAEQAAEQMAjAhCYHoHEaUAABEAABEAABEAABAoJQGBiJIAACIAACIAACIAACHhKAALTU5w4GQiAAAiAAAiAAAiAAAQmxgAIgAAIgAAIgAAIgICnBCAwPcWJk4EACIAACIAACIAACEBgFmMMJFc4SN2aZFH3xplUqUI+pSQepGY1c9QZ1+xIpIyceMrKLkez1yfTnHWVKDM7vhhXw6EgAAIgAAIgAAIgEBsEIDBDsFO3ppl0Toc91KneAVdHz1mbTD+uSiH5NzYQAAEQAAEQAAEQKK0EIDBdWFYE5aVddroWluZLLNqSRB/Or0Hyb2wgAAIgAAIgAAIgUNoIQGA6tOgN3XfQuR33ONzb2W5fLK5Kr86u6Wxn7AUCIAACIAACIAACMUIAAtPGUBJnef+p/xXbaxnoMjJdPmFmKuIzY+SGQTNBAARAAARAAATsCUBgBmEk4vLxszb7EnfscYa2hyQEDf+6flSIzMZNmlK5cuVozeq00DqDozwh0LFTZ0pLW0n7s7J857P6m/lisWy/Zs1bUH5+Pq1ft9YThrF2koqVKlGLFq1o8aKFsdZ0tDcGCcTysyIGcZfJJkNgBjH7qLM3h81zab6seDKf+KGOJ4OwQcNG1Pfc86ly5SqOzrdwwV/0/fRvaNTosdTl6K703Tdf0YRxTwU9Vl6Gl/e/hnbs2EZTP/vE0XWC7SQPu4GD7qG27dpTQkJ5+oHbM+7pJ4p93mg+gRXDXr370O133k0H9mfRM0+NooV/zyerv1n1y439oo3L5JfepIaNGtHHH7xLb7/5atibd0Tno+iEE3vRnD9m0V/z5ob9enYX6H/ltXRp/6tpy+ZNdOuNV9ntHnO/N23ekqpUqUb//D3P1/YjjjyG9u7dTWtXr/KsP8Gefdu2baU/Zs2kFcuXeXa9WD1RLD8rYpV5WWw3BGYAq9943A6VKe5mk3jKNTsqqEOa1cwmidt0s325pCq98kfxYzI7H9mF7rlvBNWslero8jN++ZFGP/4wPTFmPB151NGOBOYtA+6kc/pdSAcO7Kcpz09QArU429AHRtJJvU6h3Nxc+m/LZlq1crkSWKV5s2LY+9TT6fY7hlBWVqZPYFr9zYqLG/tFG9cXX3mb6jdoEDGBOX7SS9S6TTtat3YNDRl0q/IUt23Xgc7s24+qVatG7771up8QCfabFyyvuuYGuviyK2jzpuAC86JL+9NRXY6lpYv/oXffft2LS6tzTHzhNfXvDevX0dNPPlLkvPfeP5IaNW6i/n7nbde7uu7X389U+69atdJ3rP7bV19OpckTn3F1vmA72z37CgoKlIf8808/Us+5WNjCMfZi+VkRCzZDGwsJQGBajATJFhfvpdttxLT6vsxwL87h9vp6f6uv+Bo1a1GnI46k/ewZW/DXn0rI6W3t2tX0yYfvuRKYZ/U9j665/iYWQlk0/pknlaetOJt4sOQFNvWzj+mVKc8X51Qxc6wVQwjMyHgwh9z7AHuGT6WFC+bTgw/co8ZMMCHvVOSHOvicCsxwCQMt+KT9E8c/Q99Om+rXFRGgLVu2Un87q09PV90sCYFZlT8SvvtmGi1bupiqVq1K4kFt1KgxNecQhMTERMrJzqb/ffIBvf3GK676UhI7h2PshWsclQQfXDN6CUBgWtgm1KlxLwSmlC6S83i96RfYnt27fZ4x8zVK8qETaQ+W13y9Oh8EZmQEppW9IDALqcisxA3XXE67dh6egYlFgWkVbiGhEbcNvIskJCcjYx9Nfm4c/frzj17dvmE5DwRmWLDipBEgAIFpgixF1B84NT0k9F4ITLmwxGJ6XYw9FIEpD2H54s/KzKC5c/5wzESmHhuyt0C2jRvWO4p5shOYEq/Y5ehjqUKFJNqxfZsjj6m0v3adujRv7uwibdfnS0hIoCU83bh92za1j/57+fKJtJqTbOwSTmqlplLt2nVp6ZJFjvkE29FLgdm123GUwnG4djbQ9srOPkDz2bttTCwK1tZQ7BzofEb7f/Lx+8rWTm2g22EeF/rvGfv2Ohq/XghMNyxl3/oNGqpxJuEhTqbInXwEhnKvGD2YYiPjdLb8d2kRmNIXmUYfMnQ4pabWVuPi4RFDiwxLbcf8/Dy/54Obm9zp81Pfp4HGaSgC0zgGrO5r8zhy0lZ51nXoeAQngSaQ03tKWO/fv7/IO0D32emz3A137Bs9BCAwTbYY3iedujbJDMlCXgnMueuS6fHvvUn40R1xIzB//nG6EmYS+yMZ5bJtTf+PJk0c6xNrVg89eUgNvnsYtWnbnuLi4nwM9+7dQ+9xvNgXn/+vCFfdLkns0ZvESX379Zf03Pin1Z9uvu0O6nP62ZScXLgCkvwucZrvvvUa/cRt1ZuIlJTKlWkiJyj1PfcCOopFSnr6Fho5fCj1PuU09QIXb0VeXp6aHhWxKpt4Mt5/5w1KrV2HTj3tTEpJqaz+npOTQ9O//Yq9HM9ajodBQ+6j0844i9JWraI7B9zg20cY9Dn9LPViGjpkoO/vDz36JHU/7gTSMa9OxaTTF4x+acz+4zdq0qQZ1a1XX9nh4MGDtPzfpSpxyyiYj+nanW66dSA1bNjYZy9hMfXTj4PG9zmxc6A26xg5mcI0epi0wPz9txl0BL+UqlWrrrjl5eWqJJwxTz7qE77azmKzfudfTBISIv2UcbFo4QL6lKc+r7j6emrRsjXFx8erv2/auIGe5/GrQznEdqef2Zf+5gS3B4YO9oWHGA0tL8YpkyeoJCuJTbb6bfq309Sf3bC8+NIr6LwLLqFq1av72i1jUj52JAbSKslH8xThYNz+4dCUYfcO8v3J6b1iHtBmgSm/f8gJV2+++qLaNZDArF6jJt1511BfvLd8nHw59VP6bcZPvkvYTZG//87rdPmV16kEv3+XLfWLybzmhlvp6GO6qnM5if0MNL7M/R046G468+xzaevWrfTkYw/5BJB4OG+8ZSCPnVa+e0KeA7Nm/qKef8E+vuT+k2efTLsf3/OkoM9Pac/5F11KMhb0WJe/7d69iz7+8F367JMPVZP1PR1s7Jn7dsVV19F5F17qe17K7/IMWPzP376xos/r5Fkvz+hT+XlWi2P6jc9187NCj9GVK/6lzznU6cabb6d69RvQzF9/UjH+sknb+l1wse8ZK/fmxo3r6eUXJ1k6Asx9w3/HFgEITIO9pCzRe1etDdmCXglMaUD/t5t6WrbIjcAsKDioysVIqSKZUu/IsZtJSUkkwuXRh+5XfKwExIiHH6fjevTkh3Y6LTvk0WvctJl6ML30wnP00w/fFWF79jnnqRe9eHIqVqzIwnELT9GJJ20uvfrSZH7Y307nnnchPyALuHzL37R71y7lVW3C581kz6rEa+qXvAgPEYkiJuQFkZOTzcJqGb328gvUrXsPJTAP5h+k8onlaRu/WFatWkHtO3RSD3iJySrHL/h97O36d9kSJbpEuOzcsT1gSIEIjwF33KUE64SxT9Gc2bOUB3TM2Enq+vJ1rjPB5VyPPD6GatVMpXfefk3FvIZLYApk8VqsWP4vZTNLsV+FChVowfw/acSwu5UN5ONBEqvq8IfEmjVp9MtP36u/HXNsd/UyevO1KQGrAzixcygCU4SrbJmZmWr8JPF4ENERH19OVRUYP3a0+l3sLB7ygwfz1TiVfiawV6V123bqBZjH8cXx5eL9xq/0//vvvvadwyww7xh8L3PqTPXqNeAxkk9b+AMmNzdHJYLIeAv027QvP3fF8prrb6bz+eWvS4GtX7dGXVPuE/mAkg8AK4EpHp/LrrhGvbCrVq1GkhGdsW8ft3MTjXp4uOLi5l4x34hGEahjLWWqfMigASrL20pgSlzjuAmT+dlQsch9bYzjtBOYkuTz7kdTqXr1Gmp6/oJzTvOdT//d7FEN9JB2KjAlQfG6G2+lAh7rz/M0uTybZPwNHzlK3fvp/21RzwHpWycWnZX4vjbeP1bXF9HW+cij+HmQz+OQgj4/5frX8lhI5HG5gp9RYkcZBzKGZUyLyJQP6GDjUsaeeetx/Il055Chqr3/8MeWPC/lg1nubSl7Nvy+u9QhWmA6edZLG+TDWyocrOVnhTwfWrZqo56P2/hZL+JRWOl7fg87FOR+rFmrFu3bu5dm/farchZcctmVJNUSBM68P2erY+QZ2qxZC3XuR0febztjFMju+Ht0EoDANNjllFb76M6TCqdKQ9m8FJgTf02lH1cWetK82NwITPmKloebfoBpj5zRu2IlIAJNc8vUioiGYF//VsfKQ3HY8IdJEpS+ZO/ny1MmKRQi4h565Ek11SU1A7WXUM4hLwl5AM5nr9fE8WN8U9+6/3L8Tz9MpykvTFTtkazcK6+6nhLKl/c7plv342nQ3fdRhcQKvheQ2Q7SjnETXuQHbUOfN67niSfTwMH3qBeTvLy0mOzDD+hbbh/EAnafz2MSLoEp0/2TJ42j2b//ppqs+y7CXbyxIia1B2d1WhoNvXugzzY6m9/sfTX23YmdQxWYa9esponPjlEvH9kkGeeUPqerDwL9ItN23rx5o/rA0P2cOPlVfvG1Vl4g4/iVMXQiT0Frb6Wc1yww5W+hTpE7ZSnTrveJqK9bj8RzNHbM4z6sxU3ycXuvmMeyMatbfut7Tj+1ixZ2VgLzKf6Q6sSiXEThww8+wN7XNfT0uOdVNYBdu3bSFZcUnsOJwBxw5z2+a2pxKgJ28pTCTPnXXpnCH2Xv2D4KnQpMbWs5oRaY2o5bNm/2EzvyEXwte1LFG/76Ky/QV198ZtkOLdrsnp/6I7R5i5bs6f2Znhw10ne+e4c9qGZXNm3cSI88NEx9LDudwTDe6+ZqBHJN+YDRoUBO2yrnlJkQ2WTWSG9Wz0ejl12erVM//4Teev1ldcjhPregb6Z9QZMmjFV/F5E68tHR6hqf/e9D5lvoMcdWOghAYBrsWJzpcTmNlwLT62lyNwLTXAfT6uVn9dDTD610nk7/lh8iP/7wre+BZne7WIkWLf7Eq6g9gfo82gMhXpwxXFZFhKYWHjINKl/DRkEb6AVuJ4QqVUoOKDClLVp8yzVlqlV7kcR70LHTkcoTK15f/fKaM/v3oF5gp6LTimeg+DztPa3N3t1PPnpfPfRFjElhcwkxkDqoehNP8gUXXaa8Y5qr+VpO7GzHNdAUuTkxw/ci43AGma4Wb3UggRuo/1Zi0kuB6ZRlMxZM4jXL5DAE83gursB0e6+YbWouG/TKGx8ooSiblBIST7Ixi1ymxt/9sNCD9vNPP/hKG51xdj+6kz+wZHvisZFqqtyJwDSKSblHHnnwPpLp8Ut51kG2Ky49zy/pKNDzpDgCU+woMw9GT7e+ztjxL1Db9h38QncC3Rd2z0/9ESpebHOJNz3eJf5YQjrkY9CNwNQfspIp/+ec2fTN119YTj0HulfsxqF8JB3Z5RhqxR5MiZOWTQt03U6ZIfr04w/ojdde8iHSfZY/fPzBO7Rz507fbz1OOJHE8yrPSj3DYve+wO+xQQAC02Cnx8/eQh3r7Q/Zcl4KzMVbKtLwafVCbov5wEgIzJ4n9VYCS4LnZRNPoiSYiCiQuLhgm5VokHNJjJ18xZunDa2+oIMlCoVLYJo9k9Jm8Uy89/YbPBV6CWXzNL3EgN73wMPKu/oexw1+9P7bCoVTMen0BRMsAUSLb3n5ffLRe2q6vn79hgFNYpzeN+/kxM5eCUwrwRBNAlOLdycsO3Mc50WXXG5Z69Luxa5tEMjGbu8Vs03NAlOKoI9++nDssXgkZQpbNilTdMKJvemBB4vWyzSe143AlOO0qNXT5Pq/F/2zkO5jL7uTzanA1LwzMjJUeIvEAco9IR9hVtnnVl5wc3ucijb9cWz1oWH8GNTtcHr/6/bcP+IR6nHCSb74eZk9EvEmcZ16ZsBpW+Wc4n284aYBfM4TVXiGMQ5TPuLNAtNYw1e3SfdZQq0CbcYZBie2xj7RTwAC02Cj8edvLNaykF4KTFk+cvBngQWA26EVCYEpbZLp8L7nnE9dODC/AccySVylCE1jDJ1V22NVYOppcpn2lLipszhxQF5aUrx71BNjqUmzZvQRJ0ucx4HtEuepp3lLQmA2atxYhT3Iykv6ZaprBZptYpdRbmdnrwWmrEqlww2iUWCKMLFjKUkPZ5x1jmUiT7QJTBkPxmlr4/gwC0yZjs3i+rrm7ZUpk9XKPU48mHLsRZdeSdffeIs6jUyJ6/9tVZcz0PPPqcB8eNQYkrjWVStXqAQ9K2FnvEYsCUxpt3gEe3NoSevW7TjEqKaa3pe43XEcliGzLU4FpjzfRox8XCW5HeCkN6ky8dvMn9UMh8zeGGd4gglhLTBFkH70wdsqVMi8IaPc7Vs9+veHwDTYSGAUZ/NSYEo7+r3SvDjN8Ts2UgLTeFF5ON06YBCdzBncW7f+pzx54o10KjDdTvuVhAdT+lIYt9ibxNPSlrNIJRlKhKQkAEkx9eWcGduqTRuexv9HTaPrLVIeTP3SNYq0wunAlkpwBsqSdzr4rOws2bTmFYnkfHZZ5GbvkfYQS+LDJC4APpNj1qJJYEqfnLLU9+COHTv8MpflHFdfd1NA76bRDoGEgdt7xWzbQCvrGKfK9TEiMI1T2sYpcqsx41RgGqfdxYspcczGpB+5piTgyLZk8ULLKXMnAlMnWsXHx/l5K0vDFLkVf8nCH8iJOpJsqReycCow9f2Xl5tHLzz/rK9mqObsVGAap8j1fez0+YL9YpcABCYEpo+A04eOHGAljqTkxiIuhaGnYWS/0844m25hkZnJXr1AMX2yX7Akn1o85f71V4eFULAkn0DLDYZrilzaLuu+X3fjbarMjDGxx5jwI1mlZvEUKYF5N9f8KxT56TTmiUeUfXTsqFX2pmT1H8VxVrq0iPnx5sTOUuZKBKaECBgz7Ifc8wAdd3xPlQFuVabI+Dej90SWDpVyPOIBiTaB6ZSlHg/i1TfGqHXvcQINGDhEef8DZZFrGwS6R3WSj9N7xanAtMoU1yv5GDO/xz092leaSDyR5194MQ3nigWSge5UYEqbRj72lKr4oDcdjyn/bfSo6ul3cz+CCUyJH7zw4suoG5cKK89JfTIlO+qR4b5YbR0nnZ5++D6R87tN8rGLwTQm+cydI/Gmw3zdKG6Sj3guq3EogzwvjdvopyeobHhd/s3ps14/N6WqwuCBN/tYXcmliyRW25iFH8yDqWd6JEzInNgkv11z3c0qNvntN1+NXTWFlhchAIFpQDL+Ap4ir5ET8jCRdcTX7ExUx8t5ZD3zUDc5z+BPY2uKXF78depy2Rsub7R500Y1LdOOywBJKRy7+JpAokG8gGdy4oCU05AaeVKPM1iZopIQmDoTUkrnGGMX9UNVSirt5hi2cbykprHoe7gEpiRFiVCRtkg5ESltI0uDSpbmm4cC743Fpvfu2UOL2SMkU/hNmjZXsaLSXnMiih7LTuwsdSGH3HM/VeUSUNu5HRvWr+UkkTaUnJJC+VzWScoImQWmLBUqsX6yPrgsadqGBYFUEMjiGLLXX53ie2mGS2BqAZicnKL4yViT+OHfZ82gYL+5YTlq9Fi1lrjYQ2qTygu6Veu2qnSWlGOSmGWrMkWava6lKjUIVyzn8jac8SzJIEqAubhXnApM2c+YbCP/rQWmMaHH6jnnNgZTzmE+57B771LT7G4FpowbKVMmZclkk/GWyBUhJH5QvOGyXK6xyoTsIyL9nmEjVGyyZFsvXfKPOsZNmSKZSrYTmHIt8Tj359qfkoyzOm0Vj7fCclXmMkWyb7CxZ+YugvDCS/rTnj27SepRyrS21FuV+p7ZB7Lp1ZcnK5HpVGAary3jVco3yTNCwm1kvEoZNCcxmNJOqU0rH6ci7mWcp3GZOCnTpO9znSgZ6jsTx0UfAQhMg02Km+TjpXljLclnBT/MBvASbN2OO57LYaT4AsEl/lJehFIH0+jZDMfkPgAAIABJREFUNLMKNr3ttHh0SU2RS18CxWjpvxvLKem+ey0wJTNavINS907EvWxSyHgnL/knSVa6eLO+vkydXXP9LX5FpXURe5lKsyqML6LZqZ1vvX0wncHeUHmJyCaiSGJxRcDKC88oMB9mz1WHTp1V/T6dRCBjRzysUlDdXFDf6kOiuFnk0sa7uCzSyVwmRgr/S5F3nXVv95tTltJ38ehL/yWLWNvnKy5OLgWoRewHE5gi3AewZ1g+2oTThg3r/DxLTu8V8/0XaIpc7xeo0LoIwosuvtyXcS77y0fCrN9m+gqmu/FgyvGffjldTY8bSx3J3914MGvydLBxk7Ek40884V9zVrx8NFhtxS207lRgyrWdFFrXbQw2Lo39kAUlLmIRJx9repEMfe9JeSVdNsipwJRjpQ7mKX3OUGJYNonPlgURhLFkkzsVmHKsCEzpt7G4vNxnS5csVotxSPUNbKWHAASmwZbFLVPk5bDwukyRl22zO5deZk0e6k6WW7Q7n/7d6dKHTs9XmvcTG9SrX9/RMnd6mTjh4cZeTuzsZAk6sx3EIygrMrlZttJLW+ol8aSAvrkNwX6TNjhlqfeT9b716kJu+iCM5AUfaBnQWL1XjB5MKY8kRdhLYtP2kWL74R6H2pZ2SS52Y8/IybhUpNNlHYNx9pqH7rNdMmFJ2B7X9I4ABKaBZXELrXtnFk4c8LjQupdtw7lAAARAwEsCErcp3m5de9O4ipCX18G5QAAEIkcAAtPAurhLRf60IoUmzKhNcp4bu22n3q0zQrak10tFhtwQHAgCIAACYSZgLFEkl3K6ck+Ym4XTgwAIFIMABKYJXqjT5NsyEujGDwpLaOjtlcvWU2pKnmvzxPL0uOvO4gAQAIEyT0BKFF3OSS+ZmRlcCucHlX2ODQRAILYJQGCa7NetaSY9cGq6a6taFUYPtXD7Ez/UoTlrk123AQeAAAiAAAiAAAiAQDQQgMC0sEKo2eReFFr3Ons8GgYZ2gACIAACIAACIFC2CEBgWti7U70DNOrszSGNBO15FE9oKJtRpIZyPI4BARAAARAAARAAgZImAIEZwAJSJP2cDnsiap8vl1QlKdaODQRAAARAAARAAARimQAEZhDrhTpVHsqAQGJPKNRwDAiAAAiAAAiAQDQSgMAMYhUpN/Q4T5UXZ/lIJ0aXZSGHT6tPmdmFq69gAwEQAAEQAAEQAIFYJgCBaWM9EZmSVd6x3v6w2Fk8l+NnpEJchoUuTgoCIAACIAACIFASBCAwHVIPR0wmYi4dwi/B3WSJNFnTd83qtBJsReQuXdb6GzmyuBIIgAAIlC0CEJgu7C3Z5Zd12VVsb6aUIvpgfnVatCXJxdWxa6QJjBo9lroc3ZW+++YrmjDuqUhfPuLXK2v9DRVwzxNPpvYdj1AFwf9dtsT2NEd0PopOOLEXzfljFv01b67t/l7t4MV15YNj4KB7qG279pSQUJ5+mP4NjXv6Ca+aGFXn8YJXVHUIjQGBEiYAgRmCAaQE0amtMqhrE3eliGQ6/IvFVSEsQ2BeEoc8MWY8HXnU0aVKYLZt14HO7NuPqlWrRu++9TqtWL7Mh7Y09tfrcdO6TTu674GRVK9+A/p7wV/0wNDB6hLBuI6f9BLJcevWrqEhg26l/VlZXjfL8nxeXHco9/WkXqdQbm4u/bdlM61auZyeeWpURNofjotEo53C0U+cEwSigQAEZjGsIPGZ3RtnUvemWVQp8SCvQZ7vSwiSxJ3M7HKUlRNPs9dWotnrkxFnWQzWJXFoaRRcvU89nW6/YwhlZWUqobDw7/kQmC4GV8VKlWj4Q4+ReLt+/P47n2c7GNch9z5AvXqfSgsXzKcHH7jHxdWKt6sX15380pvUqHETmvrZx/TKlOeL16AoODoa7RQFWNAEEAgLAQjMsGDFSUsDAQjM0mDFyPQhmHCJTAvCc5UXX3mb6jdoQB9/8C69/ear4blIBM9aWu0UQYS4FAg4JgCB6RhVbO9YKzWVOnDcmGxLFv9D27dts+yQxFw1b9GK4uPjacf2bX4eLuMBMuXXsFFj9aeNG9b7TbXq/ezO5VVCSddux1FK5SqUsW8vzZ3zh62hhEWLFq3pn38WFJmulHOVT0yk+X/9SQ8+/ITlFLl4sbocfSxVqJBE2dkH1L5Opz2Nxwbja+yEcKpdpy7Nmzvbtm92LNx4MLX9sjIzgnLVY8Epi85HdqH9+/dbjhndQTeMdZ+d8pT9KyWn0Oq0lbR+3doiTO3GrZUR3AoXGYO1a9elpUsW2dpU7+C2n05OrDknJCRYPhfsBKbX4zlQe/Tfy5dPDGg36a+MrZq1UungwYOW+7m1k5Gh3b1l5m3H1ol9sA8IxDIBCMxYtl6QtusH6UqOmdqyeROdfMpplMjCSbbMzEz6/rtp9NILz/nOIIH8J/TsRZWrVKG4uDj194KCAtq5cwe9/cYrNP3baepv8vIdfPcwatO2vW8/+fvevXvovbdfpy8+/x/Jg/W++0fS0cd2UxnYehMBMvXTj+mN114inVAy+4/f6NGH7vftI15DeUn8+suPNOaJR3x/nzj5VWrWvIXfVN35F11KF196BccTVvftt3v3Lvr4w3fps08+9DuntPflF59T7RYWMkU8YexTNGf2LJKX/Q033U7dexyvRKNs8oI6eDBfJTYYk3yuuOo6Ou/CSyk5Odl3ftl38T9/07B7BwUdTTffdgf1Of1s37HCV+La3n3rNfrpx+m+Y+WlnlK5Mk3kxKK+515AR7GYTU/fQiOHD6VNGzdYXsMJC+2RNZ5AhN6UyROUffXvP3NbRNBKvJq239b0/2jSxLF+IveYrt3pplsHUsOGjX1jISNjn7LxuzwWZPONwxX/0uc8zXrjzber+MWZv/5Eox9/2LIvThnLfv0uuJhSUir7xuvGjevZzpN87TRef9GihXQO86xStaraPz8/n6SvOmnFybiV48yebTuug4bcR6ef2dcXs3nPfSPUGFydtoqG3j3Q93HSoGEjeuTxMVSnTj2/ce6kn1YgzdeVfa665ga6+LIrOEHpR8rJyaFeJ5+q7lfZcrKz6X+ffKDud72fjH+9yXj99usv6bnxT6s/eTGeezMH3Z68vDwVSqDvQRlL77/zBqXWrkOnnnamz87S7unffkWTn3tWtaNlq9Z04y0D+d5u5ztW38PL/12qwhjkQ8KtnXS/ndxbbtgGfUjgRxAoRQQgMEuRMY1d0S/W8onl+eUfr4Ti8mVLqUnTZsrzmMsP6ff44f3RB++ow0TwiYdzw/p1yiMpHsz2HY5Q4itt1Urfi3DEw4/TcT160tat6bTskPelMZ+zFnsNRLD+9MN3dMuAO+mcfheyR3Efv1Tnkbw46jdoqK77JQtQmWq75PKrqP+V19L27Vt9wkkEzbDhDytxY0yI6Nb9eBp0931K7Ewa/wzNnPGzOv+1199MiRUq0Ip/l9GWLZuoXr0G1JpfMiIcRGSKcNOCoGOnI1Q/WrVuq4SjvHDeev1lEtExYuTjylN5gMWWeHdFfDZt1kJNDRoFZo/jT6Q7hwylSvxC/mfhAtq9a5d66Um709gbNvy+uwKOphtvuZ3OPe9CvnYBLV70tzpWPMVij0z2EEp8mxbxIjDlpSpiskXLViwEsmk59/G1l1+w9Po5ZXHH4Hup4xGdFaeDzGgLi9vc3BwloKd9+bnvBVxQcFAxlNJMe3bv5mOOpKSkJDJ+DEifJQGkDttqzZo0+uWn7xWHY47trsT5m69NYZH0iU9g7uEPkIRyCexdqkX79u6lWb/96hMqRmhOGV9y2ZVq/PDgpnl/zlbZ3L1696FmbDf5oHp05P3Kxub7YB97uWVfEcUi6ETE6DHlZNzq8WRM/rLjahZ6fVgs3XL7IMVJRJKwk63vuefTdTfeRtkH9tO4Z55UItlpP60GXjCBeTD/IHvqy9O2rVtp1aoV1Lp1O3Wvp/OHxJOPPcT3SRsliuW+rVixIn8IbaEDB8RbP5defWkyCzpvxnO37j2UwDS3p32HTurDUURvOfaumu22c8d2Xwxxx06d6d77H6IKiRXUfbiLn3VVqlRV47ZChUT6ZtoXNGnCWHJrJ2Hq9N4yCkw7tsbEulL6+kG3QEARgMAspQNBv1grsDCY9+cceuqJh5WnRLwVDz3ypPISLluymO4efJsiIJ5JEVbGqXN5uF53462UyS9hnRASaMpMXk7iGZVrBIpdNO4j1xdPjrRnyvMT6Hsuf3LRpf3pyquupzgWtwf4Jatf/NqbsnbNGrpzwA3qmDFjJ7FAa0m/sdh8ctRInxXvHfag8oJs2riRHnlomBJpuj3igVnJnrQX+Xq6vMwFF11GV117A+Xl5tHrr06hr7/63Hcucz90OzZv2kS33niVbz9pj3g0A4UdaOFco2YtJbBfnjJJHWu0xWIWukOHDFR/F8ZiDxEg87mszcTxYwKe2y0LJ1Pk4gUWcS6iUzbxWPc5/Sz18aH7PXDQ3XTm2eeyFy7Nzwuns45FqEt/9PWknTI2pn7+iRL2gTYnjA/3uYVPPMj5RDCOfHQ01a1Xnz7734f0+isv+q4v94GRpR5/VTmbXscXOhm3ch2r/YJxNQs9af+4CS+yjZsoxtoTpzlrdm766VZgyv4//TCdprwwUdlFi944iqPnnxunPhT1WDTHYHo5nrW9ze3Rz4KE8uX97KY/NkVMGtspYRpm4SYfqydyBrwx29+tndw8ZwL1JRDbUvrqQbdAwEcAArOUDoZgD1Lx/Fza/2rlnRrz5CPsUVvoR0Fevkd2OUYJuKP437KfFpj65Sqejm/ZM/DjD98WET/6RSmequ+nf83T8V9bxrrp6XD5ffzY0cp72f24E2gJe0YlS/ebaVPVy/fhUWPo2K7dfC9jqUM4cPA9yqOpxanugH4BSazW8zylK94h3Wbxij456iG/tli9hPS5zEJCvygk1ODPObPpm6+/cBQXqV+W4oUxZ25rES/eXm0LLTAlw1s8ccHiO92ycCIwzXU/rUSfDlmQqf2FXK5Hb+LxEtGu+yPeaMlaF2/Zpx9/oMIjgm1OGOs+y3k+Zg/8zp07fafsccKJJF5Q8bSNGHa3T2BaZc2bP5bcjFtz+So3wkUaqwV62qpVvo8mEZ0NGjb0CV43/XQrMM0fSVpwV6qUbCswvRzPgT4oAvEM1E7dfxHlEivZoWNnate+o5oBCFVgur23AvXFrs2l9BWEboEAPJildQwEe+FZ/SYesyuuvl4VFjfGFwofSZ7QwqjnSb3V9Fhqam2FTrxsMqUu07ufcvyWbOLhEK+NnFPiOcVzuI2n1EXsfciCQAsmo2dSPKzifZLpuM/+9xH1v+paWsceS/Gw3P/go6pNejrRyrOq7ajj2GrzFLOdZ0qOGf30BDqCBbVVMXUrT9X9Ix6hHiec5ItNFK+tiBmJ+QxUdFt49Tv/YuVNNXo+5fpWHhm7xArjmHXLwguBqRnXr98w4O2jx4wkXAQqixToYDvGus8ybR9o06IiWH/NnJ2O2+J6MKXNMp0/4I671L0hnnrpi0ybizCX2FQZS276GUmB6eV49kpgihi88JLL1UexMW5UuIQqMN3eWxCYpfVtin6FSgAezFDJRflxbgTmrl07uXj0wyqJZu+ePSrxZdbMX1RmtpU4kKnuvuecT12O6coel8ZKFIrQlFU+xBMpm3gSzjjrHDrhhF7UiKcCkzlrV7YF8/9UniXZ9Je9xFh9zokhl3As1orl/yrPoyQ7yDTY1+wllUQeEWc6IcLtgz9YuSGp89e0WXPHAlPaLR6y3n1OV3FrNWrWVPGq27ZtpXFjHrfMuvfyhWwedm5ZeCkwRcR/9800WrZ0cZG7QWeUS7yuW4Fpx7hxk2YqdEM+VD764G2Oz9tX5Po6o9yNwHQ6br0QmHItY+KaCEwJOfhz7hx6eMRQ1R9tWyf9LMsC86y+59F1N9zClQGS1ceurLAkYUHC05hcJYzceJrd3lsQmFH+UkTzIk4AAjPiyCNzwWAPUi14Nm/eSIMH3kwXXXy5CrSXGMIxTz7q88Q5KekhQvLWAYNUVuzWrf8FzHS+krNXL7z4MlWeRmdvC4kx4yapZeiWLl7Ey+91UlnokvDy0KNPcsJIN1q5fDm1bd+ep9kPi1e3U1fBBKb+zZzNLm0L5t3UVjyaRfZATp6RJKdAxahDmVJ0WnvQLQsvBKYWRy1atvSLIbQa2U7GkN0dYWYsyWoSIiGbjtMNdA63AtN8Hqtx65XA1PehxA4m8seUFDRXiXfvv62aYZwit+tnJAWml+PZCw+mtsfvs2bQWP7I0zMkVklObgSm23sLAtPuTsbvZY0ABGYptXigB6lMW98/4lE1fa1LAekH8T8c82cstSN/P6XPGRyDucs3RS7exEVcksc4HXzaGWdz5vggTgbKUHGEEvckngTjustSaufuocNVGREdGynoxRN1Ppf9kalCY2KPMeFHMp2NsZbGxJa5c36nRx4c5rNisCQfq2lwmaY8+5zzVByflDPRtSav52zec8+/SJV20seJ57Ja9Rp+iUBaiHbimFFjCRfjsNJJEbU4rECSiHRSR7AkH6cC0y0LrwSmjlc0ZmzrPovXSGJ3ZarXrcB0wviVl54/lCTTtEiSl/C45rqbVWKaVCtwIzD7sb2djFuvBKaUeRpyz/3K2y/JNbv4PpMMbp2scjgZyL6fkRSYXo5nLwSmDnX45KP3fQlk8nyT541UjQh1itztveVGYErpKQm1kYS6NzkuGZnlpfRFXMa7BYFZSgeAfrEm8fS1lPSQEj15+XnUkYPfpQ6gcUpXi7n4cvGq/I7EgbVs1Ybq1K3H079xfPwOvyzyOnW5NA2XsNm8aaOaHm7HJUWkXI1+kMsLWMoCrees4/WcWCPT5y1atlaiVhJtHn90hK+eo37JinAzlibS0+cSwycvfZ0Rrs0lbe5/5XVKAEo9wfXr1gQtUxRoTXG5zhB+EUlMqYQHLF26SNUhlLbmc3klKYOkBaa8QC68pD/t2bNbZaNLWaNq1aurhKTsA9n06suTlci02kTInnl2PxbSB1mcLyWpKxmsTJFTgSnXcsNCe2UkZEHK+Eg7JH5WvD+BPL1WL04zt8WLF6qSMk2aNlfsdnPYhcTtuo3BdMpY4oXlY6c8ZxnL+EjjUjtiqzacTSzZ+pIgJeuEuxGYTsetFadgXK08aXqMiAdfyuzINoNrv5prgzrtZyQFplzLq/HshcCU2Q5JDpT7V8qiJSVV5GdSRy4nlqyeT3osGL3CVuPfyk5u7i03AlNfyxjfXkpfRehWGSYAgVlKjW8sU6QLhktXRezJy1hq2YmYlM2qwLTUB5S1lrsccyxVqlhJiYUVLKoGDLyLuh13vIqp1AXZ5ZzyBS51MMWzecPNA6j3Kacr8WUs2i5xlK+98gLN/v03P+pjx7/A0+AdVLa5juGUHfTfzUXX9cFOCyDbLfkoxZ7lRS7lbaS90h8p0LxyxXLl3ZTYUvFuyn4XsaiRqUxjAXlh9dUXnwUtvyNtdlOY2o3AlHM7ZSH73sVrY5/MpZwkGSIvL5e058eNwJTzyNT1NdffojzWRjtL8XgJF5BwB7ceTDeMRWBKv42F9qU/S7n8lhT9l/HtRmA6HbeBOAXiGkxgalGSK2Wy+N6QcWTenPQz0gLTq/HshcCUj9Sbb71DlanSSYXiWZ/BxfwluU7uZfnY0JtbOzm9tyAwS+nLFN0KmQAEZsjoovtA84tVYh9Ta9cOuqyhXvLPyZKLet9AS7IJHeOSe4GWk/SCol4ezulSgYGuKeepXqNm0KXotCDXS0U6YWW+nl5yLhxMnLLQS4dKEXw3S11asdN2lt8CLb/o1s7GJQjtGOs+O12q0q4txRm3XnI1t9PrftpxcPp7OMez0zbIfm7aEYqdnN5bbtqMfUGgNBOAwCyl1nXrOSqlGNAtEAABEAABEACBEiAAgVkC0CNxSQjMSFDGNUAABEAABEAABKwIQGCW0nEhhZxvumWgKh30wqTxyFIspXZGt0AABEAABEAgGglAYEajVdAmEAABEAABEAABEIhhAhCYMWw8NB0EQAAEQAAEQAAEopEABGY0WgVtAgEQAAEQAAEQAIEYJgCBGcPGQ9NBAARAAARAAARAIBoJQGBGo1XQJhAAARAAARAAARCIYQIQmDFsPDQdBEAABEAABEAABKKRAARmNFoFbQIBEAABEAABEACBGCYAgRnDxkPTQQAEQAAEQAAEQCAaCUBgRqNV0CYQAAEQAAEQAAEQiGECEJgxbDw0HQRAAARAAARAAASikUCpFJg/D1xJl7/VjHLz46KROdoEAiAAAiAAAiAAAqWWQPlyBfT+1Wvo5EmtwtrHtatX0oHs/RRXpVr1gqQKFalp8/Be8NXLN9Cbc6vTkv8qhrVjODkIgAAIgAAIgAAIgIA/gQ5199M1XXfRDe83CiuaiAvM/kfvonZ1smn8r6lh7RhODgIgAAIgAAIgAAIg4E9g8EnbaFl6BXrvr+phRRNxgSm9ES/mzNXJ9OXiqmHtHE4OAiAAAiAAAiAAAiBQSOCcjnuoZ/PMsHsv5VolIjAbVM2lR8/6jzbvKU/fL0+hFduSEJOJ0Q8CIAACIAACIAACHhOQmMvWqQeoT5sMqs/666Gv69Im1l/h3kpEYOpOyXT5Ka0zqHnNA1S+XLi7ivODAAiAAAiAAAiAQNkikJtPtHpHEv24IiXs0+JGsiUqMMuWidFbEAABEAABEAABECgbBCAwy4ad0UsQAAEQAAEQAAEQiBgBCMyIocaFQAAEQAAEQAAEQKBsEIDALBt2Ri9BAARAAARAAARAIGIEIDAjhhoXAgEQAAEQAAEQAIGyQQACs2zYGb0EARAAARAAARAAgYgRgMCMGGpcCARAAARAAARAAATKBgEIzLJhZ/QSBEAABEAABEAABCJGAAIzYqhxIRAAARAAARAAARAoGwQgMMuGndFLEAABEAABEAABEIgYAQjMiKHGhUAABEAABEAABECgbBCAwCwbdkYvQQAEQAAEQAAEQCBiBCAwI4YaFwIBEAABEAABEACBskEAArNs2Bm9BAEQAAEQAAEQAIGIEYDAjBhqXAgEQAAEQAAEQAAEygYBCMyyYWf0EgRAAARAAARAAAQiRgACM2KocSEQAAEQAAEQAAEQKBsEIDDLhp3RSxAAARAAARAAARCIGAEIzIihxoVAAARAAARAAARAoGwQgMAsG3ZGL0EABEAABEAABEAgYgQgMCOGGhcCARAAARAAARAAgbJBAAKzbNgZvQQBEAABEAABEACBiBGAwIwYalwIBEAABEAABEAABMoGAQjMsmFn9BIEQAAEQAAEQAAEIkYAAjNiqHEhEAABEAABEAABECgbBCAwy4ad0UsQAAEQAAEQAAEQiBgBCMyIocaFQAAEQAAEQAAEQKBsEIDALBt2Ri9BAARAAARAAARAIGIEIDAjhhoXAgEQAAEQAAEQAIGyQQACM2rsXIe6HN+O6iRzgzK30cKFS2hzRtQ0Dg0BgSgkgHsmCo2CJoEACICAIgCBGWAgVKnXgY7vlFr4a+Y6mjVrDe0N56Dh652pr8fXyVj9J81clVl4xXrNqGenJpSi/oPF53QWn+FsS0ycO5lad+5ALepU8rU2Y/UyZpburPUpLE56sKBXe2dR2u9zaQUEvTN20bJXsHsm1DaW2XHB99Pxx1IL+cDlLX3RnzR/y6HnT6gscRwIgECZJlCiArPLab0OveCd2iBy4qpKy650fPND4qUEBGb6ol/4AX+Ii9+LNBwMWGydpsVW9NmiaIv8X4aHf3fBJoVFew8t2qNFYNrYITOLMjK2UfrWrbTC7uXPQql1iyZUhwV44YdJoZDOSN9GaWlb2Tsu4iGMdnd0fadjLcB+JoHpd8+EeuqoHBehdsbNcf73lN8HrpvTYF8QAAEQOEQAAjPAUIi4wJSXfaApcghMfyuZhEVRgWn2xhjEut45GoWEX5tsnlFBwij8xq7labQQD4/AdH794j6HwzBF7tm4cDAGi9t9T4+HwPQUJ04GAiBQslPk8GA6HIEQmH6g/AUMi6XfzfGqDl7ungkJhzZ0spsbgXnII1lkaj+g+DY2QHtswyAwXV3fCZQI7+PZuHAwBiPcteCXg8CMKnOgMSBQCgiUqAezCL9wTHmFaKTIezCDNDTsAtPi2lFkC3Pr7G3j4OXumZAIcYBZHWYSmOYp3yo87dyy86FEMH28KXyjfude1LkwsJQ3k/hOSab6LSRuNZPSAsXxFtPuxb6+hzhDOpVn48LBGAypgeE6CAIzXGRxXhAoqwRiXGDyC7NlU35hphK/Ow9tOs5sTeAsbKv4MI5vS1+9hFZxbJsk8xQVMVsp5VBSSWFMm+y/jlZxUokx+ceYHFQoELiNDo4jv+QCkzAIJjD5t56cHKTb5FmyikOhETwZSvp+rE/wWMd1ubChjXdMzp+WfPh6Vje1T7Q5EhIu2iYXM54zfRl9szDDkIjEXsNFnEik42pDEJiFh/gzlb8cFqKm2FTVBodJT7o9Du1u/cAM7fpO7pmM9HVcWcH/Xgt6z/gaWAwbWiV/+US6IbZVnh3cPv0s8BfZRUlpe4V67zjhZfVs0i2R4zs3P/zMLGS7leoaknyKfa/KM9SQKOnqWVhW38boNwiUMgIxLDAN8VeWRuGHPr/QfYkyhhfoYUEW5OHvl+TDopX4heITsYbjTC9xozCVh3xyc51IYrqW+eUfTPAEEpjmKVU+5yzzSzjUAetQaAT3Jtp5RdzZ0C62z4nA9L04bQWmu7YpzH4Ccx2lpTTxZeX6C8EARrHxYB4+yjS17RtL5uSnEJKXHNrdkcB0mJ3vf88s49wjk5dWX8ycbBduG5rbbxPCoMeWncDU+4V674T8jGGO9Tt35Q++w5UXDtuRn3GZh59xRQWm+/uhOO0M9bGF40AABKKHQIwKzEBZxGawpqxiBzE389JQAAAgAElEQVRulg//oPbyf4nbiSDjA93P2+haYJoYeJ3p7lBohPqSFE+csSxKYMQGG0bMgxlC28wC06JDtlnOjgWmCAXTVPihKW+r8SceqrS0IB59Y1sd2j2QvUK5vvN7xlS+K6jA9MKG/ve2U+Fot5/Pgxm0UkXgjzPnvEwfGI7iYwst6y8wQ2MZcjuj5/2IloAACBSDQGwKzCL175bRwkNT1VW4ZmRnX81I/wel+cFvrPUmx7VkbyOtLsw4LvpwPPywrtKSa2TyFJPejA/jUI/z836ZPScWHkwKIDCKMRb8D3UoNEIWmCHaUBoZ9hjMUNtm8QHjG2Pi/lalgYJsLgRmkUQnX0xlEE+Tyjxfe6hEUYB2OLR74F64v36Re8aQIW++n/1q0jr+KJPngLNnROD70Og1Ns2OSHhL5yaUnL7kcO1a0weU1cdFqPdOqM8Y/+ef9GFJYa1L1X5/r7F/HV5zjV5nLENtp2fPMJwIBECgRAnEpMD0e1BaxJlZP7jdxYf5PxzNU41OvQvOj3MlMBcRi2gtcEOYBnUy5BwKjVBfkqHZsLDh4RaYIbfNJBBd1xL0RGAKoaJF6I0mz+B7Zmag2EyHdg8+hNxdP7BYLrxKIG9tsHvGGxsa762iMwYLFwbzCtsn+YR674T2bLJ7/vmHXRjHbqgsQ2unk4cT9gEBEIgFAjEoME3iTqb/tmb5s05uwkHs5iLp/g9Qu+lKTx7+Raatg8QkuvDG+IkFTmzxrfjj5YhzKDRC4xSqDSMhMIvRNtuYQBsDeSYwD13nUDKbcbUj3YKA4teh3R0NNYfXt/1g8GuTQfQF5B0eG1pO+bK3NW31WovC9xESmI6fMXbPv0DPptBZhvZscDSysBMIgEAMEIhBgemydp9+ALt4edt7yRx6MB0//PmKjgWmfzB+2JaOdCg0QnuJhGjDQzeUrSBxMD3pbCrUwR1stHEEBaafV8k2/rawkoF/ckeAVY8c2t0BGcMuwa9va0/XArMY48vGhgHjCosUvo8ygWn7/Av0TAudZWjPBncjC3uDAAhEL4EYFJhOA84PQddT6LYPWH8jhfpwDPU45wJTShhlUQvfMofc7lDK0diNSYdCI7T+hmjDiAjMYrQtYgIzUBZ5cKMGn7I8dKxDu9sNH6vfA13fe4EZbhseKn0kpX6MHfUT+lEmME3LghadwXHmwbS1u+FZFNqzwfYK2AEEQCBGCMS8wHQe5xY4xsj2ZejCExnyQ9WxB7PQ85RhzEAVjWlcu9yLwedQaASPn3P20nJuw8KO2QqSYnkwg4Qx2HGNiMAMVgfTpoGByl0ZD3NodzsUlr8HuL73MZiRs6FfLUu/5DyXAlOK4vsVv/d6lsTuoyTQ8zF0liE/C0MaXDgIBEAg2gjEoMA0Z3gXZkPqAukKsBRDrssF2NnDkGkQXgGzKEW0HFolJTm9MKYx1IdjqMe58mCqF5HZSxNgyjPUEedUaBTJuD4UE2qTmWr2Zjm1YSgCUzy8hfVBk6kKFRbSD8Y75LaFWWDaruSjrs/JX+kcF5i21S9bvAr/1pK93r5FfgJNqzu1u9W4CvH6Raad/bLIuWKDL6FNvqQMxeOD8PbehiLAJFOci5Kn8VjKOATAYRyo5Rj04t5x8fFrfv6l8XNzhYMs8lBZhvwsDPWZheNAAASiikBMCkyuxMwPey6r4QCln2fPQR04L4sg+5VUUW31IsknSF1IL6fKnQoNB7VFtZn8PZUh2tCRB9OceXx4oDgrtB5i2zwWmPbD21RBwIUtAnq8ndo9oMAMsLCAaX/j9QPGNVpcw6/dQXl7bUMH5wu6bKfdGAxu7YCl0FwITHLw/PPyXoXAtL+DsQcIlGYCMSowzR6oQCYqWsLH7mUWUwKTu13EK/E7L0eovSvFGbkuhEbgwtLMf3Wm8iTLVmQq3JEgsrGhQ09ckRennRgMpW1257Szh6NrHjpJkaQSp/eEhR2M7XJh9yLdcdh+8zjwFyLOV80K6vWXxjlqTzCRbvzNTmBarBwWQNAFLAHkBzTwvVMc4RbJe7U47bS7VfA7CIBA9BOILoHp+gVttc4wQ1drA2+j//6zrlNXWFQ9leokH14yLYOPyTSuRc4vB9/UnIWIMT6o/bwLIR7nv66yeQUOnvr0FY83T4WbClt75cV0aQspPq/WNz405n2rx1Q+XKTZ+frGwW0YfA3nwzedec1lkpIyC3laUAS439rvgWqJuhxffsxM68k7ehYEX45PxihlFJ3+Np5aptHrtuCp8BTT0qZ8bEaGaXrXqk0u7W4+RSjXLypEtlKKMetd7me+N1VRcOMWFhuyDXro2RGz+KxDrYUtL7V4OLmHuaqQhEDPGv91v/3G4KG+uL137MZ/oGdT4eWKJihJXVS1zrtBEHtxrxavnY5uGOwEAiAQxQSiS2BGMSg0DQRAIDwE7JO2wnNdnBUEQAAEQCB8BCAww8cWZwYBEHBAAALTASTsAgIgAAIxRgACM8YMZt9cu1gx6zO4LRVk3w7sAQLOCEBgOuOEvUAABEAglghAYMaStZy01VFiQ9ETQWA6gYt9wkEAAjMcVHFOEAABEChZAhCYJcs/DFeHBzMMUHHKcBIwZlvbLnsZzobg3CAAAiAAAl4RgMD0iiTOAwIgAAIgAAIgAAIgoAhAYGIggAAIgAAIgAAIgAAIeEoAAtNTnDgZCIAACIAACIAACIAABCbGAAiAAAiAAAiAAAiAgKcEIDA9xYmTgQAIgAAIgAAIgAAIQGBiDIAACIAACIAACIAACHhKAALTU5w4GQiAAAiAAAiAAAiAQIkJzIyMfZR9IIvy8/NhBRAAARAAARAAARAAgTASKFeuHFVIqkQpKZXDeJXDpy4Rgblr13bKzcmJSAdxERAAARAAARAAARAAgUIC5RMTqXr1WmHHEXGBKZ7LrMx9Ye8YLgACIAACIAACIAACIFCUQKXkymH3ZEZcYO7Yno5pcYx2EAABEAABEAABECghAjJdXrNWnbBePeICc2v65rB2CCcHARAAARAAARAAARAITqB2nfphRQSBGVa8ODkIgAAIgAAIgAAIRB8BCMzoswlaBAIgAAIgAAIgAAIxTQACM6bNh8aDAAiAAAiAAAiAQPQRgMCMPpugRSAAAiAAAiAAAiAQ0wQgMGPafGg8CIAACIAACIAACEQfAQjM6LMJWgQCIAACIAACIAACMU0AAjOmzYfGgwAIgAAIgAAIgED0EYDAjD6boEUgAAIgAAIgAAIgENMEIDBj2nxoPAiAAAiAAAiAAAhEHwEIzOizCVoEAiAAAiAAAiAAAjFNAAIzps2HxoMACIAACIAACIBA9BGAwIw+m6BFIAACIAACIAACIBDTBCAwY9p8aDwIgAAIgAAIgAAIRB8BCMzoswlaBAIgAAIgAAIgAAIxTQACM6bNh8aDAAiAAAiAAAiAQPQRgMCMPpugRSAAAiAAAiAAAiAQ0wQgMGPafGg8CIAACIAACIAACEQfAQjM6LMJWgQCIAACIAACIAACMU0AAjOmzYfGgwAIgAAIgAAIgED0EYDAjD6boEUgAAIgAAIgAAIgENMEIDBj2nxoPAiAAAiAAAiAAAhEHwEIzOizCVoEAiAAAiAAAiAAAjFNAAIzps2HxoMACIAACIAACIBA9BGAwIw+m6BFIAACIAACIAACIBDTBCAwY9p8aDwIgAAIgAAIgAAIRB8BCMzoswlaBAIgAAIgAAIgAAIxTQACM6bNh8aDAAiAAAiAAAiAQPQRgMCMPpugRSAAAiAAAiAAAiAQ0wQgMGPafGg8CIAACIAACIAACEQfAQjM6LMJWgQCIAACIAACIAACMU0AAjOmzYfGgwAIgAAIgAAIgED0EYDANNikZs2atGPHjuizEloEAiAAAiAAAiAAAjFEAALTYKxGjRrThg3rY8h8aCoIgAAIgAAIgAAIRB8BCMzoswlaBAIgAAIgAAIgAAIxTQACM6bNh8aDAAiAAAiAAAiAQPQRgMCMPpugRSAAAiAAAiAAAiAQ0wQgMGPafGg8CIAACIAACIAACEQfAQjM6LMJWgQCIAACIAACIAACMU0AAjOmzYfGgwAIgAAIgAAI/L+9O4GToyzzOP709EzPPcmQCZNJArkDIZCwmCAQg4CK8nEV5VoOERDkEISFhQVBDhUEYUFdFQUEDIewiiAiggrILYICCQZJSEICuSYnSWYmc3X3vm9110zfZ1V3VfWvFT+Y6X7rfb/PO5P/vFX1FgLOEyBgOq8m9AgBBBBAAAEEEHC1AAHT1eWj8wgggAACCCCAgPMECJjOqwk9QgABBBBAAAEEXC1AwHR1+eg8AggggAACCCDgPAECpvNqQo8QQAABBBBAAAFXCxAwXV0+Oo8AAggggAACCDhPgIDpvJrQIwQQQAABBBBAwNUCBExXl4/OI4AAAggggAACzhMgYDqvJvQIAQQQQAABBBBwtQAB09Xlo/MIIIAAAggggIDzBAiYzqsJPUIAAQQQQAABBFwtQMB0dfnoPAIIIIAAAggg4DwBzwXMzZs6JRgMOk+aHiGAAAIIIIAAAhUg4Pf7ZVRbu60jXbniXent2ym+lpGt4braepk4eZqtB+zq2iE93TtsPQaNI4AAAggggAACCKQWaGhslqamZlt5Sh4w9Wi2bt0kA/39tg6MxhFAAAEEEEAAAQTiBWoCAWltbbOdpSwBU49Kr2T29fZwutz2EnMABBBAAAEEEKh0AX1avLauwfaVS9O5bAGz0gvN+BFAAAEEEEAAAa8KEDC9WlnGhQACCCCAAAIIlEmAgFkmeA6LAAIIIIAAAgh4VYCA6dXKMi4EEEAAAQQQQKBMAgTMMsFzWAQQQAABBBBAwKsCBEyvVpZxIYAAAggggAACZRIgYJYJnsMigAACCCCAAAJeFSBgerWyjAsBBBBAAAEEECiTAAGzTPAcFgEEEEAAAQQQ8KoAAdOrlWVcCCCAAAIIIIBAmQQImGWC57AIIIAAAggggIBXBQiYXq0s40IAAQQQQAABBMokkBQwe/t2Sl1tvUycPK1MXeKwCCCAAAIIIIAAAl4Q8LWMbA3rYEnA9EI5GQMCCCCAAAIIIFB+AQJm+WtADxBAAAEEEEAAAU8JEDA9VU4GgwACCCCAAAIIlF+AgFn+GtADBBBAAAEEEEDAUwIETE+Vk8EggAACCCCAAALlFyBglr8G9AABBBBAAAEEEPCUAAHTU+VkMAgggAACCCCAQPkFCJjlrwE9QAABBBBAAAEEPCVAwPRUORkMAggggAACCCBQfgECZvlrQA8QQAABBBBAAAFPCRAwPVVOBoMAAggggAACCJRfgIBZ/hrQAwQQQAABBBBAwFMCBExPlZPBIIAAAggggAAC5RcgYJa/BvQAAQQQQAABBBDwlAAB01PlZDAIIIAAAggggED5BQiY5a8BPUAAAQQQQAABBDwlQMD0VDkZDAIIIIAAAgggUH4BAmb5a0APEEAAAQQQQAABTwkQMD1VTgaDAAIIIIAAAgiUX4CAWf4a0AMEEEAAAQQQQMBTAgRMT5WTwSCAAAIIIIAAAuUXIGCWvwb0AAEEEEAAAQQQ8JQAAdNT5WQwCCCAAAIIIIBA+QUImOWvAT1AAAEEEEAAAQQ8JVDBAbNRps+bK1MadT17ZPnLr8rSLk/V1uWDaZf95s2Qdl2f7o2ycOFiWUt9XF5Tuo8AAgggUCkClRswmybJ/IMmSFO00l0rXpMXlnVXSt2dP86OmXLEPqOH+mlJfZpUaD1IhVaj1Ur6pSL2lymRzrdek9fXMded/01ADxFAAAH3Cjg/YMYFDbWS9bJFK1klD5gq3BxuhpsUE6a7R7q6Nkrnhg2yNNtf/iooTZ8yQdrbG4YCsg5MXZ0bZfnyDWqlT4eHLMdLOWeV75+Ub7b5nNPxszWS5esJAbPzrWdVKCqyzbiaV27AtCSsF1kKPo4AAggg4G0BlwVMK0NBiU+RJwTajNMqwynhlqn7y7zJDRk+boZEewJm7scv9hvHhlPklgXMxBVBC8JvsVwZPx/fXwKmrdg0jgACCCCgBCo4YJa4/vkETKNrKcJ0wqpe6hGYn7MhYOZ1/BL75nI4AqahRMDMZbLwHgQQQACBYgQImMXo5fPZhICZeMq3RZ12njo7elOL2W73Knnppfdke/T/j519iMyOXECoXgmXCzQ1ytgpM2VKe7csT3eau8jTzkUfPx8vO95LwCRg2jGvaBMBBBBAIEnAIwGzUVo6dpWpk0eru45jTh+r6xo7O1fJsvWdsj3pDmR1HaO6S3noLvK31F3kSdf4FdJumlmWJWBGPqVC4uy5MSFS35Bhnn6NP80pnf+SJxZ25jeliwqYhR2/RR1zXvRmnchY9Bh1EDavH9XXjq5Sd4mrGsWOJu6GnHTX3qq2pk5UbY0Wla+jL/Na1PeS7zrPFjCHQnrMta3mHFoW6V98yE7mN+sVO25J+EUhsc6xK4q5eHWuUHM62p/EHujPz1bfB6ZHxHaDjBnaMSHdCmZ+lsX2M7+Jy7sRQAABBNwm4IGAGXOtXlp9FTRVgIy/SST+FHLyTSSFtltMwNSfTTi1PRQkEwJeIXdBWxkwczx+7DWbnSv+pYaXsEprciWGsGxhUDuZ2xilJE9R80xtZrmEwQyB2QKm+b64a1VTBMzhLbLiA1+81yppnDy800HcMFP8gjF29v7ql5NU1+eq0N2tQnM0hCefIs/fsph+uu2HJP1FAAEEEMhfwOUBMzF0ZQJIvEM6U8Aspt1iA2biKtlwv1PdYKNXqJYvT7Fal6obRQVMkUKOn/2moOGOxgWfjAEz1/ok1DxDm7kGx2zvG1rBjL0Zq8CAmfnbOeEa3Zyuj420GB8wC7PMva5W3piX/w84PoEAAgggUB4BdwfMxL0S1arO8KnWyKnY2BWd+L9YMwTMototPmDG/+UdG5IyrDQZd56vjG5RlKYPRQZMY3U13aphmuMnBZGYO+RbOibJ7H1iVuhig1imgJm0R6aqe/SUcWKbuYXW2LmQsPKpT9XPniCNnYtj9knNfhe5FSuYkSoOB7SWqepyA3X623zFji0++OoxLI7sdWn0P37VOM6kQMvkgJlbP8vzY46jIoAAAgiUWsDVATPuL9WkVSJNmbA6E/ee9AGzuHbtDJjRMUWvYUx1pC4Vsl9Id21m0QEz/+OnD8uR3ifdOGTeoJTramOKU8Vpw13aNpPnycKFmVaFSxUwE1f/0m03lO362Pi5njaY5mEZX9dc+1nqH28cDwEEEECgXAIuDpi57e2XcTUwZuPzdDfTpNvSJVtwSipoTjf5RD6VU9vRzc71zTKJr7Tb0FgSMKNHy/H4mVfyVFtxfYoJKjmGQeMSgQ098QSNE9SNLlGXHFdFU57yVauty1esTLHxfYkCZs6n1rNdT5xbMM3HstAV2nL9oOO4CCCAAAKlFXBxwMz2l2q2sJbu88W2m6aAeQTM7CuoscdIvhTA2MIo1VZFVgbMoS5kPr71ATPP/T1zDJjJwT7GOGnje4cFzKxzK13ALNySgFnaH9QcDQEEEHCbgGcCZk4rjTmdIk9/OjG2uFmDU+JMyBoCzA+ku4s889TKfMoy+llbAmaqIB97PV7Mk4dSXcZQ5Apm1m+42NO+We9M161Ft+vRW/3ENh7Xd4cFzISdB5J3RMhtBTMfSwJmVi3egAACCFS0gIsDZqbrK82aZro2Ld1KZbHtFrOCmWkfzCzzNPGZ7SVbwUwVXtPd+Z68spr/NZi5XRqRUiungDn8ybi9LOO2ZcozYCatKKcfQ2HBLdsvJel+aSrcsrB+VvTPWgaPAAIIVJSAIwPm9Hn7iyxUG593JQau+ICSeN1cl9pn0bybOLKZdfxd5PErO+lPhRfXbmEBM+uTfIxwpO4g7lTXBS7fEHe3eIv62tSDJqh1rOgr5Q1P6mvFrGAWePzMd5EPb8Ju9DzH1cbE1Vp9x/Qydcf00EbtesP0MWoDdrUK2T20Ub1qP23A1HNB3ymuNiVfHrMpf47Xgep+v2RsFK825pdoP5Luzn4tchd6lru6Cw1uiXeRL1cmS3O4i7xQy0L7WVE/XRksAgggUMECjgyY+x1+yHBYii1OUnDK4xqyLJ/NFD4zzo90YS7xQ8U+izyPzyefIk21yhj7lKAcvgMKPH7u+yUm9CfjamPudY+zyBgw1VY+mRgyPrZz+INDl2rk4RX3JJ8C989M/OUh01AybdeV6XOxlgTMHL5neAsCCCBQwQKODJjT5x0SfYRjfGVSBie1UjRfPYow7nq5xILqmzReWixr4/48y808Bbeb2wpm5tCq97RU/Y19vGWOgSXtHeT6gEWvYKZ5qkzMYBKPHx9E1BNlZPiJMnEGiVvkZDudnZNHwvY5BQfMFE8FSrOxefq9KWNHq/q1ottYYdUvSwKmaif9JvDpj2d0oABLAmYF/63B0BFAAIEcBBwZMPVpxOlTJhjPqzZeabeLiY7QPCUa90xq9Re3+lyn2mZmfezp0yGUHO4WL6jddOqZH8fXpZ55LV3Jp79jW9On0ccol/amhJCmPtvVlXB6N1U3soW2LBOmkOMnB5EN0hR76YJ+1veK6KbgscePexZ5uqfBpHp+tp4v+hn0G2X9+oS9LDO1GZ1z7UPPSNedyfBcc/XVxOd+G/NU/WKwNOYXA705uvFs8OjYhp681DxTjog+oz3ds8iTn2EeHyKTf5lIvkFJ74tqPHwgJhCn/iUkP8vMz1rP1s8cfjLxFgQQQAABVws4M2CWhDSHgFmSfnj7IHnfbe9tDkaHAAIIIIBARQhUbsBMtz1ORZS9dIMkYJbOmiMhgAACCCDgFIHKC5gpr51LszG5U6rk4n4QMF1cPLqOAAIIIIBAgQIVFzBT3dWc8caYAmH5WESAgMlMQAABBBBAoPIEKi5gSofaT3If827o6A0men9CXvYIxK4Y57qlkz09oVUEEEAAAQQQKJFA5QXMEsFyGAQQQAABBBBAoFIFCJiVWnnGjQACCCCAAAII2CRAwLQJlmYRQAABBBBAAIFKFSBgVmrlGTcCCCCAAAIIIGCTAAHTJliaRQABBBBAAAEEKlWAgFmplWfcCCCAAAIIIICATQIETJtgaRYBBBBAAAEEEKhUAQJmpVaecSOAAAIIIIAAAjYJlC1gdnXtkL7eHgkGgzYNjWYRQAABBBBAAAEEtIDf75faugZpamouCUhZAubWrZtkoL+/JAPkIAgggAACCCCAAAIRgZpAQFpb22znKHnA1CuXPd07bB8YB0AAAQQQQAABBBBIFmhobLZ9JbPkAXPzpk5OizPbEUAAAQQQQACBMgno0+Wj2tptPXrJA+aGzrW2DojGEUAAAQQQQAABBDIL7No+1lYiAqatvDSOAAIIIIAAAgg4T4CA6bya0CMEEEAAAQQQQMDVAgRMV5ePziOAAAIIIIAAAs4TIGA6ryb0CAEEEEAAAQQQcLUAAdPV5aPzCCCAAAIIIICA8wQImM6rCT1CAAEEEEAAAQRcLUDAdHX56DwCCCCAAAIIIOA8AQKm82pCjxBAAAEEEEAAAVcLEDBdXT46jwACCCCAAAIIOE+AgOm8mtAjBBBAAAEEEEDA1QIETFeXj84jgAACCCCAAALOEyBgOq8m9AgBBBBAAAEEEHC1AAHT1eWj8wgggAACCCCAgPMECJjOqwk9QgABBBBAAAEEXC1AwHR1+eg8AggggAACCCDgPAECpvNqQo8QQAABBBBAAAFXCxAwXV0+Oo8AAggggAACCDhPgIDpvJrQIwQQQAABBBBAwNUCBExXl4/OI4AAAggggAACzhMgYDqvJvQIAQQQQAABBBBwtQAB09Xlo/MIIIAAAggggIDzBAiYzqsJPUIAAQQQQAABBFwtQMB0dfnoPAIIIIAAAggg4DwBAqbzakKPEEAAAQQQQAABVwsQMF1dPjqPAAIIIIAAAgg4T4CA6bya0CMEEEAAAQQQQMDVAgRMV5ePziOAAAIIIIAAAs4TIGA6ryb0CAEEEEAAAQQQcLUAAdPV5aPzCCCAAAIIIICA8wQImM6rCT1CAAEEEEAAAQRcLUDAdHX56DwCCCCAAAIIIOA8AQKm82pCjxBAAAEEEEAAAVcLEDBdXT46jwACCCCAAAIIOE+AgOm8mtAjBBBAAAEEEEDA1QIETFeXj84jgAACCCCAAALOEyBgOq8m9AgBBBBAAAEEEHC1AAHT1eWj8wgggAACCCCAgPMECJjOqwk9QgABBBBAAAEEXC1AwHR1+eg8AggggAACCCDgPAECpvNqQo8QQAABBBBAAAFXCxAwXV0+Oo8AAggggAACCDhPgIDpvJrQIwQQQAABBBBAwNUCBExXl4/OI4AAAggggAACzhMgYDqvJvQIAQQQQAABBBBwtUAJAuYu4braOunt2yl1tfUycfI0W8E2dK61tX0aRwABBBBAAAEEEMgsQMBkhiCAAAIIIIAAAghYKkDAtJSTxhBAAAEEEEAAAQQImMwBBBBAAAEEEEAAAUsFCJiWctIYAggggAACCCCAAAGTOYAAAggggAACCCBgqYDtAbO5ZUS4vr6Ru8gtLRuNIYAAAggggAACzhWwPWDWNzSGm5tHlCxgbt7UKcFg0Lni9AwBBBBAAAEEEPCwgN/vl1Ft7baO0FdXV2+sYAbDwZLsg9nVtUN6unfYOigaRwABBBBAAAEEEEgt0NDYLE1Nzbby+Orq68M+X5XUBAIlCZh6NFu3bpKB/n5bB0bjCCCAAAIIIIAAAvECOu+1trbZzmIETH2UgHqaTyme5GOOSK9k9vX2cLrc9hJzAAQQQAABBBCodAF9Wry2rsH2lUvTWQXMBhUwwyUPmJVeaMaPAAIIIIAAAgh4VSAaMPUKZm1JVzC9Csq4EEAAAQQQQACBShfwhdVLI4xo3YWAWemzgfEjgAACCCCAAAIWCBAwLUCkCQQQQAABBBBAAIFhAQImswEBBBBAAEaC47wAABYLSURBVAEEEEDAUgECpqWcNIYAAggggAACCCBAwGQOIIAAAggggAACCFgqQMC0lJPGEEAAAQQQQAABBAiYzAEEEEAAAQQQQAABSwUImJZy0hgCCCCAAAIIIIAAAZM5gAACCCCAAAIIIGCpAAHTUk4aQwABBBBAAAEEECBgMgcQQAABBBBAAAEELBUgYFrKSWMIIIAAAggggAACBEzmAAIIIIAAAggggIClAgRMSzlpDAEEEEAAAQQQQICAyRxAAAEEEEAAAQQQsFSAgGkpJ40hgAACCCCAAAIIEDCZAwgggAACCCCAAAKWChAwLeWkMQQQQAABBBBAAAECJnMAAQQQQAABBBBAwFIBAqalnDSGAAIIIIAAAgggQMBkDiCAAAIIIIAAAghYKkDAtJSTxhBAAAEEEEAAAQSSAmbH2PGoIIAAAggggAACCCBQsEBywOwgYBasyQcRQAABBBBAAAEEhBVMJgECCCCAAAIIIICApQIETEs5aQwBBBBAAAEEEECAgMkcQAABBBBAAAEEELBUgIBpKSeNIYAAAggggAACCBAwmQMIIIAAAggggAAClgoQMC3lpDEEEEAAAQQQQAABAiZzAAEEEEAAAQQQQMBSAQKmpZw0hgACCCCAAAIIIEDAZA4ggAACCCCAAAIIWCpAwLSUk8YQQAABBBBAAAEECJjMAQQQQAABBBBAAAFLBQiYlnLSGAIIIIAAAggggAABkzmAAAIIIIAAAgggYKkAAdNSThpDAAEEEEAAAQQQIGAyBxBAAAEEEEAAAQQsFSBgWspJYwgggAACCCCAAAIETOYAAggggAACCCCAgKUCBExLOWkMAQQQQAABBBBAgIDJHEAAAQQQQAABBBCwVICAaSknjSGAAAIIIIAAAggQMJkDCCCAAAIIIIAAApYKEDAt5aQxBBBAAAEEEEAAAQImcwABBBBAAAEXC4wed7qMGHWY1ATaXTwKum63wEB/p2zb/IxsXHOn3Ycy2idgloSZgyCAAAIIIGC9wIQ9bpGG5lnWN0yLnhXo2bFIVi25yPbxETBtJ+YACCCAAAIIWC+gVy7bOk6wvmFa9LzApnUP2L6SScD0/DRigAgggAACXhSYOut+Tot7sbAlGJM+Xb5s0Um2HomAaSsvjSOAAAIIIGCPwIw5T9nTMK1WhMC//v5JW8dJwLSVl8YRQAABBBCwR4CAaY9rpbRKwKyUSjNOBBBAAAEE8hAgYOaBxVuTBAiYTAoEEEAAAQQQSBIgYDIpihEgYBajx2cRQAABBBDwqAAB06OFLdGwCJglguYwCCCAAAIIuEmAgOmmajmvrwRM59WEHiGAAAIIIFB2AQJm2Uvg6g4QMF1dPjqPAAIIIICAPQIETHtcK6VVAmalVJpxIoAAAgggkIcAATMPLN6aJEDAZFIggAACCCCAQJIAAZNJUYwAAbMYPT6LAAIIIICARwUImB4tbImGRcAsETSHQQABBBBAwE0CBEw3Vct5fSVgOq8m9AgBBBBAAIGyCxAwy14CV3eAgOnq8tF5BBBAAAEE7BEgYNrjWimtEjArpdKMEwEEEEAAgTwECJh5YPHWJAECJpMCAQQQQAABmwXa23eVjo4OefPNhTYfybrmCZgiu4+vklBQZPW6kHWwFdISAbNCCs0wEUAAAbcITJ48SU7+0omy776zZHRbm4RCYVnf2SlvvPGm3HX3Auns3OCWoRj9vPKb35CjvnikvPra3+Wss89zTd/dFDB3afXJZw4LyN4z/OKv8klQzZmV74fkxb8NyNtLVEIs4HXj1Y3S0V4lv/tjv/z60b4CWsjvI3vt4ZeP7lcj/1g0KIsWD+b3YQe+m4DpwKLQJQQQQKBSBc4792w5/j+OlaamppQEW7ZslWuvu0Ge+cuzriG6+qor5Itf+Lz87dXXCJg2VG3fvavl9JNqpW1UVVLr6zpDcu0tPbJlazjvI9/0rUYZM7p0AfPayxtkykS/rF4bkqtu6JGdvWGZNtkvnzi4RkY0++Shx/pl+crCwnLeg7fgAwRMCxBpAgEEEECgeIHzzj1HTj75RAnU1Mi7y5bLI488agTJNrWK+alPHiafVP8EagLyzSuvMVYD3fIiYNpbqasvaZA9p/llw8aQPPH0gLz+1qDMVKuB8w+skWq/GGGtkFepA+Y5p9XJQXNrZPGSQbnhhzuNLs8/oEZOO7FWhU2RW+/aKYvfIWCatfSF1Uv/nxGtu0hdbb10jB1fSJ35DAIIIICAhwX2nztHrv3ONTJ6dJu8qlb6Lrr4Uunujg8GjY0NcvDB8+X5519I+pqTaQiY9lVn5p5++dpX6qW50Se/+X2fPPpEf9zB9CluvYpZyKvUATNVHwmY6StHwCxkVvMZBBBAoMIErrj8Ujn6qC/I1q0fytXXfEdefOnlvATmz58nI1paZHBwUN5QN9Jku05z5sy9ZNLECbJhw8aMq6Fmu729vfLXV/6WMtjqa0b32GO6hEOhlMcmYOZVyrzebAbMJhUwH/pdnzymrpe06hUbMH+v2t1nL7/UVPtk1QfBrDf96FPdY8dUyZYPQ3Grjuafd3WH5Q210prtRcAkYGabI3wdAQQQQCCDwAO/vEdm7LmHvPDCS/L1Cy7KyeqwQw+RM844TaZNnSI16rS6+RoYGJCX//qKXH7FVUOB8OGHHpSWlma5/Y675Nhjj5apUyaLz+cTfZLt3XeXyWWXXykrVrw31Ia+FvS4Y48xPmO+dMh86um/GKfo9UsHy2vU9ZV77z1Tqqoi1//p9zz+hyflO9deP/Q5AmZO5SzoTXqF8uJz640wt3Z9SBb8X1/aG2TShTUzpLY0+eJu6DED5mtvqFPuaqW0RV0HqV/qdxjjGD++s9e4TlK/9HubGnzysFpF/cwnAsbNQWp6qfkl8vbSoDz+p3455vMBmbibX82VyJ/rldW7ftk7FEDP/HKdHPqxGvmnOg1+nbpu9IqLGmRvddzYV29fWBY82CfPvjRQkFcpP8Q1mKXU5lgIIIAAAkkCejXxpu99V8aMaZdfP/SwXH/DTTkpHXHEp+Xyyy6RneoCtXeWLJHt23eorYDGyKx99paQ+hv89tt/LnfetcBoSwfMiWrFMhgMGv8sXvy26ASg3+v3++OOa14LWq3+fKkKn8uXr5Ddd99Npk+bKu+tXCUnnPhl0afr77jtVpkxY09Zs3atPPbY4zJ+3Dg59NCPS11dnTzw4K/k5lt+aBybgJlTOQt+03FH1spnDw+o63NF1O8WxjWMeiUz8e7xQgLm+I7ILw49O8OydHlQamt9Mm1SJCQ+/9cBuW2BujgyGjDHqlCpFrGNO9hXrAypeSUyRb1Xx9JBdemkurld3l8TlO07wjJDXTMaCPjkuZeH20gMmGd8qU5mTPdLu7rRKKja1deYDgyE5S8vDsifnyNgcoq84G8ZPogAAghUhoB5/WVr60i5+xf3yK0/vT2ngeuQN27sWCMExr4W3H2HzJ49Sx757e/kW9++bihg6hXHDz5YLTd//4fy7LPPG39+289+LB/df+7QHd46cH7vhutE71upVyKvvOpbQ03rr82atY/cd/8DcvpXTpEzzzxDtmzeIpdedoUseuufxvsuOP9cY4ul1avXyAUXXiyrVr1PwMypmsW9Sa/8HXlEQHZti6wc6lXGt5cOyr1qRdPcw7LQgPnBmpDccW+vvLsicoONvhlHt7V5S0j+947In+sVTB1G128Iyf0P9cnf34yc/v7uNxtk0u5+I1TqU/hmMDz/q/Vy4NzqodVK/d7EgKn/jFPk6ecFAbO47xk+jQACCHheIDZgLrjnPvnxT36W95h1IDzowAOMADh37keM1cTEgLnbbuOTAmzi6uKpp5ws55z9Vdm2bXvGu9V/8P3/kUM+Pt+4VvTJJ/801N+RI0fKV047Ra1O1ch1198oTzzxRwJm3tUs7AP1dT751CE18on5NWr/1EjQfH91SH50x04jZBYSMFNtU7Tf7Go5S53ODgRk6HR1uhuCzNPcetXx9nsiq53pwiQBM7+6EzDz8+LdCCCAQMUJ6JXI++69W910M9E41Xzl1d/O2eCE44+TY485yjj9bV4HaX64kIB50YXny0knHm+sPB51zPFp+2GukqZ7g74D/vobbpTfP/4EATPnalrzRh00Tzi6Vg45SG1TVC3y9PMDcuf9vZYFzFTXbBIwk2vHNZjWzGdaQQABBBAoQsA8Vf3OO0vk9K+endM2RLHXSurP/UGtFuo7vS/97/8yTnuXImD++c9Py3Nq26TEV+zd7FyDWcTEKOKj5uqhedOMVSuYqe5cJ2ASMIuYqnwUAQQQQMAuAfOaRt3+vff+Up0m/2nGQ+lVz3t+caexcvnQbx6JuzHIDKuFBMx8T5E/+9wL8p/qWstMLwKmXbMmc7v6WsmD1WbrVgfMj6uV0VOOr1U3i4nceV+vvPKPQeMazFSn0zlFbl/tOUVuny0tI4AAAp4R0IHxJz/6gXr++Gzp6uqSBffcL3f8/K648R133DHGIxf1Hdrr1603NmbXj5S88aab5bePPma892PzDpLLLru44GswM93ko28S+vThn5Kf/ux2+do5Z8ppp35ZduzoSnp0pb4W1Ozn6+r56QRM+6apfoLPEWpbIH1TzQuvDN9ZrZ/rfdYpdTJaPT7SvFPbXMHUd5rfpq6HfH3hoOjT6WefWidz9q027gCPfe54qtCo33/hOfXG9kHvvR+Ua2/eaWxVRMBkBdO+WU7LCCCAAAJFCcyZs59c8Y1LZdKkicb+lHrT9U2bN6vtXXyy6667SnNzk7GRunkjkLl35tq162ThwkXGIyX32muG2iao1th6qJAVTD2A2EdWrlTbEunT77rtGTP2MPp03vkXGuPUWytNnz7NOJ3/xptvyocfbjO2M9Kbrg8ODHINZlGzIbcPH/AR9RxytZ1Po9qDsrtHzZkPw+JTWwiNHuWTWrUNkH4Gub4D/M1/Dop+ZrkOk3o/S/3na9YHjTu8G9Rn9Wqk3kYoMWCOU/trbtselg/U88F7VZDU2w61jvCprbHC8sAjffJUdLsguwKmOb6Gep+sUTcqbdwcMvbA1HtzOv3FNZhOrxD9QwABBCpIQK8SXnjB1407wfV+kubLDJx/eOJJYwVRh7ovHPk5Oe+8c6Rt1CjjbSG1BKXD4MJFb8kxR3/RuMEmdpuiXO4iN493ycUXyuf+/bNJG60/88yz6u7w7xnH16ud537tLJkz5yNGoNUv3c/NW7YYz1H/ya23GX/GCqZ9E1hvDXTiMbXGs8jr1B6V+s7xyFwQWbU6KA8+0h+38fqp6tT2ofMje2bqlw6lz6u9KMeNrZK9plfHBcxLzqs32tWrlrHtdqr9KB9+vF9ejFkxtStg6j7qUDxv/8gNS3r7pcfUpu2/+m2ffagWtUzAtAiSZhBAAAEErBPQp8wPPOCjQyEz3SMdzffVqD1jlixZGvc0Hit6Yz4qctv27cZThlK99BZJ/6ZO7VerBKA3Yjc2cffAa8acp1w1il1afbLnVL+xqflbbweHnrKTOAgdSieoJ+rozdNzeVyj/ry+sUevkmZq106sXMdmZx/ybZuAma8Y70cAAQQQQKACBNwWMCugJK4aIgHTVeWiswgggAACCJRGgIBZGmevHoWA6dXKMi4EEEAAAQSKECBgFoHHR4WAySRAAAEEEEAAgSQBAiaTohgBAmYxenwWAQQQQAABjwoQMD1a2BINi4BZImgOgwACCCCAgJsECJhuqpbz+krAdF5N6BECCCCAAAJlFyBglr0Eru4AAdPV5aPzCCCAAAII2CNAwLTHtVJaJWBWSqUZJwIIIIAAAnkIEDDzwOKtSQIETCYFAggggAACCCQJEDCZFMUIEDCL0eOzCCCAAAIIeFSAgOnRwpZoWATMEkFzGAQQQAABBNwkQMB0U7Wc11cCpvNqQo8QQAABBBAouwABs+wlcHUHCJiuLh+dRwABBBBAwB4BAqY9rpXSKgGzUirNOBFAAAEEEMhDgICZBxZvTRIgYDIpEEAAAQQQQCBJgIDJpChGgIBZjB6fRQABBBBAwKMCBEyPFrZEwyJglgiawyCAAAIIIOAmgamz7peaQLubukxfHSIw0N8pyxadZGtvfGH10kcY0bqL1NXWS8fY8bYekMYRQAABBBBAoHiB0eNOl7aOE4pviBYqTmDTugdk45o7bR03AdNWXhpHAAEEEEDAPoEJe9wiDc2z7DsALXtOoGfHIlm15CLbx0XAtJ2YAyCAAAIIIGCfgF7JHDHqME6X20fsiZb1afFtm5+xfeXSxCJgemLaMAgEEEAAAQQQQMA5AgRM59SCniCAAAIIIIAAAp4QIGB6oowMAgEEEEAAAQQQcI4AAdM5taAnCCCAAAIIIICAJwQImJ4oI4NAAAEEEEAAAQScI0DAdE4t6AkCCCCAAAIIIOAJAQKmJ8rIIBBAAAEEEEAAAecIEDCdUwt6ggACCCCAAAIIeEKAgOmJMjIIBBBAAAEEEEDAOQIETOfUgp4ggAACCCCAAAKeECBgeqKMDAIBBBBAAAEEEHCOAAHTObWgJwgggAACCCCAgCcECJieKCODQAABBBBAAAEEnCMQEzBHSV1tnXSMHe+c3tETBBBAAAEEEEAAAdcJEDBdVzI6jAACCCCAAAIIOFuAgOns+tA7BBBAAAEEEEDAdQIETNeVjA4jgAACCCCAAALOFiBgOrs+9A4BBBBAAAEEEHCdQFLAHDdudwmFQ64bCB1GAAEEEEAAAQQQKL9Ala9KhgJmy4iRUl/fKB3j1F3k4fJ3jh4ggAACCCCAAAIIuFDAJ8MBs6GxSZqbR8iIka3SpP49FCZlurCkdBkBBBBAAAEEECibQJXPJ13dXcMBs76+wVjBrAkEpGP8bvoLQsYsW304MAIIIIAAAggg4CoBlS0lrP5n3eoPYgJmQ4P41DnzxqZmCQRqZXT7GKlSi5isZLqqtnQWAQQQQAABBBAouYBeuQypgLmxc7309/fFB0zdm6qqamlobBR9gaY+XW78u/oPN/6UvFYcEAEEEEAAAQQQcLSAzosh9Z+e7m7Z9uFWIy/qfx+6yae+oVENQC1Zqv/6qqrUYyPrjdPl9r58Ul1bI37VsYG+QfW/aV4q9AZq9B1JQRnoDya8L3UbVdUBqfGHZbBvQILRZv01AamuynKsjAP2S02tX3zBAekfjF6jGu1bONgvA4MFakXbkNh2Y5qK9FutJg+qY5iDMb9eXSO1fvVbQ8zXfOrPAgl/Zr4909fieu9X7Vb7VJf6ZTDrpgI51jGRp8qv6uqX+HGbbenpmKre+regyHxI55WqCua4dZ36k+pUpeparX+NSpiHKeqdpcSRWsXPu6GP5D2Po/1SDv1q3sdfFZ3pa+k6GbGtSpxnPlWHgPouTFfr6FxINf/ynWt5fQ8WUeeU3ytJ8y//nytpy59xLofVVB1I+j6qUnMlMo1jvsei1uHQoAwMhBJqHpmPVaGg9Jk/CFTtalTtqtT7+9T7414pv5b/nC7wpxofQwCBChQY6O+X3r6dEg6F5P8BnnebypUdYgAAAAAASUVORK5CYII=;" vertex="1" parent="nmFTTgFp_2PvwewySN3C-65">
          <mxGeometry x="93.05999999999995" y="75" width="104.27" height="87" as="geometry" />
        </mxCell>
        <mxCell id="nmFTTgFp_2PvwewySN3C-68" value="&lt;div&gt;&lt;b&gt;Spielenamen (Ideen):&lt;/b&gt;&lt;/div&gt;&lt;div&gt;&quot;Schnitzeljagt&quot;&lt;/div&gt;&lt;div&gt;&quot;Schnell und hungig, die aufgabenjagt&quot;&lt;/div&gt;&lt;div&gt;&quot;lets todo&quot; &lt;br&gt;&lt;/div&gt;&lt;div&gt;&quot;lets task against each other&quot;&lt;/div&gt;&lt;div&gt;&quot;Überlebe die Liste&quot; ***&lt;/div&gt;&lt;div&gt;&quot;lets the list dont die&quot;&lt;/div&gt;" style="text;html=1;whiteSpace=wrap;overflow=hidden;rounded=0;" vertex="1" parent="1">
          <mxGeometry x="10" y="10" width="220" height="120" as="geometry" />
        </mxCell>
      </root>
    </mxGraphModel>
  </diagram>
</mxfile>
